<?xml version="1.0" standalone="no"?>
<!DOCTYPE svg PUBLIC "-//W3C//DTD SVG 1.1//EN" "http://www.w3.org/Graphics/SVG/1.1/DTD/svg11.dtd" >
<svg xmlns="http://www.w3.org/2000/svg">
<metadata>
Created by FontPrep 20130207 at Thu Nov 20 17:37:42 2014
 By Pepel
Copyright 2014 Adobe Systems Incorporated. All rights reserved.
</metadata>
<defs>
<font id="31f5397acf781e2a3e3c3b159c609f95" horiz-adv-x='1024' >
  <font-face 
    font-family="MilioDemiBold"
    font-weight="600"
    font-stretch="normal"
    units-per-em="2048"
    panose-1="0 0 0 0 0 0 0 0 0 0"
    ascent="1638"
    descent="-410"
    x-height="932"
    cap-height="1262"
    bbox="-362 -627 2382 1942"
    underline-thickness="102"
    underline-position="-102"
    unicode-range="U+0020-FB06"
  />
<missing-glyph horiz-adv-x="1091" 
d="M219 84h653v1268h-653v-1268zM137 2v1432h817v-1432h-817z" />
    <glyph glyph-name="f_f" unicode="ff" horiz-adv-x="1167" 
d="M174 932v45q0 187 85 287t225 100t235 -45q-8 -121 -62 -240h-49l-43 219q-20 6 -59 7q-109 0 -109 -308v-65h340v86q1 186 101 286t260 101q160 0 262 -45q-8 -121 -62 -240h-79l-43 219q-20 6 -56 7q-162 0 -162 -308v-106h177l-7 -72h-170v-747q0 -31 25 -33l119 -23
l-6 -57h-475l6 57l65 19q45 12 45 57v727h-340v-747q0 -31 25 -33l117 -23l-7 -57h-475l6 57l66 19q45 12 45 57v727h-108l6 72h102z" />
    <glyph glyph-name="fi" unicode="fi" horiz-adv-x="1126" 
d="M174 932v86q0 186 121 286t315 101q194 0 332 -57q-8 -123 -63 -240h-80l-41 223q-51 14 -123 15q-238 0 -238 -308v-106h561v-819q0 -31 25 -33l113 -23l-6 -57h-469l6 57l65 19q45 12 45 57v727h-340v-747q0 -31 25 -33l117 -23l-7 -57h-475l6 57l66 19q45 12 45 57
v727h-108l6 72h102z" />
    <glyph glyph-name="fl" unicode="fl" horiz-adv-x="1128" 
d="M397 1038v-106h174l-4 -72h-170v-747q0 -31 25 -33l117 -23l-7 -57h-475l6 57l66 19q45 12 45 57v727h-108l6 72h102v86q0 186 106 286t291 101q240 0 387 -57v-1235q0 -31 25 -33l113 -23l-6 -57h-469l6 57l65 19q45 12 45 57v1198q-49 14 -133 15q-207 0 -207 -308z
" />
    <glyph glyph-name="f_f_i" unicode="ffi" horiz-adv-x="1689" 
d="M174 932v45q0 187 81 287t218 100t248 -43q-12 -123 -64 -240h-49l-49 217q-18 6 -47 7q-115 0 -115 -248v-125h340v86q0 186 115 286q116 100 316 101q200 0 335 -57q-8 -121 -61 -240h-80l-43 223q-47 14 -123 15q-238 0 -238 -308v-106h564v-819q0 -31 24 -33l113 -23
l-6 -57h-469l6 57l65 19q45 12 45 57v727h-342v-747q0 -31 25 -33l119 -23l-6 -57h-475l6 57l65 19q45 12 45 57v727h-340v-747q0 -31 25 -33l117 -23l-7 -57h-475l6 57l66 19q45 12 45 57v727h-108l6 72h102z" />
    <glyph glyph-name="f_f_l" unicode="ffl" horiz-adv-x="1689" 
d="M737 133v727h-340v-747q0 -31 25 -33l117 -23l-7 -57h-475l6 57l66 19q45 12 45 57v727h-108l6 72h102v45q0 187 85 287t225 100t235 -45q-8 -121 -62 -240h-49l-43 219q-20 6 -59 7q-109 0 -109 -308v-65h340v86q1 186 107 286t291 101q236 0 387 -57v-1235
q0 -31 24 -33l113 -23l-6 -57h-469l6 57l65 19q45 12 45 57v1198q-49 14 -133 15q-209 0 -209 -308v-106h177l-7 -72h-170v-747q0 -31 25 -33l119 -23l-6 -57h-475l6 57l65 19q45 12 45 57z" />
    <glyph glyph-name="f_b" unicode="fb" horiz-adv-x="1660" 
d="M1153 872q-88 0 -195 -69v-766q39 -4 103 -4q139 0 210 122t70 337q0 380 -188 380zM174 932v86q0 186 115 286t317 101q202 0 352 -55v-473q137 84 254 84q164 0 270 -123t107 -358q0 -234 -143 -372t-350 -138t-359 46v1319q-41 10 -102 11q-123 0 -180 -74t-58 -234
v-106h174l-4 -72h-170v-747q0 -31 25 -33l117 -23l-7 -57h-475l6 57l66 19q45 12 45 57v727h-108l6 72h102z" />
    <glyph glyph-name="f_h" unicode="fh" horiz-adv-x="1691" 
d="M174 932v86q0 186 115 286t317 101q202 0 352 -55v-525q56 43 92 66t97 47t119 23q266 0 266 -322v-526q0 -27 27 -33l110 -23l-6 -57h-481l6 57l78 19q45 8 45 57v483q0 123 -33 168t-120 45t-200 -75v-641q0 -31 25 -33l107 -23l-7 -57h-462l6 57l65 19q45 12 45 57
v1202q-41 10 -102 11q-123 0 -180 -74t-58 -234v-106h174l-4 -72h-170v-747q0 -31 25 -33l117 -23l-7 -57h-475l6 57l66 19q45 12 45 57v727h-108l6 72h102z" />
    <glyph glyph-name="f_j" unicode="fj" horiz-adv-x="1091" 
d="M958 55q0 -184 -102 -299t-313 -139l-19 57q76 33 114 61q38 27 69 97t30 182v846h-340v-747q0 -31 25 -33l117 -23l-7 -57h-475l6 57l66 19q45 12 45 57v727h-108l6 72h102v86q0 186 115 286t315 101q200 0 338 -57q-8 -123 -63 -240h-80l-41 223q-51 14 -123 15
q-238 0 -238 -320v-94h561v-877z" />
    <glyph glyph-name="f_k" unicode="fk" horiz-adv-x="1648" 
d="M174 932v86q0 186 115 286t317 101q202 0 352 -55v-844l383 295q53 45 -34 61l-86 12l4 58h389l-4 -58l-66 -12q-48 -11 -123 -76l-186 -147l281 -479q55 -92 135 -103l-6 -57h-299l-289 500l-99 -78v-309q0 -31 25 -33l107 -23l-7 -57h-462l6 57l65 19q45 12 45 57v1202
q-41 10 -102 11q-123 0 -180 -74t-58 -234v-106h174l-4 -72h-170v-747q0 -31 25 -33l117 -23l-7 -57h-475l6 57l66 19q45 12 45 57v727h-108l6 72h102z" />
    <glyph glyph-name=".notdef" horiz-adv-x="1091" 
d="M219 84h653v1268h-653v-1268zM137 2v1432h817v-1432h-817z" />
    <glyph glyph-name=".null" horiz-adv-x="0" 
 />
    <glyph glyph-name="nonmarkingreturn" horiz-adv-x="681" 
 />
    <glyph glyph-name="space" unicode=" " horiz-adv-x="436" 
 />
    <glyph glyph-name="exclam" unicode="!" horiz-adv-x="499" 
d="M123 96q0 125 126 125t126 -125q0 -61 -34 -94t-92 -33t-92 33t-34 94zM205 340l-76 922l242 -2l-74 -920h-92z" />
    <glyph glyph-name="quotedbl" unicode="&#x22;" horiz-adv-x="684" 
d="M143 762l-51 500h213q-8 -246 -86 -500h-76zM436 762l-51 500h213q-8 -246 -86 -500h-76z" />
    <glyph glyph-name="numbersign" unicode="#" horiz-adv-x="1181" 
d="M463 778l-37 -289h289l37 289h-289zM82 489h203l37 289h-240v142h258l45 342h141l-45 -342h289l45 342h141l-45 -342h189v-142h-207l-37 -289h244v-139h-262l-45 -350h-142l45 350h-288l-46 -350h-141l45 350h-184v139z" />
    <glyph glyph-name="dollar" unicode="$" horiz-adv-x="1015" 
d="M315 1024q2 -131 170 -248l47 451q-115 -1 -167 -63t-50 -140zM471 33q135 2 187 59t51 134t-51 133t-142 118zM512 1292h29l18 181h62l-21 -187q205 -18 307 -82q-4 -147 -47 -252h-92l-66 256q-25 8 -108 17l-49 -488q17 -10 75 -46t80 -51t70 -49q47 -34 69 -59
q21 -26 49 -62q50 -66 50 -159q4 -160 -125 -251t-334 -91h-14l-16 -159h-62l16 163q-227 18 -344 103q0 142 39 248h95l75 -258q61 -25 142 -31l49 479q-184 121 -244 178q-127 120 -129 270t117 240t309 90z" />
    <glyph glyph-name="percent" unicode="%" horiz-adv-x="1529" 
d="M1053 316q0 -272 122 -273q121 0 121 272t-122 273q-121 0 -121 -272zM235 950q0 -272 122 -272t122 272t-123 273q-121 -1 -121 -273zM1174 -31q-133 0 -216 94q-82 94 -81 250q0 156 81 251q82 95 216 95t216 -95q83 -95 83 -251t-83 -250t-216 -94zM356 604
q-133 0 -215 94t-82 250t82 251t215 95q52 0 90 -13t148 -54t189 -41t134 26t85 44t69 40t51 31l86 -53l-800 -1327l-89 55l725 1196q-162 -90 -246 -91t-186 32q43 -86 43 -191q0 -156 -83 -250t-216 -94z" />
    <glyph glyph-name="ampersand" unicode="&#x26;" horiz-adv-x="1445" 
d="M524 1046q0 -81 129 -264q74 74 107 126t33 129t-38 130q-37 53 -97 53t-97 -46q-37 -47 -37 -128zM555 61q72 0 128 28t140 91l-350 477q-92 -87 -134 -159t-42 -178q-1 -106 71 -183q72 -76 187 -76zM63 313q0 227 302 361l71 35l-4 6q-129 167 -129 291t100 205
q101 81 247 81t235 -75q88 -77 88 -165q-1 -88 -63 -158t-218 -167q31 -43 127 -170t162 -215l197 238q30 34 21 45q-9 12 -28 18l-110 16l6 58h365l-5 -58l-65 -12q-29 -6 -46 -20t-50 -54l-242 -290q92 -125 137 -162t97 -37t92 4l12 -41q-119 -78 -246 -78t-250 154
q-102 -82 -188 -118t-186 -36q-199 0 -314 96t-115 248z" />
    <glyph glyph-name="quotesingle" unicode="'" horiz-adv-x="391" 
d="M143 762l-51 500h213q-8 -246 -86 -500h-76z" />
    <glyph glyph-name="parenleft" unicode="(" horiz-adv-x="593" 
d="M63 535q0 512 443 905l55 -56q-279 -383 -278 -849q-1 -250 71 -441t203 -377l-55 -55q-207 184 -323 387t-116 486z" />
    <glyph glyph-name="parenright" unicode=")" horiz-adv-x="593" 
d="M530 535q0 -283 -116 -486t-322 -387l-55 55q131 187 203 377t71 441q0 461 -278 849l55 56q442 -393 442 -905z" />
    <glyph glyph-name="asterisk" unicode="*" horiz-adv-x="933" 
d="M489 1403q37 1 53 -17t11 -47l-41 -272q162 162 299 152l25 -39q16 -29 10 -56t-33 -34l-260 -101q90 -14 176 -70t109 -118l-25 -37q-16 -27 -43 -34t-43 7l-215 172q29 -57 26 -168t-44 -168h-48q-35 1 -52 19t-13 47l41 274q-57 -67 -139 -111t-164 -40l-25 39
q-16 27 -9 55t34 35l254 96q-90 15 -168 65t-111 119l23 43q37 70 92 23l213 -174q-29 98 -24 189t44 151h47z" />
    <glyph glyph-name="plus" unicode="+" horiz-adv-x="888" 
d="M362 406h-290v151h290v297h168v-297h287v-151h-287v-312l-168 -2v314z" />
    <glyph glyph-name="comma" unicode="," horiz-adv-x="458" 
d="M96 100q0 70 37 104t98 34t97 -40t34 -116q0 -128 -79 -230t-220 -139l-10 54q94 43 137 90t56 112q-150 10 -150 131z" />
    <glyph glyph-name="hyphen" unicode="-" horiz-adv-x="645" 
d="M111 397v174h424v-174h-424z" />
    <glyph glyph-name="period" unicode="." horiz-adv-x="452" 
d="M94 104q0 66 35 100t97 34t98 -34t36 -100t-36 -100t-96 -35q-62 1 -98 35t-36 100z" />
    <glyph glyph-name="slash" unicode="/" horiz-adv-x="985" 
d="M39 -387l741 1790h164l-743 -1790h-162z" />
    <glyph glyph-name="zero" unicode="0" horiz-adv-x="1128" 
d="M563 33q223 0 223 598q0 268 -53 433t-170 165q-223 0 -223 -598t223 -598zM564 -31q-216 1 -350 183t-134 479t134 479t350 182t349 -182t133 -479t-132 -479q-134 -182 -350 -183z" />
    <glyph glyph-name="one" unicode="1" horiz-adv-x="694" 
d="M500 1278v-1147q0 -32 31 -46q11 -5 36 -11l76 -17l-6 -57h-522l4 57l80 15q35 8 51 20t16 39l2 926l-227 -53l4 71l406 203h49z" />
    <glyph glyph-name="two" unicode="2" horiz-adv-x="1003" 
d="M465 1292q188 0 299 -98t110 -281q0 -232 -181 -419q-91 -94 -179 -164t-219 -158l438 2q31 0 44 15t26 55l28 88h95q-4 -188 -39 -332h-830l-4 84q303 226 430 408t131 436q2 113 -42 207t-142 94t-137 -35l-57 -256h-97q-49 106 -49 233q133 121 375 121z" />
    <glyph glyph-name="three" unicode="3" horiz-adv-x="952" 
d="M391 1229q-70 0 -127 -31l-61 -260h-92q-51 102 -52 227q61 57 163 92t204 35q178 0 291 -78t112 -213q-1 -100 -69 -185t-201 -107q141 -23 231 -107t89 -196q-1 -197 -217 -310t-568 -127l-8 70q311 16 423 128q111 111 110 225q-1 113 -78 186q-78 72 -224 81l5 66
q137 27 190 93t56 168t-37 172t-140 71z" />
    <glyph glyph-name="four" unicode="4" horiz-adv-x="1026" 
d="M166 477l409 -2v619zM809 324v-193q0 -27 17 -37q16 -10 22 -11t29 -9l59 -17l-4 -57h-486l7 57l55 15q46 15 56 27q11 13 11 32v191h-552l6 81l569 859h211v-789h154l-9 -149h-145z" />
    <glyph glyph-name="five" unicode="5" 
d="M494 803q188 0 296 -116q108 -115 108 -303t-130 -302t-358 -113q-228 0 -355 129q12 135 51 221h107l43 -256q48 -31 124 -31q133 1 195 92q62 90 62 249t-46 263t-142 103q-96 0 -242 -84h-72l68 607h649l-23 -207l-573 35q-33 -283 -41 -357q150 70 279 70z" />
    <glyph glyph-name="six" unicode="6" horiz-adv-x="1075" 
d="M554 723q-93 0 -216 -84v-31q0 -248 51 -412t162 -163q195 0 194 350q0 150 -49 245t-142 95zM637 797q160 1 264 -97q105 -98 105 -294t-134 -316q-134 -121 -334 -121q-198 0 -328 168t-130 426q0 338 172 534t418 195q74 0 148 -17t110 -34l37 -18q-6 -78 -41 -142
h-62l-65 133q-55 10 -113 11q-137 -1 -230 -141t-112 -369q135 82 295 82z" />
    <glyph glyph-name="seven" unicode="7" horiz-adv-x="911" 
d="M897 1262v-60l-477 -1202h-270l614 1100l-514 -17q-27 -2 -41 -9t-23 -30l-41 -112h-94q0 188 43 330h803z" />
    <glyph glyph-name="eight" unicode="8" horiz-adv-x="1028" 
d="M805 1018q-1 96 -59 153t-168 57t-165 -52q-57 -52 -57 -138t62 -154t186 -157q201 127 201 291zM184 279q0 -117 73 -182t197 -65t190 57q66 56 65 144q0 53 -49 116q-45 64 -277 235q-199 -137 -199 -305zM952 297q0 -147 -124 -237t-338 -91q-214 0 -313 81t-99 224
q0 188 256 349q-219 182 -219 342q0 159 123 243t301 84t273 -68t95 -204q-1 -94 -71 -180t-181 -150q93 -70 147 -118t102 -124t48 -151z" />
    <glyph glyph-name="nine" unicode="9" horiz-adv-x="1073" 
d="M519 539q93 0 216 82v32q0 248 -51 412t-162 164q-195 0 -194 -350q0 -150 49 -245t142 -95zM393 37q133 0 225 139t113 369q-137 -80 -296 -80t-263 97t-104 293q0 197 134 317t332 120t329 -168q130 -168 130 -426q0 -338 -171 -534t-414 -195q-76 1 -152 19t-113 37
l-37 18q14 86 50 141h59l61 -137q55 -10 117 -10z" />
    <glyph glyph-name="colon" unicode=":" horiz-adv-x="489" 
d="M111 104q0 134 135 134q61 0 97 -34t36 -100t-36 -100t-98 -35q-62 1 -98 35t-36 100zM111 815q0 133 135 133q61 0 97 -34t36 -100t-36 -100t-98 -34t-98 34t-36 101z" />
    <glyph glyph-name="semicolon" unicode=";" horiz-adv-x="509" 
d="M123 815q0 133 135 133q61 0 98 -34t37 -100t-37 -100t-99 -34t-98 34t-36 101zM260 236q133 0 133 -154q0 -132 -80 -232t-221 -137l-10 54q94 43 137 89t57 113q-152 8 -151 131q0 70 37 103t98 33z" />
    <glyph glyph-name="less" unicode="&#x3c;" horiz-adv-x="870" 
d="M61 403v103l699 360v-182l-473 -229l473 -228v-180z" />
    <glyph glyph-name="equal" unicode="=" horiz-adv-x="1058" 
d="M113 186v174h831v-174h-831zM113 569v174h831v-174h-831z" />
    <glyph glyph-name="greater" unicode="&#x3e;" horiz-adv-x="870" 
d="M809 506v-103l-698 -356v180l473 228l-473 229v182z" />
    <glyph glyph-name="question" unicode="?" horiz-adv-x="864" 
d="M229 90q0 117 121 117q53 0 85 -30t32 -87t-32 -89t-86 -32t-87 32t-33 89zM404 1292q186 0 294 -84t109 -223q0 -139 -83 -230q-36 -38 -81 -73l-90 -70q-103 -80 -140 -176q-24 -59 -24 -133h-84q-7 232 87 370q40 56 81 104q102 119 100 241q-1 80 -39 144t-134 65
q-96 0 -144 -37l-57 -252h-101q-37 96 -37 231q157 123 343 123z" />
    <glyph glyph-name="at" unicode="@" horiz-adv-x="1734" 
d="M777 270q71 0 231 252l34 246l-118 72q-68 0 -141 -135t-72 -281q-5 -154 66 -154zM704 98q-110 0 -170 82t-61 199q0 211 161 380t288 167l133 -78l55 61h186l-96 -553l-22 -153q145 12 265 138t120 333t-162 330q-161 122 -439 122t-483 -208t-205 -529
q0 -197 114 -350q58 -78 167 -123t233 -45t242 33q119 33 166 71l21 -45q-193 -164 -475 -164t-475 163q-191 163 -191 444q0 244 131 433q131 188 336 286t440 98q297 0 480 -148t183 -382t-165 -390q-166 -156 -441 -155h-92l35 247q-169 -264 -279 -264z" />
    <glyph glyph-name="A" unicode="A" horiz-adv-x="1196" 
d="M510 1079l-205 -569h406zM836 158l-99 280h-456l-103 -284q-23 -61 45 -76l137 -21l-4 -57h-391l4 57l70 21q41 12 59 63l402 1121h196l396 -1110q23 -61 65 -74l66 -21l-6 -57h-558l7 57l114 17q79 14 56 84z" />
    <glyph glyph-name="B" unicode="B" horiz-adv-x="1173" 
d="M770 965q0 225 -199 225h-135v-483h142q98 -1 145 73t47 185zM575 635h-139v-563h166q246 0 246 274q0 123 -67 206t-206 83zM203 131v999q1 27 -15 39t-51 21l-61 14l4 58h522q198 0 314 -73t116 -216q0 -94 -61 -180t-199 -119q170 -31 253 -120t83 -204
q0 -162 -119 -256t-321 -94h-594l6 57l55 15q46 15 57 27q11 13 11 32z" />
    <glyph glyph-name="C" unicode="C" horiz-adv-x="1222" 
d="M741 -31q-305 0 -486 163t-181 478q0 314 188 498t464 184t454 -123q-16 -141 -62 -233h-96l-64 256q-72 37 -188 37q-196 0 -316 -165q-120 -164 -120 -440t118 -434t312 -157q96 0 164 24l102 246h103q25 -145 -11 -264q-154 -70 -381 -70z" />
    <glyph glyph-name="D" unicode="D" horiz-adv-x="1359" 
d="M596 1190h-160v-1118h160q190 0 310 144t120 410t-121 416q-121 148 -309 148zM203 131v999q1 27 -15 39t-51 21l-61 14l4 58h547q295 0 477 -169t182 -457t-181 -462t-470 -174h-561l6 57l55 15q46 15 57 27q11 13 11 32z" />
    <glyph glyph-name="E" unicode="E" horiz-adv-x="1089" 
d="M203 131v999q1 27 -15 39t-51 21l-61 14l4 58h891q25 -123 12 -291h-86l-76 164q-25 55 -106 55h-279v-504h240q45 0 59 43l45 121h78l-18 -399h-70l-43 129q-10 35 -53 34h-238v-542h303q76 0 97 47l90 172h90q6 -152 -33 -291h-909l6 57l55 15q46 15 57 27q11 13 11 32
z" />
    <glyph glyph-name="F" unicode="F" horiz-adv-x="1044" 
d="M203 131v999q1 27 -15 39t-51 21l-61 14l4 58h895q27 -115 12 -297h-84l-76 170q-25 55 -106 55h-285v-516h240q45 0 59 43l45 121h78l-18 -400h-70l-43 129q-12 37 -53 37h-238v-473q0 -33 32 -46q11 -5 36 -11l100 -17l-4 -57h-526l6 57l55 15q46 15 57 27q11 13 11 32
z" />
    <glyph glyph-name="G" unicode="G" horiz-adv-x="1337" 
d="M799 1227q-217 0 -342 -160q-125 -161 -125 -439t117 -436t325 -157q115 0 172 41v317q0 45 -55 58l-103 20l7 57h508l-7 -57l-75 -27q-41 -16 -41 -51v-297q-164 -127 -456 -127t-472 174t-180 473q0 300 188 488t488 188t456 -137q-12 -117 -61 -219h-96l-64 256
q-61 35 -184 35z" />
    <glyph glyph-name="H" unicode="H" horiz-adv-x="1423" 
d="M203 1130q1 27 -15 39t-51 21l-61 14l4 58h485l-6 -58l-53 -16q-4 -2 -12 -4t-12 -4t-12 -4q-7 -2 -10 -4t-8 -6q-16 -10 -16 -36v-436h553v436q0 27 -16 39t-51 21l-62 14l6 58h484l-7 -58l-53 -16q-4 -2 -12 -4t-12 -4t-12 -4t-10 -4q-3 -2 -8 -6q-15 -9 -15 -36v-999
q0 -27 17 -37q16 -10 22 -11t28 -9l62 -17l-7 -57h-483l6 57l54 15q46 14 57 27q12 13 12 32v492h-553v-492q0 -27 18 -37t22 -11q5 -1 28 -9l59 -17l-4 -57h-485l6 57l55 15q46 15 57 27q11 13 11 32v999z" />
    <glyph glyph-name="I" unicode="I" horiz-adv-x="638" 
d="M203 1130q1 27 -15 39t-51 21l-61 14l4 58h485l-6 -58l-53 -16q-4 -2 -12 -4t-12 -4t-12 -4q-7 -2 -10 -4t-8 -6q-16 -10 -16 -36v-999q0 -27 18 -37t22 -11q5 -1 28 -9l59 -17l-4 -57h-485l6 57l55 15q46 15 57 27q11 13 11 32v999z" />
    <glyph glyph-name="J" unicode="J" horiz-adv-x="612" 
d="M422 68q0 -190 -109 -308t-323 -143l-15 57q59 27 88 44q29 16 64 54q61 65 61 242v1116q0 27 -15 39t-50 21l-62 14l7 58h483l-6 -58l-53 -16q-4 -2 -12 -4t-13 -4q-4 -2 -11 -4q-6 -2 -10 -4t-9 -6q-15 -9 -15 -36v-1062z" />
    <glyph glyph-name="K" unicode="K" horiz-adv-x="1239" 
d="M203 1130q1 27 -15 39t-51 21l-61 14l4 58h485l-6 -58l-53 -16q-4 -2 -12 -4t-12 -4t-12 -4q-7 -2 -10 -4t-8 -6q-16 -10 -16 -36v-483l488 483q22 25 16 41t-33 21l-94 12l4 58h389l-4 -58l-94 -20q-41 -12 -100 -72l-308 -305l396 -604q80 -119 168 -146l-4 -57h-320
l-416 631l-88 -88v-412q0 -27 18 -37t22 -11q5 -1 28 -9l59 -17l-4 -57h-485l6 57l55 15q46 15 57 27q11 13 11 32v999z" />
    <glyph glyph-name="L" unicode="L" horiz-adv-x="1050" 
d="M203 131v999q1 27 -15 39t-51 21l-61 14l4 58h485l-6 -58l-53 -16q-4 -2 -12 -4t-12 -4t-12 -4q-7 -2 -10 -4t-8 -6q-16 -10 -16 -36v-1058h269q78 0 98 47l104 241h97q2 -184 -48 -360h-882l6 57l55 15q46 15 57 27q11 13 11 32z" />
    <glyph glyph-name="M" unicode="M" horiz-adv-x="1671" 
d="M272 133q0 -33 41 -47q6 -2 29 -8l82 -21l-6 -57h-346l6 57l53 19q44 11 57 24q12 14 13 33v1028l-15 6q-10 16 -96 37l4 58h334l418 -1063l432 1063h321l-6 -58q-57 -12 -123 -30v-1043q0 -26 18 -37q18 -10 22 -11q5 -1 28 -9l61 -17l-6 -57h-483l4 57l55 15
q46 15 57 27q11 13 11 32v838l-393 -969h-168q-303 754 -404 1012v-879z" />
    <glyph glyph-name="N" unicode="N" horiz-adv-x="1404" 
d="M272 133q0 -33 41 -47q6 -2 29 -8l82 -21l-6 -57h-346l6 57l55 19q42 10 54 24q13 14 14 33v1028q-55 37 -119 43l4 58h332l725 -1045v911q0 31 -33 44q-12 5 -39 12l-78 20l4 58h346l-4 -58l-57 -18q-35 -8 -51 -20t-17 -38v-1128h-219l-723 1059v-926z" />
    <glyph glyph-name="O" unicode="O" horiz-adv-x="1394" 
d="M700 33q168 0 265 166q96 166 96 430t-95 432q-96 168 -264 168t-268 -165t-100 -426t99 -433t267 -172zM700 -31q-282 0 -454 173q-172 172 -172 484t174 489t451 177t449 -173t173 -487q0 -314 -170 -488t-451 -175z" />
    <glyph glyph-name="P" unicode="P" horiz-adv-x="1116" 
d="M541 1190h-105v-629h131q121 0 176 90t56 234q0 305 -258 305zM203 1130q1 27 -15 39t-51 21l-61 14l4 58h473q242 0 378 -92t136 -283q0 -189 -132 -293t-353 -105h-146v-358q0 -47 68 -57l121 -17l-7 -57h-544l6 57l55 15q46 15 57 27q11 13 11 32v999z" />
    <glyph glyph-name="Q" unicode="Q" horiz-adv-x="1394" 
d="M702 33q168 0 263 165q94 165 94 430t-96 433q-97 168 -265 168t-266 -165t-98 -426t100 -433t268 -172zM74 626q0 310 174 488t454 178t448 -173q169 -173 169 -465t-130 -461q-130 -168 -351 -209q297 -156 512 -215l227 104l35 -39q-58 -145 -207 -209
q-149 -65 -344 30q-99 46 -367 314q-280 0 -450 173q-170 174 -170 484z" />
    <glyph glyph-name="R" unicode="R" horiz-adv-x="1206" 
d="M575 1190h-139v-600h164q121 0 177 84t57 217q-1 299 -259 299zM203 1130q1 27 -15 39t-51 21l-61 14l4 58h493q249 0 389 -92t140 -277q0 -125 -71 -215t-195 -131l161 -307q37 -74 80 -118t113 -65l-8 -57h-138q-119 0 -172 32t-108 144l-162 342h-166v-387
q0 -27 16 -39t52 -18l104 -17l-6 -57h-528l6 57l55 15q46 15 57 27q11 13 11 32v999z" />
    <glyph glyph-name="S" unicode="S" horiz-adv-x="1005" 
d="M476 33q126 0 179 57t51 137q-3 141 -220 271q-91 55 -181 115q-91 61 -155 149t-66 194q-2 156 117 246t309 90q104 0 218 -24t177 -64q-4 -147 -47 -252h-92l-66 256q-51 18 -168 18q-116 0 -168 -62t-50 -143t66 -153q65 -72 155 -126t181 -110t154 -138t66 -183
q4 -160 -125 -251t-334 -91q-117 0 -233 29t-187 78q0 142 39 248h94l76 -258q84 -33 210 -33z" />
    <glyph glyph-name="T" unicode="T" horiz-adv-x="1136" 
d="M834 1190h-148v-1059q0 -34 30 -46q11 -5 36 -11l94 -17l-6 -57h-543l4 57l82 15q37 8 53 20t17 39v1059h-152q-78 0 -108 -68l-82 -170l-66 15q-10 160 27 295h993q33 -135 27 -295l-70 -15l-80 170q-31 68 -108 68z" />
    <glyph glyph-name="U" unicode="U" horiz-adv-x="1310" 
d="M1137 508q0 -270 -111 -404t-346 -135q-280 0 -392 124t-112 382v655q0 27 -16 39t-51 21l-62 14l6 58h498l-4 -58l-70 -16q-45 -13 -56 -26t-11 -32v-718q0 -367 317 -367q338 0 338 451v634q0 27 -15 39t-51 21l-71 14l6 58h332l-6 -58l-54 -16q-4 -2 -12 -4t-12 -4
t-12 -4t-10 -4q-3 -2 -8 -6q-15 -9 -15 -36v-622z" />
    <glyph glyph-name="V" unicode="V" horiz-adv-x="1159" 
d="M483 0l-379 1118q-16 49 -59 64l-63 22l6 58h547l-7 -58l-125 -28q-61 -14 -38 -82l297 -893l319 899q25 68 -39 82l-131 22l4 58h379l-6 -58l-53 -20q-53 -18 -68 -62l-399 -1122h-185z" />
    <glyph glyph-name="W" unicode="W" horiz-adv-x="1857" 
d="M463 0l-359 1118q-14 49 -59 64l-61 22l4 58h547l-5 -58l-124 -28q-61 -14 -39 -82l272 -883l254 762l-45 145q-14 47 -60 64l-61 22l4 58h547l-4 -58l-125 -28q-63 -14 -41 -82l274 -883l295 889q25 68 -39 82l-131 22l4 58h379l-6 -58l-53 -20q-55 -20 -68 -62
l-374 -1122h-183l-274 856l-287 -856h-182z" />
    <glyph glyph-name="X" unicode="X" horiz-adv-x="1206" 
d="M430 1124l236 -370l268 360q41 55 -8 68l-107 22l6 58h379l-6 -58l-63 -14q-61 -12 -109 -76l-319 -426l344 -536q33 -51 90 -74l61 -21l-6 -57h-534l4 57l92 17q55 12 14 76l-252 393l-272 -389q-45 -70 24 -80l129 -17l-6 -57h-403l6 57l72 15q39 6 92 84l317 452
l-317 502q-41 66 -78 74l-74 20l4 58h539l-4 -58l-84 -18q-66 -17 -35 -62z" />
    <glyph glyph-name="Y" unicode="Y" horiz-adv-x="1150" 
d="M696 131q0 -32 30 -46q11 -5 36 -11l67 -17l-4 -57h-497l6 57l59 15q37 8 53 20t17 39v367l-350 610q-41 74 -72 82l-61 14l4 58h524l-4 -58l-96 -14q-57 -14 -31 -70l293 -510l282 504q16 33 13 49q-4 16 -31 23l-125 18l6 58h371l-4 -58l-52 -10q-59 -10 -96 -80
l-338 -600v-383z" />
    <glyph glyph-name="Z" unicode="Z" horiz-adv-x="1103" 
d="M1038 328q0 -186 -39 -328h-954l2 78l707 1112l-369 -4q-63 -2 -87 -20t-46 -66l-76 -146l-90 4q-10 168 29 304h925l-6 -66l-712 -1130l403 8q67 2 95 24t52 78l70 152h96z" />
    <glyph glyph-name="bracketleft" unicode="[" horiz-adv-x="610" 
d="M154 -289v1641l419 2l-8 -58l-213 -43v-1441l221 -43l-6 -58h-413z" />
    <glyph glyph-name="backslash" unicode="\" horiz-adv-x="970" 
d="M784 -387l-743 1790h149l742 -1790h-148z" />
    <glyph glyph-name="bracketright" unicode="]" horiz-adv-x="612" 
d="M459 -289h-422l6 58l217 43v1441l-223 43l6 58l416 -2v-1641z" />
    <glyph glyph-name="asciicircum" unicode="^" horiz-adv-x="1021" 
d="M59 463l381 831h138l385 -831l-134 -21l-325 707l-318 -705z" />
    <glyph glyph-name="underscore" unicode="_" horiz-adv-x="1220" 
d="M102 -285v146h1014v-146h-1014z" />
    <glyph glyph-name="grave" unicode="`" horiz-adv-x="483" 
d="M-10 1317l147 133q160 -145 219 -342l-53 -41z" />
    <glyph glyph-name="a" unicode="a" horiz-adv-x="962" 
d="M424 74q76 0 168 67v367q-289 -39 -289 -264q0 -170 121 -170zM63 204q0 197 162 274q152 74 367 91v21q0 156 -38 232t-140 75q-68 0 -131 -18l-52 -217h-75q-41 88 -56 221q162 78 336 78t276 -85t101 -272v-454q0 -55 45 -56l82 2l-4 -59l-191 -62q-111 0 -145 99
q-135 -104 -262 -104t-201 64q-74 66 -74 170z" />
    <glyph glyph-name="b" unicode="b" horiz-adv-x="1048" 
d="M543 872q-88 0 -195 -71v-764q39 -4 103 -4q139 0 209 122t71 337q0 380 -188 380zM127 1208q0 55 -37 66l-78 22l6 54q152 43 273 55h37q20 -53 20 -141v-387q137 84 254 84q166 0 271 -123t105 -358q0 -234 -142 -372q-143 -138 -350 -138t-359 46v1192z" />
    <glyph glyph-name="c" unicode="c" horiz-adv-x="940" 
d="M532 -31q-214 0 -338 135q-126 134 -126 352t136 361t365 144q89 0 181 -28t141 -65q-8 -111 -60 -215h-69l-47 217q-80 27 -133 27q-127 0 -200 -115t-73 -305t70 -304q70 -113 215 -113t256 147l41 -33q-145 -205 -359 -205z" />
    <glyph glyph-name="d" unicode="d" horiz-adv-x="1079" 
d="M537 63q76 0 161 56v725q-76 39 -163 39q-111 0 -162 -118q-51 -119 -51 -307t56 -292t159 -103zM461 -31q-172 0 -281 126q-108 126 -108 366q0 239 118 369t299 131q92 0 209 -48v295q0 57 -36 66l-121 22l6 54q117 33 315 55h39q20 -53 21 -141v-1143q0 -35 39 -45
l71 -19l-6 -55l-270 -25h-37q-12 27 -19 72q-113 -80 -239 -80z" />
    <glyph glyph-name="e" unicode="e" 
d="M496 903q-68 0 -119 -80t-64 -245l340 14q-22 311 -157 311zM899 506h-590v-35q0 -182 71 -295t212 -113q82 0 143 38t127 116l39 -29q-131 -219 -387 -219q-196 0 -318 136q-122 137 -126 355t113 359q118 141 318 141t299 -132q99 -134 99 -322z" />
    <glyph glyph-name="f" unicode="f" horiz-adv-x="604" 
d="M174 932v86q0 186 100 286t261 101q161 0 264 -45q-12 -131 -64 -240h-80l-41 219q-25 6 -57 7q-160 0 -160 -308v-106h174l-4 -72h-170v-747q0 -31 25 -33l117 -23l-7 -57h-475l6 57l66 19q45 12 45 57v727h-108l6 72h102z" />
    <glyph glyph-name="g" unicode="g" horiz-adv-x="1026" 
d="M483 381q86 0 129 70q43 69 43 185t-45 190t-130 73q-85 0 -129 -74q-44 -75 -44 -189t45 -184t131 -71zM788 -131q0 41 -32 69q-33 28 -97 27h-313q-61 0 -121 33q-80 -70 -80 -149t79 -123t240 -43q161 0 243 51q81 51 81 135zM76 639q0 139 104 230t304 91t315 -108
q86 70 194 119q0 -84 -20 -172l-115 -27q29 -61 29 -137q-1 -139 -105 -226t-299 -87q-72 0 -143 16q-45 -39 -45 -94q0 -63 80 -64h317q115 0 185 -61t69 -170q0 -145 -127 -241t-345 -95t-323 65t-105 168t138 179q-51 47 -51 127q0 113 148 202q-205 80 -205 285z" />
    <glyph glyph-name="h" unicode="h" horiz-adv-x="1112" 
d="M158 1206q0 57 -37 66l-78 22l6 56q152 43 273 55h38q20 -53 21 -141v-439q57 43 92 66t96 47t117 23q268 0 268 -322v-526q0 -27 27 -33l109 -23l-7 -57h-481l6 57l80 19q45 10 45 57v483q0 126 -33 174q-34 48 -118 48t-201 -84v-641q0 -31 25 -33l118 -23l-6 -57h-477
l6 57l66 19q45 12 45 57v1073z" />
    <glyph glyph-name="i" unicode="i" horiz-adv-x="565" 
d="M143 1263q0 69 38 105t104 35q65 0 103 -36q38 -37 38 -105t-39 -105t-103 -37t-103 37q-38 37 -38 106zM176 752q0 57 -37 65l-78 23l7 55q152 43 272 55h37q20 -53 20 -141v-696q0 -31 25 -33l113 -23l-7 -57h-469l7 57l65 19q45 12 45 57v619z" />
    <glyph glyph-name="j" unicode="j" horiz-adv-x="514" 
d="M410 1262q0 -68 -40 -105t-104 -37t-102 37t-37 106q0 69 38 105q37 36 103 35q66 0 104 -36q38 -37 38 -105zM383 55q0 -184 -102 -299t-314 -139l-18 57q75 33 113 61q38 27 69 97t31 182v738q0 57 -37 65l-78 23l6 55q152 43 273 55h36q20 -53 21 -141v-754z" />
    <glyph glyph-name="k" unicode="k" horiz-adv-x="1069" 
d="M158 1208q0 55 -37 66l-78 22l6 54q152 43 273 55h38q20 -53 21 -141v-758l383 295q53 45 -35 61l-86 12l4 58h389l-4 -58l-67 -12q-43 -9 -72 -34q-30 -25 -57 -48t-29 -24l-150 -117l281 -479q55 -92 135 -103l-6 -57h-299l-289 500l-98 -78v-309q0 -31 25 -33l124 -23
l-6 -57h-483l6 57l66 19q45 12 45 57v1075z" />
    <glyph glyph-name="l" unicode="l" horiz-adv-x="550" 
d="M160 1208q0 55 -37 66l-78 22l6 54q152 43 273 55h36q20 -53 21 -141v-1151q0 -31 25 -33l112 -23l-6 -57h-469l6 57l66 19q45 12 45 57v1075z" />
    <glyph glyph-name="m" unicode="m" horiz-adv-x="1703" 
d="M176 752q0 57 -37 65l-78 23l7 55q152 43 272 55h39q16 -41 20 -125q57 43 93 66t96 47q61 24 117 23q182 0 241 -152q70 51 103 74t101 51t130 27q266 0 266 -322v-526q0 -27 27 -33l110 -23l-6 -57h-481l6 57l78 19q45 10 45 57v492q0 119 -33 165q-34 46 -120 46
t-209 -88q10 -55 10 -109v-526q0 -31 26 -33l119 -23l-6 -57h-491l6 57l80 19q45 10 45 57v492q0 119 -33 165t-118 46t-202 -84v-639q0 -31 25 -33l119 -23l-6 -57h-478l7 57l65 19q45 12 45 57v619z" />
    <glyph glyph-name="n" unicode="n" horiz-adv-x="1130" 
d="M176 752q0 57 -37 65l-78 23l7 55q152 43 272 55h39q16 -41 20 -125q57 43 93 66t96 47q61 24 117 23q268 0 268 -322v-526q0 -27 26 -33l109 -23l-6 -57h-481l6 57l80 19q45 10 45 57v492q0 119 -33 165t-114 46t-206 -84v-639q0 -31 25 -33l119 -23l-6 -57h-478l7 57
l65 19q45 12 45 57v619z" />
    <glyph glyph-name="o" unicode="o" horiz-adv-x="1064" 
d="M526 33q224 0 224 431t-222 431q-213 0 -213 -431t211 -431zM528 -31q-217 0 -338 130q-120 129 -120 363t120 366q121 132 338 132t342 -132q125 -134 125 -364t-125 -362t-342 -133z" />
    <glyph glyph-name="p" unicode="p" horiz-adv-x="1073" 
d="M588 870q-86 0 -205 -84v-696q72 -43 170 -43q197 0 197 432q0 203 -38 297t-124 94zM162 752q0 53 -37 65l-80 23l6 55q152 43 273 55h38q10 -27 19 -94q141 104 287 104t238 -122q93 -123 93 -360q-1 -237 -109 -373t-298 -136q-104 0 -209 47v-290q0 -29 25 -33
l151 -23l-6 -57h-510l6 57l68 19q45 12 45 57v1006z" />
    <glyph glyph-name="q" unicode="q" horiz-adv-x="1044" 
d="M539 53q74 0 155 43v703q-86 80 -166 80q-102 0 -154 -113t-52 -305q0 -408 217 -408zM694 -254v283q-115 -59 -217 -60q-201 0 -302 135t-101 368t116 361q117 128 289 128q125 0 244 -97q59 66 111 84h61q20 -53 20 -141v-1081q0 -29 25 -33l113 -23l-6 -57h-515l7 57
l110 19q45 6 45 57z" />
    <glyph glyph-name="r" unicode="r" horiz-adv-x="833" 
d="M176 752q0 57 -37 65l-78 23l7 55q152 43 272 55h39q14 -39 18 -108q137 119 262 119q80 0 154 -52q-8 -129 -63 -252h-76l-35 181q-31 12 -57 12q-100 0 -183 -86v-651q0 -31 25 -33l139 -23l-6 -57h-498l7 57l65 19q45 12 45 57v619z" />
    <glyph glyph-name="s" unicode="s" horiz-adv-x="872" 
d="M592 170q0 55 -51 98t-125 79t-148 78t-125 109t-51 150q0 123 97 200t281 77t310 -87q-10 -109 -55 -202h-76l-45 207q-57 20 -135 20t-119 -37t-41 -99q0 -61 51 -113t125 -89t148 -76t125 -98t51 -135q0 -133 -110 -208t-283 -75q-229 0 -357 107q15 110 60 200h78
l39 -219q68 -31 162 -31t145 45q49 44 49 99z" />
    <glyph glyph-name="t" unicode="t" horiz-adv-x="618" 
d="M156 860h-127l6 55q117 27 185 97t102 192h57v-272h194l-6 -72h-188v-651q0 -131 98 -131q47 0 135 18l-4 -65q-96 -61 -212 -61q-240 -1 -240 249v641z" />
    <glyph glyph-name="u" unicode="u" horiz-adv-x="1114" 
d="M154 752q0 57 -37 65l-80 23l6 55q152 43 272 55h39q20 -53 21 -139v-479q0 -140 38 -194q39 -54 119 -54t195 59v609q0 57 -37 65l-82 23l6 55q158 43 277 55h37q20 -53 20 -141v-676q0 -47 45 -57l88 -17l-6 -49q-94 -23 -289 -33h-38q-16 31 -21 91q-170 -98 -295 -99
q-279 0 -278 355v428z" />
    <glyph glyph-name="v" unicode="v" horiz-adv-x="964" 
d="M399 0l-301 803q-12 31 -22 42t-33 17l-45 12l4 58h469l-4 -55l-80 -15q-63 -10 -43 -67l168 -467q18 -53 43 -176l231 653q16 47 -26 53l-92 16l4 58h295l-4 -55l-39 -15q-51 -20 -68 -69l-287 -793h-170z" />
    <glyph glyph-name="w" unicode="w" horiz-adv-x="1511" 
d="M381 0l-279 803q-12 31 -22 42t-33 17l-45 12l4 58h469l-4 -55l-82 -15q-61 -10 -43 -67l148 -467q20 -66 43 -170l186 549l-33 96q-12 31 -22 42t-33 17l-45 12l4 58h469l-4 -55l-82 -15q-61 -10 -43 -67l147 -467l41 -164l209 641q16 47 -26 53l-93 16l5 58h294l-4 -55
l-39 -15q-51 -20 -67 -69l-264 -793h-168l-209 598l-211 -598h-168z" />
    <glyph glyph-name="x" unicode="x" horiz-adv-x="1038" 
d="M412 809l182 -262l201 252q43 53 0 59l-115 16l4 58h332l-4 -55l-62 -13q-25 -6 -43 -26l-276 -342l239 -340q35 -49 107 -78l55 -21l-4 -57h-502l4 57l91 15q47 8 14 49l-189 270l-200 -246q-43 -53 2 -63l127 -25l-8 -57h-371l6 57l82 21q33 10 63 47l265 317l-234 336
q-49 68 -90 80l-59 16l4 58h489l-4 -55l-94 -21q-41 -8 -12 -47z" />
    <glyph glyph-name="y" unicode="y" 
d="M92 -387v289l62 4l41 -189q3 -33 37 -27t92 40q58 33 100 96q41 63 80 174h-107l-293 803q-12 31 -22 42t-33 17l-47 12l4 58h467l-4 -55l-86 -17q-68 -10 -43 -67l168 -465l49 -178l234 655q16 45 -27 53l-94 16l6 58h295l-6 -55l-39 -15q-49 -16 -68 -69l-307 -856
q-117 -324 -459 -324z" />
    <glyph glyph-name="z" unicode="z" horiz-adv-x="901" 
d="M49 86l545 784l-236 -8q-92 -4 -145 -96l-63 -104h-64q10 152 47 270h696l-6 -94l-532 -777l272 9q96 2 146 90l65 119h68q-18 -160 -51 -279h-748z" />
    <glyph glyph-name="braceleft" unicode="{" horiz-adv-x="585" 
d="M174 90v172q0 197 -61 219l-70 27v47l70 29q61 23 61 221v172q0 137 54 233t173 115l134 21l-3 -58l-69 -24q-61 -23 -62 -195v-250q0 -109 -47 -177t-159 -110q111 -38 159 -108t47 -176v-230q0 -193 62 -215l67 -24l-4 -58l-125 21q-119 18 -173 114t-54 234z" />
    <glyph glyph-name="bar" unicode="|" horiz-adv-x="460" 
d="M154 -387v1792h153v-1792h-153z" />
    <glyph glyph-name="braceright" unicode="}" horiz-adv-x="585" 
d="M412 90q0 -137 -54 -232t-174 -116l-125 -21l-6 58l70 24q61 25 61 207v238q0 106 48 176t159 108q-113 41 -160 110t-47 177v250q0 174 -61 195l-72 24l6 58l127 -21q119 -19 173 -115t55 -233v-172q0 -195 61 -221l70 -29v-47l-70 -27q-61 -23 -61 -219v-172z" />
    <glyph glyph-name="asciitilde" unicode="~" horiz-adv-x="1056" 
d="M682 356q-70 0 -176 70t-156 70q-115 0 -174 -123l-74 33q37 141 112 203q74 63 150 63t185 -68t168 -67q100 0 168 129l73 -29q-68 -281 -276 -281z" />
    <glyph glyph-name="uni00A0" unicode="&#xa0;" horiz-adv-x="438" 
 />
    <glyph glyph-name="exclamdown" unicode="&#xa1;" horiz-adv-x="471" 
d="M111 825q0 59 32 91q33 32 91 32t92 -32q32 -32 32 -92t-32 -92t-90 -32q-125 0 -125 125zM115 -371l75 949h93l73 -947z" />
    <glyph glyph-name="cent" unicode="&#xa2;" horiz-adv-x="956" 
d="M573 -291h-90v262q-188 9 -305 143t-117 337t114 341t308 162v260h90v-253q87 -2 175 -30t137 -63q-8 -111 -60 -215h-69l-47 217q-80 27 -134 27q-127 0 -199 -115t-73 -305q0 -190 70 -304q70 -113 215 -113t256 147l41 -33q-127 -180 -312 -201v-264z" />
    <glyph glyph-name="sterling" unicode="&#xa3;" horiz-adv-x="1067" 
d="M664 1229q-178 0 -179 -324q0 -72 13 -207h231l-14 -71h-211q14 -225 -53 -398q180 -61 274 -61q145 0 184 88l23 51l45 -12l-12 -76q-19 -119 -93 -185t-172 -65q-162 0 -307 123q-39 -74 -84 -98t-106 -25q-61 0 -102 40q-40 40 -40 107q1 66 51 110t126 44q31 0 88 -8
l2 57q0 88 -43 308h-181l15 71h153q-16 94 -16 191q-2 186 106 295q109 109 279 108q236 0 346 -127q-8 -112 -55 -198h-105l-43 233q-47 29 -120 29z" />
    <glyph glyph-name="currency" unicode="&#xa4;" horiz-adv-x="1200" 
d="M856 650q0 106 -75 182t-179 75q-104 0 -180 -76t-76 -181t76 -180t180 -75t179 75q75 74 75 180zM606 227q-126 0 -239 76l-162 -160l-109 113l158 158q-78 112 -78 234t76 237l-162 157l113 113l159 -160q113 78 238 78t238 -78l159 160l113 -113l-162 -159
q78 -115 78 -233t-76 -232l162 -162l-113 -111l-161 162q-106 -80 -232 -80z" />
    <glyph glyph-name="yen" unicode="&#xa5;" horiz-adv-x="1314" 
d="M770 305v-174q0 -34 30 -46q11 -5 36 -11l75 -17l-6 -57h-512l6 57l68 15q37 8 53 20t17 39v174h-308l13 107h864l-12 -107h-324zM229 535l13 106h211l-267 467q-43 74 -71 82l-62 14l4 58h525l-4 -58l-97 -14q-59 -16 -30 -70l272 -479h37l266 473q31 61 -18 72l-125 18
l6 58h371l-7 -58l-49 -10q-57 -10 -96 -80l-266 -473h264l-12 -106h-865z" />
    <glyph glyph-name="brokenbar" unicode="&#xa6;" horiz-adv-x="462" 
d="M154 590v815h155v-815h-155zM154 -387v821h155v-821h-155z" />
    <glyph glyph-name="section" unicode="&#xa7;" horiz-adv-x="1044" 
d="M803 226q0 104 -53 202t-128 169t-150 139q-181 163 -181 327q0 82 26 143q-78 -84 -77 -219q0 -194 104 -329q63 -80 167 -176q105 -95 153 -146q104 -112 104 -260q0 -14 -4 -47q39 93 39 197zM655 -8q0 62 -45 109q-45 48 -146 120t-147 111q-231 209 -231 508
q0 231 145 391t369 160t348 -123q-4 -135 -45 -236h-127l-43 262q-47 31 -141 31t-143 -44q-49 -43 -49 -101q-1 -94 89 -171q33 -28 101 -79q203 -152 302 -314q73 -119 73 -278q0 -207 -154 -396q-153 -190 -379 -190t-346 119q6 129 59 246h117l39 -277q61 -26 153 -24
t146 58q55 56 55 118z" />
    <glyph glyph-name="dieresis" unicode="&#xa8;" horiz-adv-x="718" 
d="M444 1229q0 61 34 93t92 32t92 -33t34 -93t-34 -93t-92 -33t-92 33t-34 94zM25 1229q0 61 33 93q34 32 92 32t93 -33q33 -33 33 -93t-34 -93t-91 -33q-58 0 -93 33q-33 33 -33 94z" />
    <glyph glyph-name="copyright" unicode="&#xa9;" horiz-adv-x="1286" 
d="M866 528q0 -84 -20 -145q-72 -49 -207 -49t-225 86t-90 232t96 234t237 89q141 0 217 -82q0 -63 -26 -127h-49l-19 121q-36 35 -122 35t-144 -73t-59 -193q0 -120 59 -194q60 -74 138 -75q78 0 116 21l43 120h55zM156 645q0 -201 143 -344t344 -143t344 143t143 344
t-143 344t-344 143t-344 -142q-143 -144 -143 -345zM84 645q0 231 165 395t394 164t394 -164t165 -395t-165 -395t-394 -164t-394 164t-165 395z" />
    <glyph glyph-name="ordfeminine" unicode="&#xaa;" horiz-adv-x="618" 
d="M225 939q0 -62 63 -62q32 0 66 32v121q-129 -29 -129 -91zM225 813q-137 0 -137 119q0 102 166 125l100 14v27q0 78 -16 116t-60 39q-44 0 -69 -16l-21 -107h-53q-25 53 -24 115q66 47 164 47q206 0 206 -174v-209q0 -25 23 -24h39l-4 -37l-115 -33q-57 0 -70 53
q-59 -55 -129 -55z" />
    <glyph glyph-name="guillemotleft" unicode="&#xab;" horiz-adv-x="827" 
d="M389 461v20l240 408l104 -74l-190 -342l194 -348l-108 -72zM80 461v20l246 416l104 -74l-194 -350l198 -354l-110 -74z" />
    <glyph glyph-name="logicalnot" unicode="&#xac;" horiz-adv-x="1062" 
d="M113 440v160h831v-483h-168v323h-663z" />
    <glyph glyph-name="registered" unicode="&#xae;" horiz-adv-x="1286" 
d="M625 942h-60v-270h72q111 0 111 135t-123 135zM874 805q0 -49 -32 -93t-94 -65l110 -182q45 -70 94 -86v-35h-69q-59 0 -85 15t-57 73l-106 197h-70v-213q0 -23 35 -27l55 -10v-35h-286v35l43 8q33 8 32 29v497q0 20 -32 29l-43 8v35h268q105 0 171 -50t66 -130zM156 645
q0 -201 143 -344t344 -143t344 143t143 344t-143 344t-344 143t-344 -142q-143 -144 -143 -345zM84 645q0 231 165 395t394 164t394 -164t165 -395t-165 -395t-394 -164t-394 164t-165 395z" />
    <glyph glyph-name="macron" unicode="&#xaf;" horiz-adv-x="559" 
d="M4 1126v152h547v-152h-547z" />
    <glyph glyph-name="degree" unicode="&#xb0;" horiz-adv-x="745" 
d="M373 786q85 0 115 58t30 166q0 221 -145 221q-84 -1 -115 -59t-31 -162q1 -224 146 -224zM371 723q-137 0 -216 76t-79 205q0 130 81 210t218 80t216 -76t79 -203q0 -128 -81 -210t-218 -82z" />
    <glyph glyph-name="plusminus" unicode="&#xb1;" horiz-adv-x="915" 
d="M801 145h-686v166h686v-166zM369 397v279h-254v164h254v258h182v-258h250v-164h-250v-279h-182z" />
    <glyph glyph-name="two.sups" unicode="&#xb2;" horiz-adv-x="600" 
d="M256 1286q127 0 197 -54t69 -151q0 -184 -303 -364h209q23 0 29 24l26 60h60q2 -113 -21 -203h-477l4 59q152 121 214 210t65 212q2 61 -18 113t-77 53q-33 0 -47 -12l-41 -146h-63q-27 68 -27 144q74 55 201 55z" />
    <glyph glyph-name="three.sups" unicode="&#xb3;" horiz-adv-x="567" 
d="M219 1243q-31 0 -47 -10l-41 -146h-63q-29 59 -29 136q77 61 197 61t187 -43t66 -119q0 -53 -42 -97t-119 -54q90 -13 139 -59t49 -111q0 -103 -128 -159t-327 -62l-6 45q272 20 269 184q0 115 -154 127l2 45q68 8 94 43t29 104q0 115 -76 115z" />
    <glyph glyph-name="acute" unicode="&#xb4;" horiz-adv-x="483" 
d="M510 1290l-313 -248l-54 39q59 195 219 344z" />
    <glyph glyph-name="mu" unicode="&#xb5;" horiz-adv-x="1163" 
d="M174 752q0 57 -37 65l-80 23l6 55q152 43 273 55h39q20 -53 20 -139v-508q2 -123 40 -171t118 -48t195 59v609q0 57 -37 65l-82 23l6 55q158 43 276 55h37q20 -53 21 -141v-676q0 -47 45 -57l88 -17l-6 -49q-94 -23 -289 -33h-39q-16 31 -20 91q-170 -98 -295 -99
q-20 0 -58 4v-313l-221 -47v1139z" />
    <glyph glyph-name="paragraph" unicode="&#xb6;" horiz-adv-x="1470" 
d="M885 -317h141v1507h-141v-1507zM651 -256v682h-121q-213 0 -345 120t-132 304t129 298t338 114h866l-4 -58l-53 -16q-9 -6 -27 -10t-20 -6t-7 -6q-15 -9 -15 -36v-1386q0 -32 29 -45q9 -4 36 -12l61 -19l-6 -55h-858l6 55l56 17q46 15 56 27q11 13 11 32z" />
    <glyph glyph-name="periodcentered" unicode="&#xb7;" horiz-adv-x="481" 
d="M109 541q0 135 133 135q61 0 97 -35t36 -99t-36 -100t-97 -34q-61 0 -98 34q-35 36 -35 99z" />
    <glyph glyph-name="cedilla" unicode="&#xb8;" horiz-adv-x="499" 
d="M205 -301q74 0 74 72q0 82 -144 82l58 155h61l-41 -108q217 -2 217 -129q0 -66 -55 -111t-151 -45t-150 72l30 51q55 -39 101 -39z" />
    <glyph glyph-name="one.sups" unicode="&#xb9;" horiz-adv-x="454" 
d="M334 1284v-604q0 -23 22 -27l60 -10l-6 -45h-336l6 45l51 8q20 6 21 29l2 457l-125 -23l4 45l274 125h27z" />
    <glyph glyph-name="ordmasculine" unicode="&#xba;" horiz-adv-x="636" 
d="M318 872q104 0 104 182t-104 183q-104 -1 -103 -183q0 -182 103 -182zM559 1056q-1 -105 -67 -172t-174 -67t-174 67q-67 67 -66 171q0 104 67 171q69 66 175 66t173 -65q66 -66 66 -171z" />
    <glyph glyph-name="guillemotright" unicode="&#xbb;" horiz-adv-x="827" 
d="M748 481v-20l-244 -416l-109 74l197 354l-195 350l107 74zM440 481v-20l-239 -408l-111 72l195 348l-191 342l107 74z" />
    <glyph glyph-name="onequarter" unicode="&#xbc;" horiz-adv-x="1251" 
d="M743 256l181 -2v283zM365 1284v-604q0 -23 22 -27l59 -10l-6 -45h-336l7 45l51 8q20 6 20 29l2 457l-125 -23l4 45l275 125h27zM174 -25l862 1325l90 -53l-862 -1327zM1104 162v-78q0 -20 24 -27l33 -12l-4 -43h-291l4 43l29 10q25 6 25 29v78h-265l5 53l292 457h148
v-418h63l-4 -92h-59z" />
    <glyph glyph-name="onehalf" unicode="&#xbd;" horiz-adv-x="1390" 
d="M1038 690q126 0 197 -54q70 -54 70 -151q0 -184 -304 -364h209q23 0 29 24l27 60h59q2 -113 -20 -203h-478l4 59q152 121 215 210q62 89 64 212q2 61 -18 113t-76 53q-33 0 -47 -12l-41 -145h-64q-27 68 -26 143q74 55 200 55zM365 1284v-604q0 -23 22 -27l59 -10l-6 -45
h-336l7 45l51 8q20 6 20 29l2 457l-125 -23l4 45l275 125h27zM174 -25l862 1325l90 -53l-862 -1327z" />
    <glyph glyph-name="threequarters" unicode="&#xbe;" horiz-adv-x="1280" 
d="M776 256l180 -2v283zM246 1243q-31 0 -47 -10l-41 -146h-64q-29 59 -28 136q78 61 197 61t187 -43t66 -119q0 -53 -42 -97t-120 -54q90 -13 140 -59t49 -111q0 -103 -128 -159t-327 -62l-6 45q272 20 268 184q0 115 -153 127l2 45q69 8 95 43t28 104q0 115 -76 115z
M205 -25l864 1325l88 -53l-862 -1327zM1137 162v-78q0 -20 24 -27l33 -12l-4 -43h-291l4 43l29 10q25 6 24 29v78h-264l4 53l293 457h148v-418h63l-4 -92h-59z" />
    <glyph glyph-name="questiondown" unicode="&#xbf;" horiz-adv-x="854" 
d="M456 -381q-186 0 -294 84t-109 238q0 78 31 141t78 102t100 84t100 86t78 110t31 152h84q8 -234 -87 -371q-40 -57 -81 -107q-102 -123 -100 -244q0 -80 39 -145t134 -65t144 37l58 252h100q33 -86 37 -231q-157 -123 -343 -123zM631 831q0 -119 -121 -118q-53 1 -86 31
t-33 87t33 89t87 30q54 0 87 -31t33 -88z" />
    <glyph glyph-name="Agrave" unicode="&#xc0;" horiz-adv-x="1196" 
d="M334 1462l51 185q121 -25 245 -86t177 -129l-31 -62zM510 1079l-205 -569h406zM836 158l-99 280h-456l-103 -284q-23 -61 45 -76l137 -21l-4 -57h-391l4 57l70 21q41 12 59 63l402 1121h196l396 -1110q23 -61 65 -74l66 -21l-6 -57h-558l7 57l114 17q79 14 56 84z" />
    <glyph glyph-name="Aacute" unicode="&#xc1;" horiz-adv-x="1196" 
d="M844 1462l-443 -92l-28 62q55 68 179 129t243 86zM510 1079l-205 -569h406zM836 158l-99 280h-456l-103 -284q-23 -61 45 -76l137 -21l-4 -57h-391l4 57l70 21q41 12 59 63l402 1121h196l396 -1110q23 -61 65 -74l66 -21l-6 -57h-558l7 57l114 17q79 14 56 84z" />
    <glyph glyph-name="Acircumflex" unicode="&#xc2;" horiz-adv-x="1196" 
d="M356 1372l-43 55q119 137 248 213h66q139 -82 247 -213l-43 -55l-239 98zM510 1079l-205 -569h406zM836 158l-99 280h-456l-103 -284q-23 -61 45 -76l137 -21l-4 -57h-391l4 57l70 21q41 12 59 63l402 1121h196l396 -1110q23 -61 65 -74l66 -21l-6 -57h-558l7 57l114 17
q79 14 56 84z" />
    <glyph glyph-name="Atilde" unicode="&#xc3;" horiz-adv-x="1196" 
d="M737 1534q72 0 84 65h64q2 -102 -38 -162q-76 -113 -273 -19q-86 42 -144 42t-74 -53h-67q2 92 49 149q48 58 112 58t151 -40t136 -40zM510 1079l-205 -569h406zM836 158l-99 280h-456l-103 -284q-23 -61 45 -76l137 -21l-4 -57h-391l4 57l70 21q41 12 59 63l402 1121
h196l396 -1110q23 -61 65 -74l66 -21l-6 -57h-558l7 57l114 17q79 14 56 84z" />
    <glyph glyph-name="Adieresis" unicode="&#xc4;" horiz-adv-x="1196" 
d="M668 1505q0 133 133 133q61 0 98 -34t37 -99q0 -67 -37 -101t-98 -34t-97 34t-36 101zM248 1505q0 133 135 133q61 0 97 -34t36 -99q0 -67 -36 -101t-98 -34t-98 34t-36 101zM510 1079l-205 -569h406zM836 158l-99 280h-456l-103 -284q-23 -61 45 -76l137 -21l-4 -57
h-391l4 57l70 21q41 12 59 63l402 1121h196l396 -1110q23 -61 65 -74l66 -21l-6 -57h-558l7 57l114 17q79 14 56 84z" />
    <glyph glyph-name="Aring" unicode="&#xc5;" horiz-adv-x="1196" 
d="M592 1325q47 0 79 31q31 31 31 84t-30 84q-31 30 -77 30t-79 -32t-33 -85q0 -52 31 -82t78 -30zM510 1079l-205 -569h406zM375 1442q0 88 61 147q60 59 156 59t158 -58q62 -60 61 -148q0 -129 -113 -187l394 -1103q23 -61 65 -74l66 -21l-6 -57h-558l7 57l114 17
q79 14 56 84l-99 280h-456l-103 -284q-23 -61 45 -76l137 -21l-4 -57h-391l4 57l70 21q41 12 59 63l398 1108q-121 49 -121 193z" />
    <glyph glyph-name="AE" unicode="&#xc6;" horiz-adv-x="1613" 
d="M725 541v575l-330 -575h330zM725 131v340h-371l-180 -317q-27 -61 45 -76l141 -21l-4 -57h-395l4 57l55 17q39 8 68 67l590 1033l-133 30l4 58h944q25 -123 12 -291h-84l-78 164q-25 55 -106 55h-279v-504h240q45 0 59 43l46 121h77l-18 -399h-70l-41 129q-14 35 -55 34
h-238v-542h310q78 0 98 47l82 172h90q6 -176 -25 -291h-915l4 57l55 15q46 15 57 27q11 13 11 32z" />
    <glyph glyph-name="Ccedilla" unicode="&#xc7;" horiz-adv-x="1222" 
d="M659 -301q74 0 74 72q0 82 -143 82l45 122q-260 25 -411 186q-150 161 -150 463t188 484q188 184 464 184t454 -123q-16 -141 -62 -233h-96l-64 256q-72 37 -188 37q-196 0 -316 -165q-120 -164 -120 -440t118 -434t312 -157q96 0 164 24l102 246h103q25 -145 -11 -264
q-154 -70 -381 -70q-33 0 -47 2l-26 -71q217 -2 217 -129q1 -66 -55 -111t-152 -45t-150 72l31 51q55 -39 100 -39z" />
    <glyph glyph-name="Egrave" unicode="&#xc8;" horiz-adv-x="1089" 
d="M324 1462l51 185q121 -25 245 -86t177 -129l-31 -62zM203 131v999q1 27 -15 39t-51 21l-61 14l4 58h891q25 -123 12 -291h-86l-76 164q-25 55 -106 55h-279v-504h240q45 0 59 43l45 121h78l-18 -399h-70l-43 129q-10 35 -53 34h-238v-542h303q76 0 97 47l90 172h90
q6 -152 -33 -291h-909l6 57l55 15q46 15 57 27q11 13 11 32z" />
    <glyph glyph-name="Eacute" unicode="&#xc9;" horiz-adv-x="1089" 
d="M799 1462l-443 -92l-28 62q55 68 179 129t243 86zM203 131v999q1 27 -15 39t-51 21l-61 14l4 58h891q25 -123 12 -291h-86l-76 164q-25 55 -106 55h-279v-504h240q45 0 59 43l45 121h78l-18 -399h-70l-43 129q-10 35 -53 34h-238v-542h303q76 0 97 47l90 172h90
q6 -152 -33 -291h-909l6 57l55 15q46 15 57 27q11 13 11 32z" />
    <glyph glyph-name="Ecircumflex" unicode="&#xca;" horiz-adv-x="1089" 
d="M315 1360l-43 55q119 137 248 213h66q139 -82 248 -213l-43 -55l-240 98zM203 131v999q1 27 -15 39t-51 21l-61 14l4 58h891q25 -123 12 -291h-86l-76 164q-25 55 -106 55h-279v-504h240q45 0 59 43l45 121h78l-18 -399h-70l-43 129q-10 35 -53 34h-238v-542h303
q76 0 97 47l90 172h90q6 -152 -33 -291h-909l6 57l55 15q46 15 57 27q11 13 11 32z" />
    <glyph glyph-name="Edieresis" unicode="&#xcb;" horiz-adv-x="1089" 
d="M623 1501q0 133 133 133q61 0 98 -34t37 -99q0 -67 -37 -101t-98 -34t-97 34t-36 101zM203 1501q0 133 135 133q61 0 97 -34t36 -99q0 -67 -36 -101t-98 -34t-98 34t-36 101zM203 131v999q1 27 -15 39t-51 21l-61 14l4 58h891q25 -123 12 -291h-86l-76 164
q-25 55 -106 55h-279v-504h240q45 0 59 43l45 121h78l-18 -399h-70l-43 129q-10 35 -53 34h-238v-542h303q76 0 97 47l90 172h90q6 -152 -33 -291h-909l6 57l55 15q46 15 57 27q11 13 11 32z" />
    <glyph glyph-name="Igrave" unicode="&#xcc;" horiz-adv-x="641" 
d="M92 1462l51 185q121 -25 245 -86t177 -129l-30 -62zM203 1130q1 27 -15 39t-51 21l-61 14l4 58h485l-6 -58l-53 -16q-4 -2 -12 -4t-12 -4t-12 -4q-7 -2 -10 -4t-8 -6q-16 -10 -16 -36v-999q0 -27 18 -37t22 -11q5 -1 28 -9l59 -17l-4 -57h-485l6 57l55 15q46 15 57 27
q11 13 11 32v999z" />
    <glyph glyph-name="Iacute" unicode="&#xcd;" horiz-adv-x="641" 
d="M573 1462l-442 -92l-29 62q56 68 180 129t242 86zM203 1130q1 27 -15 39t-51 21l-61 14l4 58h485l-6 -58l-53 -16q-4 -2 -12 -4t-12 -4t-12 -4q-7 -2 -10 -4t-8 -6q-16 -10 -16 -36v-999q0 -27 18 -37t22 -11q5 -1 28 -9l59 -17l-4 -57h-485l6 57l55 15q46 15 57 27
q11 13 11 32v999z" />
    <glyph glyph-name="Icircumflex" unicode="&#xce;" horiz-adv-x="643" 
d="M86 1360l-43 55q119 137 248 213h65q139 -82 248 -213l-43 -55l-239 98zM205 1130q1 27 -15 39t-51 21l-61 14l4 58h485l-6 -58l-53 -16q-4 -2 -12 -4t-12 -4t-12 -4q-7 -2 -10 -4t-8 -6q-16 -10 -16 -36v-999q0 -27 18 -37t22 -11q5 -1 28 -9l59 -17l-4 -57h-485l6 57
l55 15q46 15 57 27q11 13 11 32v999z" />
    <glyph glyph-name="Idieresis" unicode="&#xcf;" horiz-adv-x="638" 
d="M395 1505q0 133 133 133q61 0 99 -33q37 -34 37 -100q0 -67 -37 -101t-99 -34t-97 34q-36 34 -36 101zM-25 1505q0 133 136 133q61 0 97 -34t36 -99q0 -67 -36 -101t-98 -34t-98 34t-37 101zM203 1130q1 27 -15 39t-51 21l-61 14l4 58h485l-6 -58l-53 -16q-4 -2 -12 -4
t-12 -4t-12 -4q-7 -2 -10 -4t-8 -6q-16 -10 -16 -36v-999q0 -27 18 -37t22 -11q5 -1 28 -9l59 -17l-4 -57h-485l6 57l55 15q46 15 57 27q11 13 11 32v999z" />
    <glyph glyph-name="Eth" unicode="&#xd0;" horiz-adv-x="1349" 
d="M709 602h-273v-530h150q188 0 308 144t120 410t-121 415q-121 148 -307 149h-150v-516h273v-72zM82 602v72h121v456q1 27 -15 39t-51 21l-61 14l6 58h534q294 0 476 -169t182 -457t-181 -462t-470 -174h-547l6 57l53 15q37 10 52 21t16 38v471h-121z" />
    <glyph glyph-name="Ntilde" unicode="&#xd1;" horiz-adv-x="1404" 
d="M883 1534q72 0 84 65h63q2 -102 -38 -162q-40 -61 -112 -61t-160 42q-86 42 -144 42t-74 -53h-68q2 92 49 149q47 58 111 58t154 -40q88 -40 135 -40zM272 133q0 -33 41 -47q6 -2 29 -8l82 -21l-6 -57h-346l6 57l55 19q42 10 54 24q13 14 14 33v1028q-55 37 -119 43l4 58
h332l725 -1045v911q0 31 -33 44q-12 5 -39 12l-78 20l4 58h346l-4 -58l-57 -18q-35 -8 -51 -20t-17 -38v-1128h-219l-723 1059v-926z" />
    <glyph glyph-name="Ograve" unicode="&#xd2;" horiz-adv-x="1394" 
d="M700 33q168 0 265 166q96 166 96 430t-95 432q-96 168 -264 168t-268 -165t-100 -426t99 -433t267 -172zM700 -31q-282 0 -454 173q-172 172 -172 484t174 489t451 177t449 -173t173 -487q0 -314 -170 -488t-451 -175zM457 1462l51 185q121 -25 245 -86t177 -129l-31 -62
z" />
    <glyph glyph-name="Oacute" unicode="&#xd3;" horiz-adv-x="1394" 
d="M700 33q168 0 265 166q96 166 96 430t-95 432q-96 168 -264 168t-268 -165t-100 -426t99 -433t267 -172zM700 -31q-282 0 -454 173q-172 172 -172 484t174 489t451 177t449 -173t173 -487q0 -314 -170 -488t-451 -175zM954 1462l-442 -92l-29 62q55 68 179 129t243 86z
" />
    <glyph glyph-name="Ocircumflex" unicode="&#xd4;" horiz-adv-x="1394" 
d="M700 33q168 0 265 166q96 166 96 430t-95 432q-96 168 -264 168t-268 -165t-100 -426t99 -433t267 -172zM700 -31q-282 0 -454 173q-172 172 -172 484t174 489t451 177t449 -173t173 -487q0 -314 -170 -488t-451 -175zM459 1360l-43 55q119 137 248 213h65
q139 -82 248 -213l-43 -55l-240 98z" />
    <glyph glyph-name="Otilde" unicode="&#xd5;" horiz-adv-x="1394" 
d="M858 1534q72 0 84 65h64q2 -102 -38 -162q-76 -113 -273 -19q-87 42 -145 42t-73 -53h-67q2 92 49 149q47 58 111 58t152 -40t136 -40zM700 33q168 0 265 166q96 166 96 430t-95 432q-96 168 -264 168t-268 -165t-100 -426t99 -433t267 -172zM700 -31q-282 0 -454 173
q-172 172 -172 484t174 489t451 177t449 -173t173 -487q0 -314 -170 -488t-451 -175z" />
    <glyph glyph-name="Odieresis" unicode="&#xd6;" horiz-adv-x="1394" 
d="M772 1505q0 133 133 133q61 0 99 -33q36 -34 36 -100q0 -67 -36 -101t-98 -34t-98 34t-36 101zM352 1505q0 133 135 133q61 0 98 -33q36 -34 36 -100q0 -67 -36 -101q-37 -34 -99 -34t-98 34t-36 101zM700 33q168 0 265 166q96 166 96 430t-95 432q-96 168 -264 168
t-268 -165t-100 -426t99 -433t267 -172zM700 -31q-282 0 -454 173q-172 172 -172 484t174 489t451 177t449 -173t173 -487q0 -314 -170 -488t-451 -175z" />
    <glyph glyph-name="multiply" unicode="&#xd7;" horiz-adv-x="864" 
d="M195 143l-97 97l238 237l-242 240l101 100l239 -242l240 240l96 -98l-238 -238l238 -237l-100 -101l-238 238z" />
    <glyph glyph-name="Oslash" unicode="&#xd8;" horiz-adv-x="1392" 
d="M708 33q160 0 257 166q96 165 96 397t-55 379l-560 -795q102 -147 262 -147zM334 660q0 -240 69 -402l564 803q-97 168 -265 168t-268 -165q-100 -164 -100 -404zM700 -31q-190 0 -340 86l-145 -207h-98l176 252q-219 176 -219 507t174 508t452 177q211 0 359 -98
l147 209h101l-183 -260q197 -177 197 -501t-170 -498t-451 -175z" />
    <glyph glyph-name="Ugrave" unicode="&#xd9;" horiz-adv-x="1310" 
d="M1137 508q0 -270 -111 -404t-346 -135q-280 0 -392 124t-112 382v655q0 27 -16 39t-51 21l-62 14l6 58h498l-4 -58l-70 -16q-45 -13 -56 -26t-11 -32v-718q0 -367 317 -367q338 0 338 451v634q0 27 -15 39t-51 21l-71 14l6 58h332l-6 -58l-54 -16q-4 -2 -12 -4t-12 -4
t-12 -4t-10 -4q-3 -2 -8 -6q-15 -9 -15 -36v-622zM463 1462l51 185q121 -25 245 -86t177 -129l-31 -62z" />
    <glyph glyph-name="Uacute" unicode="&#xda;" horiz-adv-x="1310" 
d="M1010 1462l-443 -92l-28 62q55 68 179 129t243 86zM1137 508q0 -270 -111 -404t-346 -135q-280 0 -392 124t-112 382v655q0 27 -16 39t-51 21l-62 14l6 58h498l-4 -58l-70 -16q-45 -13 -56 -26t-11 -32v-718q0 -367 317 -367q338 0 338 451v634q0 27 -15 39t-51 21
l-71 14l6 58h332l-6 -58l-54 -16q-4 -2 -12 -4t-12 -4t-12 -4t-10 -4q-3 -2 -8 -6q-15 -9 -15 -36v-622z" />
    <glyph glyph-name="Ucircumflex" unicode="&#xdb;" horiz-adv-x="1310" 
d="M1137 508q0 -270 -111 -404t-346 -135q-280 0 -392 124t-112 382v655q0 27 -16 39t-51 21l-62 14l6 58h498l-4 -58l-70 -16q-45 -13 -56 -26t-11 -32v-718q0 -367 317 -367q338 0 338 451v634q0 27 -15 39t-51 21l-71 14l6 58h332l-6 -58l-54 -16q-4 -2 -12 -4t-12 -4
t-12 -4t-10 -4q-3 -2 -8 -6q-15 -9 -15 -36v-622zM487 1360l-43 55q119 137 248 213h66q139 -82 248 -213l-43 -55l-240 98z" />
    <glyph glyph-name="Udieresis" unicode="&#xdc;" horiz-adv-x="1310" 
d="M797 1505q0 133 133 133q61 0 98 -34t37 -99q0 -67 -37 -101t-98 -34t-97 34t-36 101zM377 1505q0 133 135 133q61 0 97 -34t36 -99q0 -67 -36 -101t-98 -34t-98 34t-36 101zM1137 508q0 -270 -111 -404t-346 -135q-280 0 -392 124t-112 382v655q0 27 -16 39t-51 21
l-62 14l6 58h498l-4 -58l-70 -16q-45 -13 -56 -26t-11 -32v-718q0 -367 317 -367q338 0 338 451v634q0 27 -15 39t-51 21l-71 14l6 58h332l-6 -58l-54 -16q-4 -2 -12 -4t-12 -4t-12 -4t-10 -4q-3 -2 -8 -6q-15 -9 -15 -36v-622z" />
    <glyph glyph-name="Yacute" unicode="&#xdd;" horiz-adv-x="1150" 
d="M922 1462l-443 -92l-28 62q55 68 179 129t242 86zM696 131q0 -32 30 -46q11 -5 36 -11l67 -17l-4 -57h-497l6 57l59 15q37 8 53 20t17 39v367l-350 610q-41 74 -72 82l-61 14l4 58h524l-4 -58l-96 -14q-57 -14 -31 -70l293 -510l282 504q16 33 13 49q-4 16 -31 23
l-125 18l6 58h371l-4 -58l-52 -10q-59 -10 -96 -80l-338 -600v-383z" />
    <glyph glyph-name="Thorn" unicode="&#xde;" horiz-adv-x="1091" 
d="M539 944h-103v-612h127q219 0 219 306t-243 306zM203 1130q1 27 -15 39t-51 21l-61 14l4 58h485l-6 -58l-53 -16q-4 -2 -12 -4t-12 -4t-12 -4q-7 -2 -10 -4t-8 -6q-16 -10 -16 -36v-114h127q223 0 355 -97t133 -277q0 -180 -128 -280q-128 -102 -343 -102h-144v-129
q0 -33 32 -46q11 -5 36 -11l86 -17l-6 -57h-510l6 57l55 15q46 15 57 27q11 13 11 32v999z" />
    <glyph glyph-name="germandbls" unicode="&#xdf;" horiz-adv-x="1163" 
d="M821 -31q-141 0 -239 78q2 98 45 182h92l24 -163q27 -18 73 -18t72 33q26 34 25 81q0 84 -126 189q-52 44 -104 92t-89 116t-37 137q1 70 21 118t49 79t59 59q69 66 69 160q1 94 -38 162t-127 68t-141 -80t-54 -234v-915q0 -31 25 -33l104 -23l-6 -57h-461l6 57l66 19
q45 12 45 57v717h-108l6 72h102v75q0 190 111 299t284 109t283 -66t111 -186q0 -66 -31 -117t-69 -79q-99 -73 -99 -154q0 -83 38 -143t91 -105t107 -89q132 -107 131 -234t-85 -195t-225 -68z" />
    <glyph glyph-name="agrave" unicode="&#xe0;" horiz-adv-x="962" 
d="M219 1317l148 133q160 -145 219 -342l-54 -41zM424 74q76 0 168 67v367q-289 -39 -289 -264q0 -170 121 -170zM63 204q0 197 162 274q152 74 367 91v21q0 156 -38 232t-140 75q-68 0 -131 -18l-52 -217h-75q-41 88 -56 221q162 78 336 78t276 -85t101 -272v-454
q0 -55 45 -56l82 2l-4 -59l-191 -62q-111 0 -145 99q-135 -104 -262 -104t-201 64q-74 66 -74 170z" />
    <glyph glyph-name="aacute" unicode="&#xe1;" horiz-adv-x="962" 
d="M684 1290l-313 -248l-54 39q59 195 220 344zM424 74q76 0 168 67v367q-289 -39 -289 -264q0 -170 121 -170zM63 204q0 197 162 274q152 74 367 91v21q0 156 -38 232t-140 75q-68 0 -131 -18l-52 -217h-75q-41 88 -56 221q162 78 336 78t276 -85t101 -272v-454
q0 -55 45 -56l82 2l-4 -59l-191 -62q-111 0 -145 99q-135 -104 -262 -104t-201 64q-74 66 -74 170z" />
    <glyph glyph-name="acircumflex" unicode="&#xe2;" horiz-adv-x="962" 
d="M168 1110q123 207 258 330h68q143 -137 258 -330l-50 -41l-243 188l-244 -188zM424 74q76 0 168 67v367q-289 -39 -289 -264q0 -170 121 -170zM63 204q0 197 162 274q152 74 367 91v21q0 156 -38 232t-140 75q-68 0 -131 -18l-52 -217h-75q-41 88 -56 221q162 78 336 78
t276 -85t101 -272v-454q0 -55 45 -56l82 2l-4 -59l-191 -62q-111 0 -145 99q-135 -104 -262 -104t-201 64q-74 66 -74 170z" />
    <glyph glyph-name="atilde" unicode="&#xe3;" horiz-adv-x="962" 
d="M584 1255q76 0 90 68h57q6 -96 -36 -165q-43 -68 -113 -68t-150 43t-127 43q-71 0 -96 -74h-57q-2 96 48 164t113 68t145 -40q82 -39 126 -39zM424 74q76 0 168 67v367q-289 -39 -289 -264q0 -170 121 -170zM63 204q0 197 162 274q152 74 367 91v21q0 156 -38 232
t-140 75q-68 0 -131 -18l-52 -217h-75q-41 88 -56 221q162 78 336 78t276 -85t101 -272v-454q0 -55 45 -56l82 2l-4 -59l-191 -62q-111 0 -145 99q-135 -104 -262 -104t-201 64q-74 66 -74 170z" />
    <glyph glyph-name="adieresis" unicode="&#xe4;" horiz-adv-x="962" 
d="M518 1229q0 61 34 93t92 32t92 -33t34 -93t-34 -93t-92 -33t-92 33t-34 94zM98 1229q0 61 34 93t92 32t92 -33t34 -93t-34 -93t-92 -33t-92 33t-34 94zM424 74q76 0 168 67v367q-289 -39 -289 -264q0 -170 121 -170zM63 204q0 197 162 274q152 74 367 91v21
q0 156 -38 232t-140 75q-68 0 -131 -18l-52 -217h-75q-41 88 -56 221q162 78 336 78t276 -85t101 -272v-454q0 -55 45 -56l82 2l-4 -59l-191 -62q-111 0 -145 99q-135 -104 -262 -104t-201 64q-74 66 -74 170z" />
    <glyph glyph-name="aring" unicode="&#xe5;" horiz-adv-x="962" 
d="M338 1256q0 -52 32 -82t79 -29q47 0 79 31q32 32 31 84q0 52 -31 83q-32 31 -78 31t-79 -33t-33 -85zM424 74q76 0 168 67v367q-289 -39 -289 -264q0 -170 121 -170zM446 1053q-99 1 -157 59t-58 148q1 90 61 149t156 59t158 -59t62 -148t-62 -149t-160 -59zM63 204
q0 197 162 274q152 74 367 91v21q0 156 -38 232t-140 75q-68 0 -131 -18l-52 -217h-75q-41 88 -56 221q162 78 336 78t276 -85t101 -272v-454q0 -55 45 -56l82 2l-4 -59l-191 -62q-111 0 -145 99q-135 -104 -262 -104t-201 64q-74 66 -74 170z" />
    <glyph glyph-name="ae" unicode="&#xe6;" horiz-adv-x="1488" 
d="M1020 903q-70 0 -120 -79t-62 -246l338 14q-23 311 -156 311zM430 74q84 0 227 116q-66 121 -65 267v51q-156 -33 -222 -92t-67 -180q0 -80 36 -121t91 -41zM834 506v-35q0 -182 70 -295t212 -113q80 0 141 38t127 116l39 -29q-131 -219 -387 -219q-219 0 -346 166
q-176 -166 -364 -166q-117 1 -190 63t-73 179q0 261 364 334q71 14 165 26v19q0 156 -38 232t-140 75q-63 0 -131 -23l-52 -212h-75q-41 90 -56 212q168 86 343 86t280 -122q117 123 309 123q192 -1 291 -135q100 -134 100 -320h-589z" />
    <glyph glyph-name="ccedilla" unicode="&#xe7;" horiz-adv-x="940" 
d="M471 -301q74 0 74 72q0 82 -144 82l45 122q-170 25 -274 155t-104 337t136 350t365 144q89 0 181 -28t141 -65q-8 -111 -60 -215h-69l-47 217q-80 27 -133 27q-127 0 -200 -115t-73 -305t70 -304q69 -114 215 -114t256 148l41 -33q-145 -205 -371 -205h-14l-27 -69
q217 -2 217 -129q0 -66 -55 -111t-151 -45t-150 72l31 51q55 -39 100 -39z" />
    <glyph glyph-name="egrave" unicode="&#xe8;" 
d="M244 1317l147 133q160 -145 219 -342l-53 -41zM496 903q-68 0 -119 -80t-64 -245l340 14q-22 311 -157 311zM309 506v-35q0 -182 71 -295t212 -113q82 0 143 38t127 116l39 -29q-131 -219 -387 -219q-196 0 -318 136q-122 137 -126 355t113 359q118 141 318 141t299 -132
q99 -134 99 -322h-590z" />
    <glyph glyph-name="eacute" unicode="&#xe9;" 
d="M672 1290l-314 -248l-53 39q59 195 219 344zM496 903q-68 0 -119 -80t-64 -245l340 14q-22 311 -157 311zM899 506h-590v-35q0 -182 71 -295t212 -113q82 0 143 38t127 116l39 -29q-131 -219 -387 -219q-196 0 -318 136q-122 137 -126 355t113 359q118 141 318 141
t299 -132q99 -134 99 -322z" />
    <glyph glyph-name="ecircumflex" unicode="&#xea;" 
d="M496 903q-68 0 -119 -80t-64 -245l340 14q-22 311 -157 311zM203 1110q123 207 258 330h67q143 -137 258 -330l-49 -41l-243 188l-244 -188zM309 506v-35q0 -182 71 -295t212 -113q82 0 143 38t127 116l39 -29q-131 -219 -387 -219q-196 0 -318 136q-122 137 -126 355
t113 359q118 141 318 141t299 -132q99 -134 99 -322h-590z" />
    <glyph glyph-name="edieresis" unicode="&#xeb;" 
d="M147 1229q0 61 34 93t92 32q59 0 93 -33t34 -93t-34 -93t-92 -33t-93 33q-34 33 -34 94zM567 1229q0 61 34 93t92 32t92 -33t34 -93t-34 -93t-92 -33t-92 33t-34 94zM496 903q-68 0 -119 -80t-64 -245l340 14q-22 311 -157 311zM309 506v-35q0 -182 71 -295t212 -113
q82 0 143 38t127 116l39 -29q-131 -219 -387 -219q-196 0 -318 136q-122 137 -126 355t113 359q118 141 318 141t299 -132q99 -134 99 -322h-590z" />
    <glyph glyph-name="igrave" unicode="&#xec;" horiz-adv-x="567" 
d="M41 1317l147 133q160 -145 220 -342l-54 -41zM176 752q0 57 -37 65l-78 23l7 55q152 43 272 55h37q20 -53 20 -141v-696q0 -31 25 -33l113 -23l-7 -57h-469l7 57l65 19q45 12 45 57v619z" />
    <glyph glyph-name="iacute" unicode="&#xed;" horiz-adv-x="565" 
d="M176 752q0 57 -37 65l-78 23l7 55q152 43 272 55h37q20 -53 20 -141v-696q0 -31 25 -33l113 -23l-7 -57h-469l7 57l65 19q45 12 45 57v619zM479 1290l-313 -248l-53 39q59 195 219 344z" />
    <glyph glyph-name="icircumflex" unicode="&#xee;" horiz-adv-x="569" 
d="M178 752q0 57 -37 65l-78 23l7 55q152 43 272 55h37q20 -53 20 -141v-696q0 -31 25 -33l113 -23l-7 -57h-469l7 57l65 19q45 12 45 57v619zM-25 1110q123 207 258 330h68q143 -137 258 -330l-49 -41l-244 188l-243 -188z" />
    <glyph glyph-name="idieresis" unicode="&#xef;" horiz-adv-x="565" 
d="M176 752q0 57 -37 65l-78 23l7 55q152 43 272 55h37q20 -53 20 -141v-696q0 -31 25 -33l113 -23l-7 -57h-469l7 57l65 19q45 12 45 57v619zM362 1229q0 61 34 93t92 32t92 -33t34 -93t-34 -93t-92 -33t-92 33t-34 94zM-57 1229q0 61 33 93q34 32 92 32t93 -33
q34 -33 34 -93t-34 -93t-92 -33t-93 33q-33 33 -33 94z" />
    <glyph glyph-name="eth" unicode="&#xf0;" horiz-adv-x="1107" 
d="M764 483q0 195 -19 348q-80 59 -188 60q-244 0 -244 -430q1 -193 55 -311t171 -117q225 -1 225 450zM1010 586q0 -276 -125 -446t-340 -171q-215 0 -345 137q-130 138 -130 360t127 358t333 137q111 0 203 -48q-31 195 -100 306l-137 -136l-54 56l142 139q-61 55 -139 55
t-119 -12t-80 -27l-37 -16l-21 61q150 66 264 66t212 -49l145 145l53 -57l-131 -129q139 -106 209 -308t70 -421z" />
    <glyph glyph-name="ntilde" unicode="&#xf1;" horiz-adv-x="1130" 
d="M711 1255q76 0 90 68h57q6 -96 -36 -165q-42 -68 -112 -68t-152 43q-81 43 -126 43q-71 0 -96 -74h-57q-2 96 48 164t113 68q64 0 146 -40q82 -39 125 -39zM176 752q0 57 -37 65l-78 23l7 55q152 43 272 55h39q16 -41 20 -125q57 43 93 66t96 47q61 24 117 23
q268 0 268 -322v-526q0 -27 26 -33l109 -23l-6 -57h-481l6 57l80 19q45 10 45 57v492q0 119 -33 165t-114 46t-206 -84v-639q0 -31 25 -33l119 -23l-6 -57h-478l7 57l65 19q45 12 45 57v619z" />
    <glyph glyph-name="ograve" unicode="&#xf2;" horiz-adv-x="1064" 
d="M274 1317l148 133q160 -145 219 -342l-53 -41zM526 33q224 0 224 431t-222 431q-213 0 -213 -431t211 -431zM528 -31q-217 0 -338 130q-120 129 -120 363t120 366q121 132 338 132t342 -132q125 -134 125 -364t-125 -362t-342 -133z" />
    <glyph glyph-name="oacute" unicode="&#xf3;" horiz-adv-x="1064" 
d="M526 33q224 0 224 431t-222 431q-213 0 -213 -431t211 -431zM528 -31q-217 0 -338 130q-120 129 -120 363t120 366q121 132 338 132t342 -132q125 -134 125 -364t-125 -362t-342 -133zM758 1290l-314 -248l-53 39q59 195 219 344z" />
    <glyph glyph-name="ocircumflex" unicode="&#xf4;" horiz-adv-x="1064" 
d="M526 33q224 0 224 431t-222 431q-213 0 -213 -431t211 -431zM528 -31q-217 0 -338 130q-120 129 -120 363t120 366q121 132 338 132t342 -132q125 -134 125 -364t-125 -362t-342 -133zM240 1110q123 207 258 330h67q143 -137 258 -330l-49 -41l-244 188l-243 -188z" />
    <glyph glyph-name="otilde" unicode="&#xf5;" horiz-adv-x="1064" 
d="M672 1255q76 0 90 68h57q6 -96 -36 -165t-124 -68q-57 0 -139 43t-127 43q-71 0 -96 -74h-57q-2 96 48 164t114 68t145 -40q82 -39 125 -39zM526 33q224 0 224 431t-222 431q-213 0 -213 -431t211 -431zM528 -31q-217 0 -338 130q-120 129 -120 363t120 366
q121 132 338 132t342 -132q125 -134 125 -364t-125 -362t-342 -133z" />
    <glyph glyph-name="odieresis" unicode="&#xf6;" horiz-adv-x="1064" 
d="M526 33q224 0 224 431t-222 431q-213 0 -213 -431t211 -431zM528 -31q-217 0 -338 130q-120 129 -120 363t120 366q121 132 338 132t342 -132q125 -134 125 -364t-125 -362t-342 -133zM610 1229q0 61 34 93t92 32t92 -33t34 -93t-34 -93t-92 -33t-92 33t-34 94zM190 1229
q0 61 34 93t92 32t92 -33t34 -93t-34 -93t-92 -33t-92 33t-34 94z" />
    <glyph glyph-name="divide" unicode="&#xf7;" horiz-adv-x="843" 
d="M84 395v133h676v-133h-676zM287 816q0 56 39 94t95 38t95 -39t39 -94t-40 -94t-95 -39t-94 39t-39 95zM287 104q0 54 39 94t94 40t95 -39t40 -95t-40 -95q-40 -40 -95 -40t-94 40t-39 95z" />
    <glyph glyph-name="oslash" unicode="&#xf8;" horiz-adv-x="1067" 
d="M315 463q0 -133 21 -223l366 524q-57 131 -174 131q-213 0 -213 -432zM526 33q223 0 224 428q0 133 -25 233l-369 -526q53 -135 170 -135zM528 -31q-154 0 -262 68l-131 -189h-72l156 224q-149 132 -149 378t120 378q121 132 338 133q152 0 263 -70l133 188h71l-155 -223
q156 -134 156 -378t-126 -376q-125 -132 -342 -133z" />
    <glyph glyph-name="ugrave" unicode="&#xf9;" horiz-adv-x="1114" 
d="M315 1317l148 133q160 -145 219 -342l-53 -41zM154 752q0 57 -37 65l-80 23l6 55q152 43 272 55h39q20 -53 21 -139v-479q0 -140 38 -194q39 -54 119 -54t195 59v609q0 57 -37 65l-82 23l6 55q158 43 277 55h37q20 -53 20 -141v-676q0 -47 45 -57l88 -17l-6 -49
q-94 -23 -289 -33h-38q-16 31 -21 91q-170 -98 -295 -99q-279 0 -278 355v428z" />
    <glyph glyph-name="uacute" unicode="&#xfa;" horiz-adv-x="1114" 
d="M801 1290l-314 -248l-53 39q59 195 219 344zM154 752q0 57 -37 65l-80 23l6 55q152 43 272 55h39q20 -53 21 -139v-479q0 -140 38 -194q39 -54 119 -54t195 59v609q0 57 -37 65l-82 23l6 55q158 43 277 55h37q20 -53 20 -141v-676q0 -47 45 -57l88 -17l-6 -49
q-94 -23 -289 -33h-38q-16 31 -21 91q-170 -98 -295 -99q-279 0 -278 355v428z" />
    <glyph glyph-name="ucircumflex" unicode="&#xfb;" horiz-adv-x="1114" 
d="M236 1110q123 207 258 330h67q143 -137 258 -330l-49 -41l-244 188l-243 -188zM154 752q0 57 -37 65l-80 23l6 55q152 43 272 55h39q20 -53 21 -139v-479q0 -140 38 -194q39 -54 119 -54t195 59v609q0 57 -37 65l-82 23l6 55q158 43 277 55h37q20 -53 20 -141v-676
q0 -47 45 -57l88 -17l-6 -49q-94 -23 -289 -33h-38q-16 31 -21 91q-170 -98 -295 -99q-279 0 -278 355v428z" />
    <glyph glyph-name="udieresis" unicode="&#xfc;" horiz-adv-x="1114" 
d="M180 1231q0 61 34 93t92 32t92 -33t34 -93t-34 -93t-92 -33t-92 33t-34 94zM600 1231q0 61 34 93t92 32t92 -33t34 -93t-34 -93t-92 -33t-92 33t-34 94zM154 752q0 57 -37 65l-80 23l6 55q152 43 272 55h39q20 -53 21 -139v-479q0 -140 38 -194q39 -54 119 -54t195 59
v609q0 57 -37 65l-82 23l6 55q158 43 277 55h37q20 -53 20 -141v-676q0 -47 45 -57l88 -17l-6 -49q-94 -23 -289 -33h-38q-16 31 -21 91q-170 -98 -295 -99q-279 0 -278 355v428z" />
    <glyph glyph-name="yacute" unicode="&#xfd;" 
d="M786 1290l-313 -248l-53 39q59 195 219 344zM92 -387v289l62 4l41 -189q3 -33 37 -27t92 40q58 33 100 96q41 63 80 174h-107l-293 803q-12 31 -22 42t-33 17l-47 12l4 58h467l-4 -55l-86 -17q-68 -10 -43 -67l168 -465l49 -178l234 655q16 45 -27 53l-94 16l6 58h295
l-6 -55l-39 -15q-49 -16 -68 -69l-307 -856q-117 -324 -459 -324z" />
    <glyph glyph-name="thorn" unicode="&#xfe;" horiz-adv-x="1034" 
d="M548 870q-87 0 -204 -86v-694q72 -43 170 -43q197 0 197 432q0 203 -38 297t-125 94zM121 1208q0 55 -37 66l-78 22l6 54q152 43 273 55h39q20 -53 20 -141v-408q141 104 286 104q146 0 238 -122q92 -123 92 -360t-108 -373q-109 -136 -299 -136q-104 0 -209 47v-290
q0 -29 25 -33l141 -23l-6 -57h-500l6 57l66 19q45 12 45 57v1462z" />
    <glyph glyph-name="ydieresis" unicode="&#xff;" 
d="M211 1229q0 61 34 93t92 32t92 -33t34 -93t-34 -93t-92 -33t-92 33t-34 94zM631 1229q0 61 34 93t92 32t92 -33t34 -93t-34 -93t-92 -33t-92 33t-34 94zM92 -387v289l62 4l41 -189q3 -33 37 -27t92 40q58 33 100 96q41 63 80 174h-107l-293 803q-12 31 -22 42t-33 17
l-47 12l4 58h467l-4 -55l-86 -17q-68 -10 -43 -67l168 -465l49 -178l234 655q16 45 -27 53l-94 16l6 58h295l-6 -55l-39 -15q-49 -16 -68 -69l-307 -856q-117 -324 -459 -324z" />
    <glyph glyph-name="Amacron" unicode="&#x100;" horiz-adv-x="1196" 
d="M340 1430v151h496v-151h-496zM510 1079l-205 -569h406zM836 158l-99 280h-456l-103 -284q-23 -61 45 -76l137 -21l-4 -57h-391l4 57l70 21q41 12 59 63l402 1121h196l396 -1110q23 -61 65 -74l66 -21l-6 -57h-558l7 57l114 17q79 14 56 84z" />
    <glyph glyph-name="amacron" unicode="&#x101;" horiz-adv-x="962" 
d="M188 1126v152h547v-152h-547zM424 74q76 0 168 67v367q-289 -39 -289 -264q0 -170 121 -170zM63 204q0 197 162 274q152 74 367 91v21q0 156 -38 232t-140 75q-68 0 -131 -18l-52 -217h-75q-41 88 -56 221q162 78 336 78t276 -85t101 -272v-454q0 -55 45 -56l82 2l-4 -59
l-191 -62q-111 0 -145 99q-135 -104 -262 -104t-201 64q-74 66 -74 170z" />
    <glyph glyph-name="Abreve" unicode="&#x102;" horiz-adv-x="1196" 
d="M601 1528q85 0 144 41t76 94h74q-10 -129 -88 -208t-206 -79t-207 79t-83 208h70q11 -51 73 -93t147 -42zM510 1079l-205 -569h406zM836 158l-99 280h-456l-103 -284q-23 -61 45 -76l137 -21l-4 -57h-391l4 57l70 21q41 12 59 63l402 1121h196l396 -1110q23 -61 65 -74
l66 -21l-6 -57h-558l7 57l114 17q79 14 56 84z" />
    <glyph glyph-name="abreve" unicode="&#x103;" horiz-adv-x="962" 
d="M454 1239q80 0 135 46q56 46 73 108h67q4 -137 -75 -223q-78 -86 -198 -87q-120 1 -201 87t-77 223h70q14 -61 70 -107t136 -47zM424 74q76 0 168 67v367q-289 -39 -289 -264q0 -170 121 -170zM63 204q0 197 162 274q152 74 367 91v21q0 156 -38 232t-140 75
q-68 0 -131 -18l-52 -217h-75q-41 88 -56 221q162 78 336 78t276 -85t101 -272v-454q0 -55 45 -56l82 2l-4 -59l-191 -62q-111 0 -145 99q-135 -104 -262 -104t-201 64q-74 66 -74 170z" />
    <glyph glyph-name="Aogonek" unicode="&#x104;" horiz-adv-x="1196" 
d="M510 1079l-205 -569h406zM1016 -211q0 -49 28 -80t79 -31q50 0 85 25l27 -39q-68 -68 -170 -68t-164 51q-61 50 -61 132q0 145 223 221h-404l7 57l114 17q79 14 56 84l-99 280h-456l-103 -284q-23 -61 45 -76l137 -21l-4 -57h-391l4 57l70 21q41 12 59 63l402 1121h196
l396 -1110q23 -61 65 -74l66 -21l-6 -57q-201 -74 -201 -211z" />
    <glyph glyph-name="aogonek" unicode="&#x105;" horiz-adv-x="968" 
d="M426 74q76 0 168 67v367q-289 -39 -289 -264q0 -170 121 -170zM786 -367q-102 1 -163 51t-62 132q0 109 115 174q-51 23 -74 84q-135 -104 -262 -104t-201 65q-73 66 -73 170q1 196 157 271t371 93v21q0 156 -38 232t-140 75q-68 0 -131 -18l-52 -217h-75q-41 88 -56 221
q162 78 336 78t276 -85t101 -272v-454q0 -55 45 -56l82 2l-4 -59l-10 -4q-190 -72 -191 -207q0 -49 29 -80t79 -31t85 25l26 -39q-68 -68 -170 -68z" />
    <glyph glyph-name="Cacute" unicode="&#x106;" horiz-adv-x="1222" 
d="M956 1462l-442 -92l-29 62q55 68 179 129t243 86zM741 -31q-305 0 -486 163t-181 478q0 314 188 498t464 184t454 -123q-16 -141 -62 -233h-96l-64 256q-72 37 -188 37q-196 0 -316 -165q-120 -164 -120 -440t118 -434t312 -157q96 0 164 24l102 246h103
q25 -145 -11 -264q-154 -70 -381 -70z" />
    <glyph glyph-name="cacute" unicode="&#x107;" horiz-adv-x="940" 
d="M532 -31q-214 0 -338 135q-126 134 -126 352t136 361t365 144q89 0 181 -28t141 -65q-8 -111 -60 -215h-69l-47 217q-80 27 -133 27q-127 0 -200 -115t-73 -305t70 -304q70 -113 215 -113t256 147l41 -33q-145 -205 -359 -205zM762 1290l-313 -248l-54 39q59 195 219 344
z" />
    <glyph glyph-name="Ccircumflex" unicode="&#x108;" horiz-adv-x="1222" 
d="M477 1360l-43 55q119 137 248 213h66q139 -82 247 -213l-43 -55l-239 98zM741 -31q-305 0 -486 163t-181 478q0 314 188 498t464 184t454 -123q-16 -141 -62 -233h-96l-64 256q-72 37 -188 37q-196 0 -316 -165q-120 -164 -120 -440t118 -434t312 -157q96 0 164 24
l102 246h103q25 -145 -11 -264q-154 -70 -381 -70z" />
    <glyph glyph-name="ccircumflex" unicode="&#x109;" horiz-adv-x="940" 
d="M532 -31q-214 0 -338 135q-126 134 -126 352t136 361t365 144q89 0 181 -28t141 -65q-8 -111 -60 -215h-69l-47 217q-80 27 -133 27q-127 0 -200 -115t-73 -305t70 -304q70 -113 215 -113t256 147l41 -33q-145 -205 -359 -205zM233 1110q123 207 259 330h67
q143 -137 258 -330l-49 -41l-244 188l-243 -188z" />
    <glyph glyph-name="Cdotaccent" unicode="&#x10a;" horiz-adv-x="1222" 
d="M741 -31q-305 0 -486 163t-181 478q0 314 188 498t464 184t454 -123q-16 -141 -62 -233h-96l-64 256q-72 37 -188 37q-196 0 -316 -165q-120 -164 -120 -440t118 -434t312 -157q96 0 164 24l102 246h103q25 -145 -11 -264q-154 -70 -381 -70zM573 1516q0 133 134 133
q61 0 98 -34q37 -33 37 -99t-37 -101t-98 -35t-98 35q-36 35 -36 101z" />
    <glyph glyph-name="cdotaccent" unicode="&#x10b;" horiz-adv-x="940" 
d="M393 1228q0 62 35 95t94 33t94 -33t35 -95t-35 -96t-94 -34t-94 34t-35 96zM532 -31q-214 0 -338 135q-126 134 -126 352t136 361t365 144q89 0 181 -28t141 -65q-8 -111 -60 -215h-69l-47 217q-80 27 -133 27q-127 0 -200 -115t-73 -305t70 -304q70 -113 215 -113
t256 147l41 -33q-145 -205 -359 -205z" />
    <glyph glyph-name="Ccaron" unicode="&#x10c;" horiz-adv-x="1222" 
d="M473 1649l236 -101l239 101l43 -58q-117 -137 -248 -213h-65q-129 78 -248 213zM741 -31q-305 0 -486 163t-181 478q0 314 188 498t464 184t454 -123q-16 -141 -62 -233h-96l-64 256q-72 37 -188 37q-196 0 -316 -165q-120 -164 -120 -440t118 -434t312 -157q96 0 164 24
l102 246h103q25 -145 -11 -264q-154 -70 -381 -70z" />
    <glyph glyph-name="ccaron" unicode="&#x10d;" horiz-adv-x="940" 
d="M532 -31q-214 0 -338 135q-126 134 -126 352t136 361t365 144q89 0 181 -28t141 -65q-8 -111 -60 -215h-69l-47 217q-80 27 -133 27q-127 0 -200 -115t-73 -305t70 -304q70 -113 215 -113t256 147l41 -33q-145 -205 -359 -205zM231 1391l48 41l243 -189l244 189l49 -41
q-115 -193 -258 -330h-68q-135 123 -258 330z" />
    <glyph glyph-name="Dcaron" unicode="&#x10e;" horiz-adv-x="1359" 
d="M389 1649l236 -101l239 101l43 -58q-117 -137 -248 -213h-65q-129 78 -248 213zM596 1190h-160v-1118h160q190 0 310 144t120 410t-121 416q-121 148 -309 148zM203 131v999q1 27 -15 39t-51 21l-61 14l4 58h547q295 0 477 -169t182 -457t-181 -462t-470 -174h-561l6 57
l55 15q46 15 57 27q11 13 11 32z" />
    <glyph glyph-name="dcaron" unicode="&#x10f;" horiz-adv-x="1193" 
d="M1026 1192q0 135 133 135t133 -153q0 -130 -79 -232t-220 -139l-10 55q94 43 137 89t56 112q-150 10 -150 133zM537 63q76 0 161 56v725q-76 39 -163 39q-111 0 -162 -118q-51 -119 -51 -307t56 -292t159 -103zM461 -31q-172 0 -281 126q-108 126 -108 366q0 239 118 369
t299 131q92 0 209 -48v295q0 57 -36 66l-121 22l6 54q117 33 315 55h39q20 -53 21 -141v-1143q0 -35 39 -45l71 -19l-6 -55l-270 -25h-37q-12 27 -19 72q-113 -80 -239 -80z" />
    <glyph glyph-name="Dcroat" unicode="&#x110;" horiz-adv-x="1349" 
d="M709 602h-273v-530h150q188 0 308 144t120 410t-121 415q-121 148 -307 149h-150v-516h273v-72zM82 602v72h121v456q1 27 -15 39t-51 21l-61 14l6 58h534q294 0 476 -169t182 -457t-181 -462t-470 -174h-547l6 57l53 15q37 10 52 21t16 38v471h-121z" />
    <glyph glyph-name="dcroat" unicode="&#x111;" horiz-adv-x="1079" 
d="M537 63q76 0 161 56v725q-76 39 -163 39q-111 0 -162 -118q-51 -119 -51 -307t56 -292t159 -103zM391 1098v63h307v47q0 57 -36 66l-121 22l6 54q117 33 315 55h39q20 -53 21 -141v-103h92v-63h-92v-977q0 -35 39 -45l71 -19l-6 -55l-270 -25h-37q-12 27 -19 72
q-113 -80 -239 -80q-172 0 -281 126q-108 126 -108 366q0 239 118 369t299 131q92 0 209 -48v185h-307z" />
    <glyph glyph-name="Emacron" unicode="&#x112;" horiz-adv-x="1089" 
d="M301 1430v151h496v-151h-496zM203 131v999q1 27 -15 39t-51 21l-61 14l4 58h891q25 -123 12 -291h-86l-76 164q-25 55 -106 55h-279v-504h240q45 0 59 43l45 121h78l-18 -399h-70l-43 129q-10 35 -53 34h-238v-542h303q76 0 97 47l90 172h90q6 -152 -33 -291h-909l6 57
l55 15q46 15 57 27q11 13 11 32z" />
    <glyph glyph-name="emacron" unicode="&#x113;" 
d="M203 1126v152h547v-152h-547zM496 903q-68 0 -119 -80t-64 -245l340 14q-22 311 -157 311zM899 506h-590v-35q0 -182 71 -295t212 -113q82 0 143 38t127 116l39 -29q-131 -219 -387 -219q-196 0 -318 136q-122 137 -126 355t113 359q118 141 318 141t299 -132
q99 -134 99 -322z" />
    <glyph glyph-name="Ebreve" unicode="&#x114;" horiz-adv-x="1089" 
d="M560 1528q85 0 145 41q59 41 75 94h74q-10 -129 -88 -208t-206 -79t-207 79t-83 208h70q12 -51 74 -93t146 -42zM203 131v999q1 27 -15 39t-51 21l-61 14l4 58h891q25 -123 12 -291h-86l-76 164q-25 55 -106 55h-279v-504h240q45 0 59 43l45 121h78l-18 -399h-70l-43 129
q-10 35 -53 34h-238v-542h303q76 0 97 47l90 172h90q6 -152 -33 -291h-909l6 57l55 15q46 15 57 27q11 13 11 32z" />
    <glyph glyph-name="ebreve" unicode="&#x115;" 
d="M496 903q-68 0 -119 -80t-64 -245l340 14q-22 311 -157 311zM496 1239q80 0 136 46t73 108h67q4 -137 -75 -223t-199 -87q-120 1 -200 87q-81 86 -77 223h70q14 -61 70 -107q55 -46 135 -47zM309 506v-35q0 -182 71 -295t212 -113q82 0 143 38t127 116l39 -29
q-131 -219 -387 -219q-196 0 -318 136q-122 137 -126 355t113 359q118 141 318 141t299 -132q99 -134 99 -322h-590z" />
    <glyph glyph-name="Edotaccent" unicode="&#x116;" horiz-adv-x="1089" 
d="M414 1516q0 133 133 133q61 0 98 -34q37 -33 37 -99t-37 -101t-98 -35t-97 35t-36 101zM203 131v999q1 27 -15 39t-51 21l-61 14l4 58h891q25 -123 12 -291h-86l-76 164q-25 55 -106 55h-279v-504h240q45 0 59 43l45 121h78l-18 -399h-70l-43 129q-10 35 -53 34h-238
v-542h303q76 0 97 47l90 172h90q6 -152 -33 -291h-909l6 57l55 15q46 15 57 27q11 13 11 32z" />
    <glyph glyph-name="edotaccent" unicode="&#x117;" 
d="M375 1228q0 62 35 95t94 33t94 -33t35 -95t-35 -96t-94 -34t-94 34t-35 96zM496 903q-68 0 -119 -80t-64 -245l340 14q-22 311 -157 311zM309 506v-35q0 -182 71 -295t212 -113q82 0 143 38t127 116l39 -29q-131 -219 -387 -219q-196 0 -318 136q-122 137 -126 355
t113 359q118 141 318 141t299 -132q99 -134 99 -322h-590z" />
    <glyph glyph-name="Eogonek" unicode="&#x118;" horiz-adv-x="1087" 
d="M780 -211q0 -49 29 -80t79 -31t85 25l26 -39q-68 -68 -170 -68t-163 51q-61 50 -62 132q0 145 223 221h-755l6 57l55 15q46 15 56 27q11 13 12 32v999q1 27 -15 39t-51 21l-61 14l4 58h891q25 -123 12 -291h-86l-76 164q-25 55 -106 55h-279v-504h240q45 0 59 43l45 121
h78l-18 -399h-70l-43 129q-10 35 -53 34h-238v-542h303q76 0 97 47l90 172h90q6 -152 -33 -291q-201 -74 -201 -211z" />
    <glyph glyph-name="eogonek" unicode="&#x119;" 
d="M496 903q-68 0 -119 -80t-64 -245l340 14q-22 311 -157 311zM899 506h-590v-35q0 -182 71 -295t212 -113q82 0 143 38t127 116l39 -29q-96 -162 -262 -202q-152 -74 -152 -193q0 -49 29 -80t79 -31t85 25l27 -39q-69 -68 -171 -68t-163 51q-61 50 -62 132q0 121 146 190
q-175 19 -279 151t-108 343t113 352q118 141 318 141t299 -132q99 -134 99 -322z" />
    <glyph glyph-name="Ecaron" unicode="&#x11a;" horiz-adv-x="1089" 
d="M311 1649l236 -101l239 101l43 -58q-117 -137 -247 -213h-66q-129 78 -248 213zM203 131v999q1 27 -15 39t-51 21l-61 14l4 58h891q25 -123 12 -291h-86l-76 164q-25 55 -106 55h-279v-504h240q45 0 59 43l45 121h78l-18 -399h-70l-43 129q-10 35 -53 34h-238v-542h303
q76 0 97 47l90 172h90q6 -152 -33 -291h-909l6 57l55 15q46 15 57 27q11 13 11 32z" />
    <glyph glyph-name="ecaron" unicode="&#x11b;" 
d="M496 903q-68 0 -119 -80t-64 -245l340 14q-22 311 -157 311zM203 1391l47 41l244 -189l243 189l49 -41q-115 -193 -258 -330h-67q-135 123 -258 330zM899 506h-590v-35q0 -182 71 -295t212 -113q82 0 143 38t127 116l39 -29q-131 -219 -387 -219q-196 0 -318 136
q-122 137 -126 355t113 359q118 141 318 141t299 -132q99 -134 99 -322z" />
    <glyph glyph-name="Gcircumflex" unicode="&#x11c;" horiz-adv-x="1337" 
d="M799 1227q-217 0 -342 -160q-125 -161 -125 -439t117 -436t325 -157q115 0 172 41v317q0 45 -55 58l-103 20l7 57h508l-7 -57l-75 -27q-41 -16 -41 -51v-297q-164 -127 -456 -127t-472 174t-180 473q0 300 188 488t488 188t456 -137q-12 -117 -61 -219h-96l-64 256
q-61 35 -184 35zM494 1360l-43 55q119 137 247 213h66q139 -82 248 -213l-43 -55l-240 98z" />
    <glyph glyph-name="gcircumflex" unicode="&#x11d;" horiz-adv-x="1026" 
d="M195 1110q123 207 258 330h67q143 -137 258 -330l-49 -41l-244 188l-243 -188zM483 381q86 0 129 70q43 69 43 185t-45 190t-130 73q-85 0 -129 -74q-44 -75 -44 -189t45 -184t131 -71zM788 -131q0 41 -32 69q-33 28 -97 27h-313q-61 0 -121 33q-80 -70 -80 -149t79 -123
t240 -43q161 0 243 51q81 51 81 135zM76 639q0 139 104 230t304 91t315 -108q86 70 194 119q0 -84 -20 -172l-115 -27q29 -61 29 -137q-1 -139 -105 -226t-299 -87q-72 0 -143 16q-45 -39 -45 -94q0 -63 80 -64h317q115 0 185 -61t69 -170q0 -145 -127 -241t-345 -95
t-323 65t-105 168t138 179q-51 47 -51 127q0 113 148 202q-205 80 -205 285z" />
    <glyph glyph-name="Gbreve" unicode="&#x11e;" horiz-adv-x="1337" 
d="M740 1528q85 0 145 41q59 41 76 94h73q-10 -129 -88 -208t-206 -79t-206 79t-83 208h69q12 -51 74 -93t146 -42zM799 1227q-217 0 -342 -160q-125 -161 -125 -439t117 -436t325 -157q115 0 172 41v317q0 45 -55 58l-103 20l7 57h508l-7 -57l-75 -27q-41 -16 -41 -51v-297
q-164 -127 -456 -127t-472 174t-180 473q0 300 188 488t488 188t456 -137q-12 -117 -61 -219h-96l-64 256q-61 35 -184 35z" />
    <glyph glyph-name="gbreve" unicode="&#x11f;" horiz-adv-x="1026" 
d="M486 1239q79 0 136 46q56 46 72 108h68q4 -137 -75 -223t-199 -87q-120 1 -200 87t-77 223h70q14 -61 70 -107t135 -47zM483 381q86 0 129 70q43 69 43 185t-45 190t-130 73q-85 0 -129 -74q-44 -75 -44 -189t45 -184t131 -71zM788 -131q0 41 -32 69q-33 28 -97 27h-313
q-61 0 -121 33q-80 -70 -80 -149t79 -123t240 -43q161 0 243 51q81 51 81 135zM76 639q0 139 104 230t304 91t315 -108q86 70 194 119q0 -84 -20 -172l-115 -27q29 -61 29 -137q-1 -139 -105 -226t-299 -87q-72 0 -143 16q-45 -39 -45 -94q0 -63 80 -64h317q115 0 185 -61
t69 -170q0 -145 -127 -241t-345 -95t-323 65t-105 168t138 179q-51 47 -51 127q0 113 148 202q-205 80 -205 285z" />
    <glyph glyph-name="Gdotaccent" unicode="&#x120;" horiz-adv-x="1337" 
d="M799 1227q-217 0 -342 -160q-125 -161 -125 -439t117 -436t325 -157q115 0 172 41v317q0 45 -55 58l-103 20l7 57h508l-7 -57l-75 -27q-41 -16 -41 -51v-297q-164 -127 -456 -127t-472 174t-180 473q0 300 188 488t488 188t456 -137q-12 -117 -61 -219h-96l-64 256
q-61 35 -184 35zM608 1516q0 133 133 133q61 0 99 -34q38 -33 37 -99q0 -66 -37 -101q-36 -35 -98 -35t-98 35t-36 101z" />
    <glyph glyph-name="gdotaccent" unicode="&#x121;" horiz-adv-x="1026" 
d="M346 1228q0 62 35 95t94 33t94 -33t35 -95t-35 -96t-94 -34t-94 34t-35 96zM483 381q86 0 129 70q43 69 43 185t-45 190t-130 73q-85 0 -129 -74q-44 -75 -44 -189t45 -184t131 -71zM788 -131q0 41 -32 69q-33 28 -97 27h-313q-61 0 -121 33q-80 -70 -80 -149t79 -123
t240 -43q161 0 243 51q81 51 81 135zM76 639q0 139 104 230t304 91t315 -108q86 70 194 119q0 -84 -20 -172l-115 -27q29 -61 29 -137q-1 -139 -105 -226t-299 -87q-72 0 -143 16q-45 -39 -45 -94q0 -63 80 -64h317q115 0 185 -61t69 -170q0 -145 -127 -241t-345 -95
t-323 65t-105 168t138 179q-51 47 -51 127q0 113 148 202q-205 80 -205 285z" />
    <glyph glyph-name="uni0122" unicode="&#x122;" horiz-adv-x="1337" 
d="M799 1227q-217 0 -342 -160q-125 -161 -125 -439t117 -436t325 -157q115 0 172 41v317q0 45 -55 58l-103 20l7 57h508l-7 -57l-75 -27q-41 -16 -41 -51v-297q-164 -127 -456 -127t-472 174t-180 473q0 300 188 488t488 188t456 -137q-12 -117 -61 -219h-96l-64 256
q-61 35 -184 35zM860 -256q0 -130 -80 -232t-221 -139l-10 56q94 43 137 89t57 111q-152 10 -151 133q0 135 135 136q61 0 97 -39t36 -115z" />
    <glyph glyph-name="uni0123" unicode="&#x123;" horiz-adv-x="1026" 
d="M621 1169q0 -69 -37 -103q-38 -34 -100 -34t-97 40t-35 116q0 129 80 230t221 138l11 -53q-94 -43 -138 -89t-57 -114q152 -8 152 -131zM483 381q86 0 129 70q43 69 43 185t-45 190t-130 73q-85 0 -129 -74q-44 -75 -44 -189t45 -184t131 -71zM788 -131q0 41 -32 69
q-33 28 -97 27h-313q-61 0 -121 33q-80 -70 -80 -149t79 -123t240 -43q161 0 243 51q81 51 81 135zM76 639q0 139 104 230t304 91t315 -108q86 70 194 119q0 -84 -20 -172l-115 -27q29 -61 29 -137q-1 -139 -105 -226t-299 -87q-72 0 -143 16q-45 -39 -45 -94q0 -63 80 -64
h317q115 0 185 -61t69 -170q0 -145 -127 -241t-345 -95t-323 65t-105 168t138 179q-51 47 -51 127q0 113 148 202q-205 80 -205 285z" />
    <glyph glyph-name="Hcircumflex" unicode="&#x124;" horiz-adv-x="1423" 
d="M473 1360l-43 55q119 137 248 213h65q139 -82 248 -213l-43 -55l-239 98zM203 1130q1 27 -15 39t-51 21l-61 14l4 58h485l-6 -58l-53 -16q-4 -2 -12 -4t-12 -4t-12 -4q-7 -2 -10 -4t-8 -6q-16 -10 -16 -36v-436h553v436q0 27 -16 39t-51 21l-62 14l6 58h484l-7 -58
l-53 -16q-4 -2 -12 -4t-12 -4t-12 -4t-10 -4q-3 -2 -8 -6q-15 -9 -15 -36v-999q0 -27 17 -37q16 -10 22 -11t28 -9l62 -17l-7 -57h-483l6 57l54 15q46 14 57 27q12 13 12 32v492h-553v-492q0 -27 18 -37t22 -11q5 -1 28 -9l59 -17l-4 -57h-485l6 57l55 15q46 15 57 27
q11 13 11 32v999z" />
    <glyph glyph-name="hcircumflex" unicode="&#x125;" horiz-adv-x="1112" 
d="M291 1473l-43 55q119 137 248 213h65q139 -82 248 -213l-43 -55l-240 98zM158 1206q0 57 -37 66l-78 22l6 56q152 43 273 55h38q20 -53 21 -141v-439q57 43 92 66t96 47t117 23q268 0 268 -322v-526q0 -27 27 -33l109 -23l-7 -57h-481l6 57l80 19q45 10 45 57v483
q0 126 -33 174q-34 48 -118 48t-201 -84v-641q0 -31 25 -33l118 -23l-6 -57h-477l6 57l66 19q45 12 45 57v1073z" />
    <glyph glyph-name="Hbar" unicode="&#x126;" horiz-adv-x="1427" 
d="M436 911v-217h553v217h-553zM989 1130q0 27 -16 39t-51 21l-62 14l6 58h484l-7 -58l-53 -16q-4 -2 -12 -4t-12 -4t-12 -4t-10 -4q-3 -2 -8 -6q-15 -9 -15 -36v-149h116v-70h-116v-780q0 -27 17 -37q16 -10 22 -11t28 -9l62 -17l-7 -57h-483l6 57l54 15q46 14 57 27
q12 13 12 32v492h-553v-492q0 -27 18 -37t22 -11q5 -1 28 -9l59 -17l-4 -57h-485l6 57l55 15q46 15 57 27q11 13 11 32v780h-123v70h123v149q1 27 -15 39t-51 21l-61 14l4 58h485l-6 -58l-53 -16q-4 -2 -12 -4t-12 -4t-12 -4q-7 -2 -10 -4t-8 -6q-16 -10 -16 -36v-149h553
v149z" />
    <glyph glyph-name="hbar" unicode="&#x127;" horiz-adv-x="1112" 
d="M158 1206q0 57 -37 66l-78 22l6 56q152 43 273 55h38q20 -53 21 -141v-121h362v-64h-362v-254q57 43 92 66t96 47t117 23q268 0 268 -322v-526q0 -27 27 -33l109 -23l-7 -57h-481l6 57l80 19q45 10 45 57v483q0 126 -33 174q-34 48 -118 48t-201 -84v-641q0 -31 25 -33
l118 -23l-6 -57h-477l6 57l66 19q45 12 45 57v946h-90v64h90v63z" />
    <glyph glyph-name="Itilde" unicode="&#x128;" horiz-adv-x="638" 
d="M475 1534q72 0 84 65h64q2 -102 -38 -162q-76 -113 -273 -19q-86 42 -144 42t-74 -53h-67q2 92 49 149q48 58 112 58t151 -40t136 -40zM203 1130q1 27 -15 39t-51 21l-61 14l4 58h485l-6 -58l-53 -16q-4 -2 -12 -4t-12 -4t-12 -4q-7 -2 -10 -4t-8 -6q-16 -10 -16 -36
v-999q0 -27 18 -37t22 -11q5 -1 28 -9l59 -17l-4 -57h-485l6 57l55 15q46 15 57 27q11 13 11 32v999z" />
    <glyph glyph-name="itilde" unicode="&#x129;" horiz-adv-x="565" 
d="M412 1255q76 0 90 68h57q6 -96 -36 -165q-43 -68 -113 -68t-150 43t-127 43q-71 0 -96 -74h-57q-2 96 48 164t113 68t145 -40q82 -39 126 -39zM176 752q0 57 -37 65l-78 23l7 55q152 43 272 55h37q20 -53 20 -141v-696q0 -31 25 -33l113 -23l-7 -57h-469l7 57l65 19
q45 12 45 57v619z" />
    <glyph glyph-name="Imacron" unicode="&#x12a;" horiz-adv-x="638" 
d="M72 1430v151h495v-151h-495zM203 1130q1 27 -15 39t-51 21l-61 14l4 58h485l-6 -58l-53 -16q-4 -2 -12 -4t-12 -4t-12 -4q-7 -2 -10 -4t-8 -6q-16 -10 -16 -36v-999q0 -27 18 -37t22 -11q5 -1 28 -9l59 -17l-4 -57h-485l6 57l55 15q46 15 57 27q11 13 11 32v999z" />
    <glyph glyph-name="imacron" unicode="&#x12b;" horiz-adv-x="565" 
d="M-18 1126v152h546v-152h-546zM176 752q0 57 -37 65l-78 23l7 55q152 43 272 55h37q20 -53 20 -141v-696q0 -31 25 -33l113 -23l-7 -57h-469l7 57l65 19q45 12 45 57v619z" />
    <glyph glyph-name="uni012C" unicode="&#x12c;" horiz-adv-x="638" 
d="M318 1528q85 0 145 41q59 41 76 94h73q-10 -129 -88 -208t-206 -79t-206 79t-83 208h69q12 -51 74 -93t146 -42zM203 1130q1 27 -15 39t-51 21l-61 14l4 58h485l-6 -58l-53 -16q-4 -2 -12 -4t-12 -4t-12 -4q-7 -2 -10 -4t-8 -6q-16 -10 -16 -36v-999q0 -27 18 -37t22 -11
q5 -1 28 -9l59 -17l-4 -57h-485l6 57l55 15q46 15 57 27q11 13 11 32v999z" />
    <glyph glyph-name="uni012D" unicode="&#x12d;" horiz-adv-x="565" 
d="M273 1247q79 0 136 46q56 46 72 108h68q4 -137 -75 -223t-199 -86q-121 0 -201 86t-76 223h70q14 -61 70 -107t135 -47zM176 752q0 57 -37 65l-78 23l7 55q152 43 272 55h37q20 -53 20 -141v-696q0 -31 25 -33l113 -23l-7 -57h-469l7 57l65 19q45 12 45 57v619z" />
    <glyph glyph-name="Iogonek" unicode="&#x12e;" horiz-adv-x="636" 
d="M201 1130q1 27 -15 39t-51 21l-61 14l4 58h485l-6 -58l-53 -16q-4 -2 -12 -4t-12 -4t-12 -4q-7 -2 -10 -4t-8 -6q-16 -10 -16 -36v-999q0 -27 18 -37t22 -11q5 -1 28 -9l59 -17l-4 -57q-201 -74 -201 -211q0 -49 29 -80t79 -31t85 25l26 -39q-68 -68 -170 -68t-163 51
q-61 50 -62 132q0 145 223 221h-331l6 57l55 15q46 15 56 27q11 13 12 32v999z" />
    <glyph glyph-name="iogonek" unicode="&#x12f;" horiz-adv-x="565" 
d="M152 -221q0 145 223 221h-316l7 57l65 19q45 12 45 57v619q0 57 -37 65l-78 23l7 55q152 43 272 55h37q20 -53 20 -141v-696q0 -31 25 -33l113 -23l-7 -57q-201 -74 -200 -211q0 -49 28 -80t79 -31q50 0 85 25l27 -39q-69 -68 -171 -68t-163 51q-61 50 -61 132z" />
    <glyph glyph-name="Idotaccent" unicode="&#x130;" horiz-adv-x="638" 
d="M184 1516q0 133 133 133q61 0 99 -34q38 -33 37 -99q0 -66 -37 -101q-36 -35 -98 -35t-98 35t-36 101zM203 1130q1 27 -15 39t-51 21l-61 14l4 58h485l-6 -58l-53 -16q-4 -2 -12 -4t-12 -4t-12 -4q-7 -2 -10 -4t-8 -6q-16 -10 -16 -36v-999q0 -27 18 -37t22 -11
q5 -1 28 -9l59 -17l-4 -57h-485l6 57l55 15q46 15 57 27q11 13 11 32v999z" />
    <glyph glyph-name="dotlessi" unicode="&#x131;" horiz-adv-x="565" 
d="M176 752q0 57 -37 65l-78 23l7 55q152 43 272 55h37q20 -53 20 -141v-696q0 -31 25 -33l113 -23l-7 -57h-469l7 57l65 19q45 12 45 57v619z" />
    <glyph glyph-name="IJ" unicode="&#x132;" horiz-adv-x="1189" 
d="M999 68q0 -190 -108 -309q-109 -118 -324 -142l-14 57q59 27 88 44q29 16 64 54q61 65 61 242v1116q0 27 -15 39t-51 21l-61 14l6 58h483l-6 -58l-53 -16q-4 -2 -12 -4q-9 -2 -13 -4t-11 -4t-10 -4t-8 -6q-16 -10 -16 -36v-1062zM201 1130q1 27 -15 39t-51 21l-61 14
l4 58h485l-6 -58l-53 -16q-4 -2 -12 -4t-12 -4t-12 -4q-7 -2 -10 -4t-8 -6q-16 -10 -16 -36v-999q0 -27 18 -37t22 -11q5 -1 28 -9l59 -17l-4 -57h-485l6 57l55 15q46 15 56 27q11 13 12 32v999z" />
    <glyph glyph-name="ij" unicode="&#x133;" horiz-adv-x="1079" 
d="M973 1262q1 -68 -39 -105t-104 -37t-102 37t-38 106t38 105t104 35q66 0 103 -36q38 -37 38 -105zM946 55q0 -184 -102 -299t-314 -139l-18 57q76 33 114 61q38 27 68 97t31 182v738q0 57 -37 65l-78 23l6 55q152 43 273 55h37q20 -53 20 -141v-754zM143 1263
q0 69 38 105t104 35q65 0 103 -36q38 -37 38 -105t-39 -105t-103 -37t-103 37q-38 37 -38 106zM176 752q0 57 -37 65l-78 23l7 55q152 43 272 55h37q20 -53 20 -141v-696q0 -31 25 -33l113 -23l-7 -57h-469l7 57l65 19q45 12 45 57v619z" />
    <glyph glyph-name="Jcircumflex" unicode="&#x134;" horiz-adv-x="614" 
d="M70 1360l-43 55q119 137 247 213h66q139 -82 248 -213l-43 -55l-240 98zM422 68q0 -190 -109 -308t-323 -143l-15 57q59 27 88 44q29 16 64 54q61 65 61 242v1116q0 27 -15 39t-50 21l-62 14l7 58h483l-6 -58l-53 -16q-4 -2 -12 -4t-13 -4q-4 -2 -11 -4q-6 -2 -10 -4
t-9 -6q-15 -9 -15 -36v-1062z" />
    <glyph glyph-name="jcircumflex" unicode="&#x135;" horiz-adv-x="516" 
d="M-47 1110q123 207 258 330h68q143 -137 258 -330l-50 -41l-243 188l-244 -188zM383 55q0 -184 -102 -299t-314 -139l-18 57q75 33 113 61q38 27 69 97t31 182v738q0 57 -37 65l-78 23l6 55q152 43 273 55h36q20 -53 21 -141v-754z" />
    <glyph glyph-name="uni0136" unicode="&#x136;" horiz-adv-x="1239" 
d="M815 -256q0 -130 -80 -232t-221 -139l-10 56q94 43 137 89t57 111q-152 10 -151 133q0 135 135 136q61 0 97 -39t36 -115zM203 1130q1 27 -15 39t-51 21l-61 14l4 58h485l-6 -58l-53 -16q-4 -2 -12 -4t-12 -4t-12 -4q-7 -2 -10 -4t-8 -6q-16 -10 -16 -36v-483l488 483
q22 25 16 41t-33 21l-94 12l4 58h389l-4 -58l-94 -20q-41 -12 -100 -72l-308 -305l396 -604q80 -119 168 -146l-4 -57h-320l-416 631l-88 -88v-412q0 -27 18 -37t22 -11q5 -1 28 -9l59 -17l-4 -57h-485l6 57l55 15q46 15 57 27q11 13 11 32v999z" />
    <glyph glyph-name="uni0137" unicode="&#x137;" horiz-adv-x="1069" 
d="M430 -238q0 135 135 136q61 0 97 -39t36 -115q0 -130 -80 -232t-221 -139l-10 56q94 43 137 89t58 111q-152 10 -152 133zM158 1208q0 55 -37 66l-78 22l6 54q152 43 273 55h38q20 -53 21 -141v-758l383 295q53 45 -35 61l-86 12l4 58h389l-4 -58l-67 -12q-43 -9 -72 -34
q-30 -25 -57 -48t-29 -24l-150 -117l281 -479q55 -92 135 -103l-6 -57h-299l-289 500l-98 -78v-309q0 -31 25 -33l124 -23l-6 -57h-483l6 57l66 19q45 12 45 57v1075z" />
    <glyph glyph-name="kgreenlandic" unicode="&#x138;" horiz-adv-x="1087" 
d="M399 113q0 -31 25 -33l125 -23l-6 -57h-484l7 57l65 19q45 12 45 57v631q0 55 -37 65l-78 23l7 55q152 43 272 56h39q20 -53 20 -142v-315l383 295q53 45 -34 61l-86 12l4 58h389l-4 -58l-68 -12q-43 -9 -72 -34q-30 -25 -57 -48t-180 -141l282 -479q55 -92 136 -103
l-7 -57h-299l-290 500l-97 -76v-311z" />
    <glyph glyph-name="Lacute" unicode="&#x139;" horiz-adv-x="1050" 
d="M563 1462l-442 -92l-29 62q55 68 179 129t243 86zM203 131v999q1 27 -15 39t-51 21l-61 14l4 58h485l-6 -58l-53 -16q-4 -2 -12 -4t-12 -4t-12 -4q-7 -2 -10 -4t-8 -6q-16 -10 -16 -36v-1058h269q78 0 98 47l104 241h97q2 -184 -48 -360h-882l6 57l55 15q46 15 57 27
q11 13 11 32z" />
    <glyph glyph-name="lacute" unicode="&#x13a;" horiz-adv-x="550" 
d="M160 1208q0 55 -37 66l-78 22l6 54q152 43 273 55h36q20 -53 21 -141v-1151q0 -31 25 -33l112 -23l-6 -57h-469l6 57l66 19q45 12 45 57v1075zM475 1552l-442 -92l-29 62q55 68 179 129t243 86z" />
    <glyph glyph-name="uni013B" unicode="&#x13b;" horiz-adv-x="1050" 
d="M690 -256q0 -130 -80 -232t-221 -139l-10 56q94 43 137 89t57 111q-152 10 -151 133q0 135 135 136q61 0 97 -39t36 -115zM203 131v999q1 27 -15 39t-51 21l-61 14l4 58h485l-6 -58l-53 -16q-4 -2 -12 -4t-12 -4t-12 -4q-7 -2 -10 -4t-8 -6q-16 -10 -16 -36v-1058h269
q78 0 98 47l104 241h97q2 -184 -48 -360h-882l6 57l55 15q46 15 57 27q11 13 11 32z" />
    <glyph glyph-name="uni013C" unicode="&#x13c;" horiz-adv-x="550" 
d="M160 1208q0 55 -37 66l-78 22l6 54q152 43 273 55h36q20 -53 21 -141v-1151q0 -31 25 -33l112 -23l-6 -57h-469l6 57l66 19q45 12 45 57v1075zM391 -256q0 -130 -80 -232t-221 -139l-10 56q94 43 137 89t57 111q-152 10 -151 133q0 135 135 136q61 0 97 -39t36 -115z" />
    <glyph glyph-name="Lcaron" unicode="&#x13d;" horiz-adv-x="1058" 
d="M842 1327q133 0 133 -153q0 -130 -80 -232t-221 -139l-10 55q94 43 137 89t57 112q-152 10 -151 133q1 70 37 102t98 33zM201 1130q1 27 -15 39t-51 21l-61 14l4 58h485l-6 -58l-53 -16q-4 -2 -12 -4t-12 -4t-12 -4q-7 -2 -10 -4t-8 -6q-16 -10 -16 -36v-1058h268
q78 0 99 47l104 241h96q2 -184 -47 -360h-882l6 57l55 15q46 15 56 27q11 13 12 32v999z" />
    <glyph glyph-name="lcaron" unicode="&#x13e;" horiz-adv-x="657" 
d="M487 1192q-1 135 133 135t134 -153q0 -130 -80 -232t-221 -139l-11 55q94 43 138 89q43 46 57 112q-150 10 -150 133zM160 1208q0 55 -37 66l-78 22l6 54q152 43 273 55h36q20 -53 21 -141v-1151q0 -31 25 -33l112 -23l-6 -57h-469l6 57l66 19q45 12 45 57v1075z" />
    <glyph glyph-name="Ldot" unicode="&#x13f;" horiz-adv-x="1073" 
d="M666 696q0 135 133 135q61 -1 97 -35t36 -98t-36 -100q-36 -35 -97 -35t-98 35q-35 35 -35 98zM203 131v999q1 27 -15 39t-51 21l-61 14l4 58h485l-6 -58l-53 -16q-4 -2 -12 -4t-12 -4t-12 -4q-7 -2 -10 -4t-8 -6q-16 -10 -16 -36v-1058h269q78 0 98 47l104 241h97
q2 -184 -48 -360h-882l6 57l55 15q46 15 57 27q11 13 11 32z" />
    <glyph glyph-name="ldot" unicode="&#x140;" horiz-adv-x="657" 
d="M459 702q0 135 133 136q61 0 97 -35t36 -99t-36 -100q-36 -35 -97 -35t-97 35t-36 98zM160 1208q0 55 -37 66l-78 22l6 54q152 43 273 55h36q20 -53 21 -141v-1151q0 -31 25 -33l112 -23l-6 -57h-469l6 57l66 19q45 12 45 57v1075z" />
    <glyph glyph-name="Lslash" unicode="&#x141;" horiz-adv-x="1052" 
d="M203 1130q1 27 -15 39t-51 21l-61 14l4 58h485l-6 -58l-53 -16q-4 -2 -12 -4t-12 -4t-12 -4q-7 -2 -10 -4t-8 -6q-16 -10 -16 -36v-382l219 161v-108l-219 -162v-567h269q78 0 98 47l104 241h97q2 -184 -48 -360h-882l6 57l55 15q46 15 57 27q11 13 11 32v367l-119 -88
v108l119 88v524z" />
    <glyph glyph-name="lslash" unicode="&#x142;" horiz-adv-x="559" 
d="M166 1208q0 55 -37 66l-78 22l6 54q152 43 273 55h37q20 -53 20 -141v-437l139 107l-6 -103l-133 -100v-618q0 -31 25 -33l112 -23l-6 -57h-469l6 57l66 19q45 12 45 57v467l-125 -94l8 102l117 90v510z" />
    <glyph glyph-name="Nacute" unicode="&#x143;" horiz-adv-x="1404" 
d="M999 1462l-442 -92l-29 62q56 68 180 129t242 86zM272 133q0 -33 41 -47q6 -2 29 -8l82 -21l-6 -57h-346l6 57l55 19q42 10 54 24q13 14 14 33v1028q-55 37 -119 43l4 58h332l725 -1045v911q0 31 -33 44q-12 5 -39 12l-78 20l4 58h346l-4 -58l-57 -18q-35 -8 -51 -20
t-17 -38v-1128h-219l-723 1059v-926z" />
    <glyph glyph-name="nacute" unicode="&#x144;" horiz-adv-x="1130" 
d="M793 1290l-314 -248l-53 39q59 195 219 344zM176 752q0 57 -37 65l-78 23l7 55q152 43 272 55h39q16 -41 20 -125q57 43 93 66t96 47q61 24 117 23q268 0 268 -322v-526q0 -27 26 -33l109 -23l-6 -57h-481l6 57l80 19q45 10 45 57v492q0 119 -33 165t-114 46t-206 -84
v-639q0 -31 25 -33l119 -23l-6 -57h-478l7 57l65 19q45 12 45 57v619z" />
    <glyph glyph-name="uni0145" unicode="&#x145;" horiz-adv-x="1404" 
d="M862 -256q0 -130 -80 -232t-221 -139l-10 56q94 43 137 89t57 111q-152 10 -151 133q0 135 135 136q61 0 97 -39t36 -115zM272 133q0 -33 41 -47q6 -2 29 -8l82 -21l-6 -57h-346l6 57l55 19q42 10 54 24q13 14 14 33v1028q-55 37 -119 43l4 58h332l725 -1045v911
q0 31 -33 44q-12 5 -39 12l-78 20l4 58h346l-4 -58l-57 -18q-35 -8 -51 -20t-17 -38v-1128h-219l-723 1059v-926z" />
    <glyph glyph-name="uni0146" unicode="&#x146;" horiz-adv-x="1130" 
d="M446 -238q0 135 136 136q61 0 97 -39t36 -115q0 -130 -80 -232t-221 -139l-11 56q94 43 138 89q43 46 57 111q-152 10 -152 133zM176 752q0 57 -37 65l-78 23l7 55q152 43 272 55h39q16 -41 20 -125q57 43 93 66t96 47q61 24 117 23q268 0 268 -322v-526q0 -27 26 -33
l109 -23l-6 -57h-481l6 57l80 19q45 10 45 57v492q0 119 -33 165t-114 46t-206 -84v-639q0 -31 25 -33l119 -23l-6 -57h-478l7 57l65 19q45 12 45 57v619z" />
    <glyph glyph-name="Ncaron" unicode="&#x147;" horiz-adv-x="1404" 
d="M506 1649l235 -101l240 101l43 -58q-117 -137 -248 -213h-65q-129 78 -248 213zM272 133q0 -33 41 -47q6 -2 29 -8l82 -21l-6 -57h-346l6 57l55 19q42 10 54 24q13 14 14 33v1028q-55 37 -119 43l4 58h332l725 -1045v911q0 31 -33 44q-12 5 -39 12l-78 20l4 58h346
l-4 -58l-57 -18q-35 -8 -51 -20t-17 -38v-1128h-219l-723 1059v-926z" />
    <glyph glyph-name="ncaron" unicode="&#x148;" horiz-adv-x="1130" 
d="M260 1391l47 41l244 -189l244 189l49 -41q-115 -193 -258 -330h-68q-135 123 -258 330zM176 752q0 57 -37 65l-78 23l7 55q152 43 272 55h39q16 -41 20 -125q57 43 93 66t96 47q61 24 117 23q268 0 268 -322v-526q0 -27 26 -33l109 -23l-6 -57h-481l6 57l80 19
q45 10 45 57v492q0 119 -33 165t-114 46t-206 -84v-639q0 -31 25 -33l119 -23l-6 -57h-478l7 57l65 19q45 12 45 57v619z" />
    <glyph glyph-name="napostrophe" unicode="&#x149;" horiz-adv-x="1382" 
d="M53 1192q0 70 37 102t98 33q133 0 134 -153q0 -131 -80 -233q-81 -101 -222 -138l-10 55q94 43 137 89t58 112q-152 10 -152 133zM428 752q0 57 -37 65l-78 23l6 55q152 43 273 55h37q16 -41 20 -125q57 43 92 66t97 47t118 23q268 0 269 -322v-526q0 -27 24 -33l111 -23
l-6 -57h-482l7 57l77 19q45 8 45 57v492q1 117 -31 159t-120 43q-88 0 -201 -75v-639q0 -31 25 -33l119 -23l-7 -57h-475l6 57l66 19q45 12 45 57v619z" />
    <glyph glyph-name="Eng" unicode="&#x14a;" horiz-adv-x="1433" 
d="M272 133q0 -33 41 -47q6 -2 29 -8l82 -21l-6 -57h-346l6 57l55 19q42 10 54 24q13 14 14 33v1028q-55 37 -119 43l4 58h332l725 -1045v911q0 31 -33 44q-12 5 -39 12l-78 20l4 58h346l-4 -58l-57 -18q-35 -8 -51 -20t-17 -38v-1132q0 -334 -372 -379l-13 55q85 20 135 38
q128 48 161 143q19 55 20 137v10h-150l-723 1059v-926z" />
    <glyph glyph-name="eng" unicode="&#x14b;" horiz-adv-x="1085" 
d="M971 639v-584q-1 -184 -103 -299t-313 -139l-20 57q77 33 115 61q38 27 69 97t31 182v611q0 117 -33 159t-120 43q-87 0 -200 -75v-639q0 -31 25 -33l119 -23l-6 -57h-478l6 57l66 19q45 12 45 57v619q0 57 -37 65l-78 23l7 55q152 43 272 55h39q16 -41 20 -125
q57 43 92 66t97 47t116 23q269 0 269 -322z" />
    <glyph glyph-name="Omacron" unicode="&#x14c;" horiz-adv-x="1394" 
d="M451 1430v151h495v-151h-495zM700 33q168 0 265 166q96 166 96 430t-95 432q-96 168 -264 168t-268 -165t-100 -426t99 -433t267 -172zM700 -31q-282 0 -454 173q-172 172 -172 484t174 489t451 177t449 -173t173 -487q0 -314 -170 -488t-451 -175z" />
    <glyph glyph-name="omacron" unicode="&#x14d;" horiz-adv-x="1064" 
d="M526 33q224 0 224 431t-222 431q-213 0 -213 -431t211 -431zM528 -31q-217 0 -338 130q-120 129 -120 363t120 366q121 132 338 132t342 -132q125 -134 125 -364t-125 -362t-342 -133zM250 1126v152h547v-152h-547z" />
    <glyph glyph-name="Obreve" unicode="&#x14e;" horiz-adv-x="1394" 
d="M695 1528q85 0 145 41q59 41 75 94h74q-10 -129 -88 -208t-206 -79t-207 79q-78 79 -82 208h69q11 -51 73 -93t147 -42zM700 33q168 0 265 166q96 166 96 430t-95 432q-96 168 -264 168t-268 -165t-100 -426t99 -433t267 -172zM700 -31q-282 0 -454 173
q-172 172 -172 484t174 489t451 177t449 -173t173 -487q0 -314 -170 -488t-451 -175z" />
    <glyph glyph-name="obreve" unicode="&#x14f;" horiz-adv-x="1064" 
d="M525 1239q79 0 135 46t73 108h68q4 -137 -75 -223t-199 -87q-121 1 -201 87t-76 223h69q15 -61 71 -107t135 -47zM526 33q224 0 224 431t-222 431q-213 0 -213 -431t211 -431zM528 -31q-217 0 -338 130q-120 129 -120 363t120 366q121 132 338 132t342 -132
q125 -134 125 -364t-125 -362t-342 -133z" />
    <glyph glyph-name="Ohungarumlaut" unicode="&#x150;" horiz-adv-x="1394" 
d="M700 33q168 0 265 166q96 166 96 430t-95 432q-96 168 -264 168t-268 -165t-100 -426t99 -433t267 -172zM700 -31q-282 0 -454 173q-172 172 -172 484t174 489t451 177t449 -173t173 -487q0 -314 -170 -488t-451 -175zM731 1378q29 184 96 310l177 -76l-183 -258z
M453 1378q31 184 96 310l176 -76l-182 -258z" />
    <glyph glyph-name="ohungarumlaut" unicode="&#x151;" horiz-adv-x="1064" 
d="M526 33q224 0 224 431t-222 431q-213 0 -213 -431t211 -431zM528 -31q-217 0 -338 130q-120 129 -120 363t120 366q121 132 338 132t342 -132q125 -134 125 -364t-125 -362t-342 -133zM578 1087q41 246 98 351l176 -76l-184 -299zM299 1087q45 250 96 351l176 -76
l-182 -299z" />
    <glyph glyph-name="OE" unicode="&#x152;" horiz-adv-x="1886" 
d="M334 638q0 -261 102 -433t276 -172t285 112v981q-109 102 -283 102t-276 -164q-104 -165 -104 -426zM696 -31q-282 0 -452 173q-170 174 -170 484t174 488t454 178q113 0 209 -30h854q25 -123 13 -291h-84l-78 164q-25 55 -107 55h-278v-504h239q45 0 60 43l45 121h78
l-19 -399h-69l-41 129q-14 35 -56 34h-237v-542h309q78 0 98 47l82 172h90q6 -176 -24 -291h-875q-100 -31 -215 -31z" />
    <glyph glyph-name="oe" unicode="&#x153;" horiz-adv-x="1654" 
d="M1184 903q-68 0 -119 -80t-64 -245l340 14q-22 311 -157 311zM526 33q224 0 224 431t-222 431q-213 0 -213 -431t211 -431zM532 -31q-221 0 -342 130q-120 129 -120 363t120 366q121 132 339 132t345 -139q117 139 316 139t298 -132q99 -134 99 -322h-590v-35
q0 -182 71 -295t212 -113q82 0 143 38t127 116l39 -29q-131 -219 -387 -219q-201 0 -323 142q-126 -142 -347 -142z" />
    <glyph glyph-name="Racute" unicode="&#x154;" horiz-adv-x="1206" 
d="M846 1462l-443 -92l-28 62q55 68 179 129t243 86zM575 1190h-139v-600h164q121 0 177 84t57 217q-1 299 -259 299zM203 1130q1 27 -15 39t-51 21l-61 14l4 58h493q249 0 389 -92t140 -277q0 -125 -71 -215t-195 -131l161 -307q37 -74 80 -118t113 -65l-8 -57h-138
q-119 0 -172 32t-108 144l-162 342h-166v-387q0 -27 16 -39t52 -18l104 -17l-6 -57h-528l6 57l55 15q46 15 57 27q11 13 11 32v999z" />
    <glyph glyph-name="racute" unicode="&#x155;" horiz-adv-x="833" 
d="M625 1290l-314 -248l-53 39q59 195 219 344zM176 752q0 57 -37 65l-78 23l7 55q152 43 272 55h39q14 -39 18 -108q137 119 262 119q80 0 154 -52q-8 -129 -63 -252h-76l-35 181q-31 12 -57 12q-100 0 -183 -86v-651q0 -31 25 -33l139 -23l-6 -57h-498l7 57l65 19
q45 12 45 57v619z" />
    <glyph glyph-name="uni0156" unicode="&#x156;" horiz-adv-x="1206" 
d="M518 -238q0 135 135 136q61 0 97 -39t36 -115q0 -130 -80 -232t-221 -139l-10 56q94 43 137 89t58 111q-152 10 -152 133zM575 1190h-139v-600h164q121 0 177 84t57 217q-1 299 -259 299zM203 1130q1 27 -15 39t-51 21l-61 14l4 58h493q249 0 389 -92t140 -277
q0 -125 -71 -215t-195 -131l161 -307q37 -74 80 -118t113 -65l-8 -57h-138q-119 0 -172 32t-108 144l-162 342h-166v-387q0 -27 16 -39t52 -18l104 -17l-6 -57h-528l6 57l55 15q46 15 57 27q11 13 11 32v999z" />
    <glyph glyph-name="uni0157" unicode="&#x157;" horiz-adv-x="833" 
d="M143 -238q0 135 136 136q61 0 97 -39t36 -115q0 -130 -80 -232t-221 -139l-11 56q94 43 138 89q43 46 57 111q-152 10 -152 133zM176 752q0 57 -37 65l-78 23l7 55q152 43 272 55h39q14 -39 18 -108q137 119 262 119q80 0 154 -52q-8 -129 -63 -252h-76l-35 181
q-31 12 -57 12q-100 0 -183 -86v-651q0 -31 25 -33l139 -23l-6 -57h-498l7 57l65 19q45 12 45 57v619z" />
    <glyph glyph-name="Rcaron" unicode="&#x158;" horiz-adv-x="1206" 
d="M342 1649l236 -101l239 101l43 -58q-117 -137 -248 -213h-65q-129 78 -248 213zM575 1190h-139v-600h164q121 0 177 84t57 217q-1 299 -259 299zM203 1130q1 27 -15 39t-51 21l-61 14l4 58h493q249 0 389 -92t140 -277q0 -125 -71 -215t-195 -131l161 -307
q37 -74 80 -118t113 -65l-8 -57h-138q-119 0 -172 32t-108 144l-162 342h-166v-387q0 -27 16 -39t52 -18l104 -17l-6 -57h-528l6 57l55 15q46 15 57 27q11 13 11 32v999z" />
    <glyph glyph-name="rcaron" unicode="&#x159;" horiz-adv-x="833" 
d="M139 1391l47 41l244 -189l244 189l49 -41q-115 -193 -258 -330h-68q-135 123 -258 330zM176 752q0 57 -37 65l-78 23l7 55q152 43 272 55h39q14 -39 18 -108q137 119 262 119q80 0 154 -52q-8 -129 -63 -252h-76l-35 181q-31 12 -57 12q-100 0 -183 -86v-651
q0 -31 25 -33l139 -23l-6 -57h-498l7 57l65 19q45 12 45 57v619z" />
    <glyph glyph-name="Sacute" unicode="&#x15a;" horiz-adv-x="1005" 
d="M774 1462l-442 -92l-29 62q55 68 179 129t243 86zM476 33q126 0 179 57t51 137q-3 141 -220 271q-91 55 -181 115q-91 61 -155 149t-66 194q-2 156 117 246t309 90q104 0 218 -24t177 -64q-4 -147 -47 -252h-92l-66 256q-51 18 -168 18q-116 0 -168 -62t-50 -143t66 -153
q65 -72 155 -126t181 -110t154 -138t66 -183q4 -160 -125 -251t-334 -91q-117 0 -233 29t-187 78q0 142 39 248h94l76 -258q84 -33 210 -33z" />
    <glyph glyph-name="sacute" unicode="&#x15b;" horiz-adv-x="872" 
d="M592 170q0 55 -51 98t-125 79t-148 78t-125 109t-51 150q0 123 97 200t281 77t310 -87q-10 -109 -55 -202h-76l-45 207q-57 20 -135 20t-119 -37t-41 -99q0 -61 51 -113t125 -89t148 -76t125 -98t51 -135q0 -133 -110 -208t-283 -75q-229 0 -357 107q15 110 60 200h78
l39 -219q68 -31 162 -31t145 45q49 44 49 99zM655 1290l-313 -248l-53 39q59 195 219 344z" />
    <glyph glyph-name="Scircumflex" unicode="&#x15c;" horiz-adv-x="1005" 
d="M281 1360l-43 55q119 137 247 213h66q139 -82 248 -213l-43 -55l-240 98zM476 33q126 0 179 57t51 137q-3 141 -220 271q-91 55 -181 115q-91 61 -155 149t-66 194q-2 156 117 246t309 90q104 0 218 -24t177 -64q-4 -147 -47 -252h-92l-66 256q-51 18 -168 18
q-116 0 -168 -62t-50 -143t66 -153q65 -72 155 -126t181 -110t154 -138t66 -183q4 -160 -125 -251t-334 -91q-117 0 -233 29t-187 78q0 142 39 248h94l76 -258q84 -33 210 -33z" />
    <glyph glyph-name="scircumflex" unicode="&#x15d;" horiz-adv-x="872" 
d="M592 170q0 55 -51 98t-125 79t-148 78t-125 109t-51 150q0 123 97 200t281 77t310 -87q-10 -109 -55 -202h-76l-45 207q-57 20 -135 20t-119 -37t-41 -99q0 -61 51 -113t125 -89t148 -76t125 -98t51 -135q0 -133 -110 -208t-283 -75q-229 0 -357 107q15 110 60 200h78
l39 -219q68 -31 162 -31t145 45q49 44 49 99zM139 1110q123 207 258 330h68q143 -137 258 -330l-49 -41l-244 188l-244 -188z" />
    <glyph glyph-name="Scedilla" unicode="&#x15e;" horiz-adv-x="1007" 
d="M451 -301q74 0 73 72q0 82 -143 82l43 118q-240 14 -367 105q0 141 39 248h94l76 -258q84 -33 210 -33t179 57t51 137q-3 141 -220 271q-91 55 -181 115q-91 61 -155 149t-66 194q-2 156 117 246t309 90q104 0 218 -24t177 -64q-4 -147 -47 -252h-92l-66 256
q-51 18 -168 18q-116 0 -168 -62t-50 -143t66 -153q65 -72 155 -126t181 -110t154 -138t66 -183q4 -158 -122 -248t-329 -94l-26 -69q217 -2 217 -129q0 -66 -55 -111t-152 -45t-150 72l31 51q55 -39 101 -39z" />
    <glyph glyph-name="scedilla" unicode="&#x15f;" horiz-adv-x="870" 
d="M393 -301q74 0 74 72q0 82 -143 82l43 118q-197 10 -308 105q14 111 60 200h78l39 -219q68 -31 162 -31t145 45q49 44 49 99t-51 98t-125 79t-148 78t-125 109t-51 150q0 123 97 200t281 77t310 -87q-10 -109 -55 -202h-76l-45 207q-57 20 -135 20t-119 -37t-41 -99
q0 -61 51 -113t125 -89t148 -76t125 -98t51 -135q1 -131 -105 -205t-276 -78l-27 -69q217 -2 217 -129q0 -66 -55 -111t-151 -45t-150 72l31 51q55 -39 100 -39z" />
    <glyph glyph-name="Scaron" unicode="&#x160;" horiz-adv-x="1005" 
d="M281 1649l235 -101l240 101l43 -58q-117 -137 -248 -213h-66q-129 78 -247 213zM476 33q126 0 179 57t51 137q-3 141 -220 271q-91 55 -181 115q-91 61 -155 149t-66 194q-2 156 117 246t309 90q104 0 218 -24t177 -64q-4 -147 -47 -252h-92l-66 256q-51 18 -168 18
q-116 0 -168 -62t-50 -143t66 -153q65 -72 155 -126t181 -110t154 -138t66 -183q4 -160 -125 -251t-334 -91q-117 0 -233 29t-187 78q0 142 39 248h94l76 -258q84 -33 210 -33z" />
    <glyph glyph-name="scaron" unicode="&#x161;" horiz-adv-x="872" 
d="M592 170q0 55 -51 98t-125 79t-148 78t-125 109t-51 150q0 123 97 200t281 77t310 -87q-10 -109 -55 -202h-76l-45 207q-57 20 -135 20t-119 -37t-41 -99q0 -61 51 -113t125 -89t148 -76t125 -98t51 -135q0 -133 -110 -208t-283 -75q-229 0 -357 107q15 110 60 200h78
l39 -219q68 -31 162 -31t145 45q49 44 49 99zM150 1391l47 41l243 -189l244 189l49 -41q-115 -193 -258 -330h-67q-135 123 -258 330z" />
    <glyph glyph-name="uni0162" unicode="&#x162;" horiz-adv-x="1136" 
d="M428 -238q0 135 135 136q61 0 97 -39t36 -115q0 -130 -80 -232t-221 -139l-10 56q94 43 137 89t58 111q-152 10 -152 133zM834 1190h-148v-1059q0 -34 30 -46q11 -5 36 -11l94 -17l-6 -57h-543l4 57l82 15q37 8 53 20t17 39v1059h-152q-78 0 -108 -68l-82 -170l-66 15
q-10 160 27 295h993q33 -135 27 -295l-70 -15l-80 170q-31 68 -108 68z" />
    <glyph glyph-name="uni0163" unicode="&#x163;" horiz-adv-x="618" 
d="M156 860h-127l6 55q117 27 185 97t102 192h57v-272h194l-6 -72h-188v-651q0 -131 98 -131q47 0 135 18l-4 -65q-96 -61 -212 -61q-240 -1 -240 249v641zM463 -256q0 -130 -80 -232t-221 -139l-10 56q94 43 137 89t57 111q-152 10 -151 133q0 135 135 136q61 0 97 -39
t36 -115z" />
    <glyph glyph-name="Tcaron" unicode="&#x164;" horiz-adv-x="1136" 
d="M328 1649l235 -101l240 101l43 -58q-117 -137 -248 -213h-66q-129 78 -247 213zM834 1190h-148v-1059q0 -34 30 -46q11 -5 36 -11l94 -17l-6 -57h-543l4 57l82 15q37 8 53 20t17 39v1059h-152q-78 0 -108 -68l-82 -170l-66 15q-10 160 27 295h993q33 -135 27 -295
l-70 -15l-80 170q-31 68 -108 68z" />
    <glyph glyph-name="tcaron" unicode="&#x165;" horiz-adv-x="794" 
d="M720 1225q60 0 96 -40t36 -114q0 -131 -80 -233t-221 -138l-10 56q94 43 137 89t57 111q-152 10 -151 134q0 68 38 102t98 33zM156 860h-127l6 55q117 27 185 97t102 192h57v-272h194l-6 -72h-188v-651q0 -131 98 -131q47 0 135 18l-4 -65q-96 -61 -212 -61
q-240 -1 -240 249v641z" />
    <glyph glyph-name="Tbar" unicode="&#x166;" horiz-adv-x="1148" 
d="M840 1190h-148v-389h297v-72h-297v-598q0 -34 30 -46q11 -5 36 -11l94 -17l-6 -57h-543l4 57l82 15q37 8 53 20t17 39v598h-301v72h301v389h-152q-78 0 -108 -68l-82 -170l-66 15q-10 160 27 295h993q33 -135 27 -295l-70 -15l-80 170q-31 68 -108 68z" />
    <glyph glyph-name="tbar" unicode="&#x167;" horiz-adv-x="622" 
d="M160 860h-127l6 55q117 27 185 97t102 192h57v-272h195l-7 -72h-188v-211h172v-65h-172v-375q0 -131 98 -131q47 0 135 18l-4 -65q-96 -61 -212 -61q-240 -1 -240 249v365h-125v65h125v211z" />
    <glyph glyph-name="Utilde" unicode="&#x168;" horiz-adv-x="1310" 
d="M860 1534q72 0 84 65h64q2 -102 -38 -162q-76 -113 -273 -19q-87 42 -145 42t-73 -53h-67q2 92 49 149q47 58 113 58t151 -40q86 -40 135 -40zM1137 508q0 -270 -111 -404t-346 -135q-280 0 -392 124t-112 382v655q0 27 -16 39t-51 21l-62 14l6 58h498l-4 -58l-70 -16
q-45 -13 -56 -26t-11 -32v-718q0 -367 317 -367q338 0 338 451v634q0 27 -15 39t-51 21l-71 14l6 58h332l-6 -58l-54 -16q-4 -2 -12 -4t-12 -4t-12 -4t-10 -4q-3 -2 -8 -6q-15 -9 -15 -36v-622z" />
    <glyph glyph-name="utilde" unicode="&#x169;" horiz-adv-x="1114" 
d="M682 1255q76 0 90 68h57q7 -96 -35 -165q-75 -125 -264 -25q-80 43 -127 43q-71 0 -96 -74h-57q-2 96 48 164t114 68t145 -40q82 -39 125 -39zM154 752q0 57 -37 65l-80 23l6 55q152 43 272 55h39q20 -53 21 -139v-479q0 -140 38 -194q39 -54 119 -54t195 59v609
q0 57 -37 65l-82 23l6 55q158 43 277 55h37q20 -53 20 -141v-676q0 -47 45 -57l88 -17l-6 -49q-94 -23 -289 -33h-38q-16 31 -21 91q-170 -98 -295 -99q-279 0 -278 355v428z" />
    <glyph glyph-name="Umacron" unicode="&#x16a;" horiz-adv-x="1310" 
d="M463 1430v151h495v-151h-495zM1137 508q0 -270 -111 -404t-346 -135q-280 0 -392 124t-112 382v655q0 27 -16 39t-51 21l-62 14l6 58h498l-4 -58l-70 -16q-45 -13 -56 -26t-11 -32v-718q0 -367 317 -367q338 0 338 451v634q0 27 -15 39t-51 21l-71 14l6 58h332l-6 -58
l-54 -16q-4 -2 -12 -4t-12 -4t-12 -4t-10 -4q-3 -2 -8 -6q-15 -9 -15 -36v-622z" />
    <glyph glyph-name="umacron" unicode="&#x16b;" horiz-adv-x="1114" 
d="M254 1126v152h547v-152h-547zM154 752q0 57 -37 65l-80 23l6 55q152 43 272 55h39q20 -53 21 -139v-479q0 -140 38 -194q39 -54 119 -54t195 59v609q0 57 -37 65l-82 23l6 55q158 43 277 55h37q20 -53 20 -141v-676q0 -47 45 -57l88 -17l-6 -49q-94 -23 -289 -33h-38
q-16 31 -21 91q-170 -98 -295 -99q-279 0 -278 355v428z" />
    <glyph glyph-name="Ubreve" unicode="&#x16c;" horiz-adv-x="1310" 
d="M750 1528q86 0 145 41t76 94h73q-10 -129 -88 -208t-206 -79t-206 79q-79 79 -83 208h69q12 -51 74 -93q60 -42 146 -42zM1137 508q0 -270 -111 -404t-346 -135q-280 0 -392 124t-112 382v655q0 27 -16 39t-51 21l-62 14l6 58h498l-4 -58l-70 -16q-45 -13 -56 -26
t-11 -32v-718q0 -367 317 -367q338 0 338 451v634q0 27 -15 39t-51 21l-71 14l6 58h332l-6 -58l-54 -16q-4 -2 -12 -4t-12 -4t-12 -4t-10 -4q-3 -2 -8 -6q-15 -9 -15 -36v-622z" />
    <glyph glyph-name="ubreve" unicode="&#x16d;" horiz-adv-x="1114" 
d="M527 1239q79 0 136 46q56 46 72 108h68q4 -137 -75 -223t-199 -87q-121 1 -201 87t-76 223h70q14 -61 70 -107t135 -47zM154 752q0 57 -37 65l-80 23l6 55q152 43 272 55h39q20 -53 21 -139v-479q0 -140 38 -194q39 -54 119 -54t195 59v609q0 57 -37 65l-82 23l6 55
q158 43 277 55h37q20 -53 20 -141v-676q0 -47 45 -57l88 -17l-6 -49q-94 -23 -289 -33h-38q-16 31 -21 91q-170 -98 -295 -99q-279 0 -278 355v428z" />
    <glyph glyph-name="Uring" unicode="&#x16e;" horiz-adv-x="1310" 
d="M1137 508q0 -270 -111 -404t-346 -135q-280 0 -392 124t-112 382v655q0 27 -16 39t-51 21l-62 14l6 58h498l-4 -58l-70 -16q-45 -13 -56 -26t-11 -32v-718q0 -367 317 -367q338 0 338 451v634q0 27 -15 39t-51 21l-71 14l6 58h332l-6 -58l-54 -16q-4 -2 -12 -4t-12 -4
t-12 -4t-10 -4q-3 -2 -8 -6q-15 -9 -15 -36v-622zM641 1553q0 -51 31 -81t78 -30q46 0 78 31t32 83t-31 84q-31 31 -77 31t-78 -33q-33 -33 -33 -85zM747 1350q-99 0 -157 58t-58 149q0 90 62 149t156 59q96 0 157 -59t61 -148q0 -88 -60 -148q-62 -60 -161 -60z" />
    <glyph glyph-name="uring" unicode="&#x16f;" horiz-adv-x="1114" 
d="M530 1374q-48 0 -80 -33t-32 -85t32 -82t78 -29q47 0 79 31q32 32 32 84t-31 83t-78 31zM528 1468q96 0 158 -59t62 -148t-62 -149t-160 -59q-100 1 -158 59t-57 148t61 149t156 59zM154 752q0 57 -37 65l-80 23l6 55q152 43 272 55h39q20 -53 21 -139v-479
q0 -140 38 -194q39 -54 119 -54t195 59v609q0 57 -37 65l-82 23l6 55q158 43 277 55h37q20 -53 20 -141v-676q0 -47 45 -57l88 -17l-6 -49q-94 -23 -289 -33h-38q-16 31 -21 91q-170 -98 -295 -99q-279 0 -278 355v428z" />
    <glyph glyph-name="Uhungarumlaut" unicode="&#x170;" horiz-adv-x="1310" 
d="M1137 508q0 -270 -111 -404t-346 -135q-280 0 -392 124t-112 382v655q0 27 -16 39t-51 21l-62 14l6 58h498l-4 -58l-70 -16q-45 -13 -56 -26t-11 -32v-718q0 -367 317 -367q338 0 338 451v634q0 27 -15 39t-51 21l-71 14l6 58h332l-6 -58l-54 -16q-4 -2 -12 -4t-12 -4
t-12 -4t-10 -4q-3 -2 -8 -6q-15 -9 -15 -36v-622zM788 1378q29 184 97 310l176 -76l-182 -258zM510 1378q31 184 96 310l176 -76l-182 -258z" />
    <glyph glyph-name="uhungarumlaut" unicode="&#x171;" horiz-adv-x="1114" 
d="M336 1087q45 250 96 351l176 -76l-182 -299zM614 1087q41 246 99 351l176 -76l-184 -299zM154 752q0 57 -37 65l-80 23l6 55q152 43 272 55h39q20 -53 21 -139v-479q0 -140 38 -194q39 -54 119 -54t195 59v609q0 57 -37 65l-82 23l6 55q158 43 277 55h37q20 -53 20 -141
v-676q0 -47 45 -57l88 -17l-6 -49q-94 -23 -289 -33h-38q-16 31 -21 91q-170 -98 -295 -99q-279 0 -278 355v428z" />
    <glyph glyph-name="Uogonek" unicode="&#x172;" horiz-adv-x="1310" 
d="M1137 508q0 -453 -316 -524q-178 -74 -178 -203q0 -49 29 -80t79 -31t85 25l26 -39q-68 -68 -170 -68t-164 50t-61 133q0 129 166 200q-252 10 -354 133t-103 371v655q0 27 -16 39t-51 21l-62 14l6 58h498l-4 -58l-70 -16q-45 -13 -56 -26t-11 -32v-718q0 -367 317 -367
q338 0 338 451v634q0 27 -15 39t-51 21l-71 14l6 58h332l-6 -58l-54 -16q-4 -2 -12 -4t-12 -4t-12 -4t-10 -4q-3 -2 -8 -6q-15 -9 -15 -36v-622z" />
    <glyph glyph-name="uogonek" unicode="&#x173;" horiz-adv-x="1116" 
d="M856 -201q0 -49 29 -80t79 -31t85 25l26 -39q-68 -68 -170 -68t-164 51q-61 50 -61 132q0 123 149 193q-37 -4 -43 -5h-38q-16 31 -21 91q-170 -98 -295 -99q-279 0 -278 355v428q0 57 -37 65l-80 23l6 55q152 43 272 55h39q20 -53 21 -139v-479q0 -140 38 -194
q39 -54 119 -54t195 59v609q0 57 -37 65l-82 23l6 55q158 43 277 55h37q20 -53 20 -141v-676q0 -47 45 -57l88 -17l-6 -49l-37 -6q-182 -74 -182 -205z" />
    <glyph glyph-name="Wcircumflex" unicode="&#x174;" horiz-adv-x="1857" 
d="M727 1360l-43 55q119 137 248 213h65q139 -82 248 -213l-43 -55l-239 98zM463 0l-359 1118q-14 49 -59 64l-61 22l4 58h547l-5 -58l-124 -28q-61 -14 -39 -82l272 -883l254 762l-45 145q-14 47 -60 64l-61 22l4 58h547l-4 -58l-125 -28q-63 -14 -41 -82l274 -883l295 889
q25 68 -39 82l-131 22l4 58h379l-6 -58l-53 -20q-55 -20 -68 -62l-374 -1122h-183l-274 856l-287 -856h-182z" />
    <glyph glyph-name="wcircumflex" unicode="&#x175;" horiz-adv-x="1511" 
d="M487 1110q123 207 258 330h68q143 -137 258 -330l-49 -41l-244 188l-243 -188zM381 0l-279 803q-12 31 -22 42t-33 17l-45 12l4 58h469l-4 -55l-82 -15q-61 -10 -43 -67l148 -467q20 -66 43 -170l186 549l-33 96q-12 31 -22 42t-33 17l-45 12l4 58h469l-4 -55l-82 -15
q-61 -10 -43 -67l147 -467l41 -164l209 641q16 47 -26 53l-93 16l5 58h294l-4 -55l-39 -15q-51 -20 -67 -69l-264 -793h-168l-209 598l-211 -598h-168z" />
    <glyph glyph-name="Ycircumflex" unicode="&#x176;" horiz-adv-x="1150" 
d="M399 1360l-43 55q119 137 248 213h66q139 -82 248 -213l-44 -55l-239 98zM696 131q0 -32 30 -46q11 -5 36 -11l67 -17l-4 -57h-497l6 57l59 15q37 8 53 20t17 39v367l-350 610q-41 74 -72 82l-61 14l4 58h524l-4 -58l-96 -14q-57 -14 -31 -70l293 -510l282 504
q16 33 13 49q-4 16 -31 23l-125 18l6 58h371l-4 -58l-52 -10q-59 -10 -96 -80l-338 -600v-383z" />
    <glyph glyph-name="ycircumflex" unicode="&#x177;" 
d="M233 1110q123 207 259 330h67q143 -137 258 -330l-49 -41l-244 188l-243 -188zM92 -387v289l62 4l41 -189q3 -33 37 -27t92 40q58 33 100 96q41 63 80 174h-107l-293 803q-12 31 -22 42t-33 17l-47 12l4 58h467l-4 -55l-86 -17q-68 -10 -43 -67l168 -465l49 -178l234 655
q16 45 -27 53l-94 16l6 58h295l-6 -55l-39 -15q-49 -16 -68 -69l-307 -856q-117 -324 -459 -324z" />
    <glyph glyph-name="Ydieresis" unicode="&#x178;" horiz-adv-x="1150" 
d="M735 1505q0 133 133 133q61 0 99 -33q37 -34 37 -100q0 -67 -37 -101t-99 -34t-97 34q-36 34 -36 101zM315 1505q0 133 136 133q61 0 97 -34t36 -99q0 -67 -36 -101t-98 -34t-98 34t-37 101zM696 131q0 -32 30 -46q11 -5 36 -11l67 -17l-4 -57h-497l6 57l59 15
q37 8 53 20t17 39v367l-350 610q-41 74 -72 82l-61 14l4 58h524l-4 -58l-96 -14q-57 -14 -31 -70l293 -510l282 504q16 33 13 49q-4 16 -31 23l-125 18l6 58h371l-4 -58l-52 -10q-59 -10 -96 -80l-338 -600v-383z" />
    <glyph glyph-name="Zacute" unicode="&#x179;" horiz-adv-x="1103" 
d="M860 1462l-442 -92l-29 62q55 68 179 129t243 86zM1038 328q0 -186 -39 -328h-954l2 78l707 1112l-369 -4q-63 -2 -87 -20t-46 -66l-76 -146l-90 4q-10 168 29 304h925l-6 -66l-712 -1130l403 8q67 2 95 24t52 78l70 152h96z" />
    <glyph glyph-name="zacute" unicode="&#x17a;" horiz-adv-x="901" 
d="M719 1290l-313 -248l-54 39q59 195 219 344zM49 86l545 784l-236 -8q-92 -4 -145 -96l-63 -104h-64q10 152 47 270h696l-6 -94l-532 -777l272 9q96 2 146 90l65 119h68q-18 -160 -51 -279h-748z" />
    <glyph glyph-name="Zdotaccent" unicode="&#x17b;" horiz-adv-x="1103" 
d="M440 1516q0 133 133 133q61 0 99 -34q38 -33 37 -99q0 -66 -37 -101q-36 -35 -98 -35t-98 35t-36 101zM1038 328q0 -186 -39 -328h-954l2 78l707 1112l-369 -4q-63 -2 -87 -20t-46 -66l-76 -146l-90 4q-10 168 29 304h925l-6 -66l-712 -1130l403 8q67 2 95 24t52 78
l70 152h96z" />
    <glyph glyph-name="zdotaccent" unicode="&#x17c;" horiz-adv-x="901" 
d="M367 1228q0 62 34 95q35 33 95 33t94 -33q35 -33 35 -95t-35 -96t-94 -34t-95 34q-34 34 -34 96zM49 86l545 784l-236 -8q-92 -4 -145 -96l-63 -104h-64q10 152 47 270h696l-6 -94l-532 -777l272 9q96 2 146 90l65 119h68q-18 -160 -51 -279h-748z" />
    <glyph glyph-name="Zcaron" unicode="&#x17d;" horiz-adv-x="1103" 
d="M342 1649l236 -101l239 101l43 -58q-117 -137 -248 -213h-65q-129 78 -248 213zM1038 328q0 -186 -39 -328h-954l2 78l707 1112l-369 -4q-63 -2 -87 -20t-46 -66l-76 -146l-90 4q-10 168 29 304h925l-6 -66l-712 -1130l403 8q67 2 95 24t52 78l70 152h96z" />
    <glyph glyph-name="zcaron" unicode="&#x17e;" horiz-adv-x="901" 
d="M209 1391l47 41l244 -189l243 189l50 -41q-115 -193 -258 -330h-68q-135 123 -258 330zM49 86l545 784l-236 -8q-92 -4 -145 -96l-63 -104h-64q10 152 47 270h696l-6 -94l-532 -777l272 9q96 2 146 90l65 119h68q-18 -160 -51 -279h-748z" />
    <glyph glyph-name="longs" unicode="&#x17f;" horiz-adv-x="608" 
d="M174 932v86q0 186 100 286t261 101q161 0 264 -45q-12 -131 -64 -240h-80l-41 219q-25 6 -57 7q-160 0 -160 -308v-925q0 -31 25 -33l117 -23l-7 -57h-475l6 57l66 19q45 12 45 57v733h-108l6 66h102z" />
    <glyph glyph-name="uni018F" unicode="&#x18f;" horiz-adv-x="1357" 
d="M663 33q163 -1 258 155t101 404h-723q4 -242 102 -401q99 -158 262 -158zM633 1292q293 0 471 -172t178 -487t-170 -489t-454 -175t-459 189q-174 190 -160 504h983q-8 254 -112 410t-281 157q-211 0 -342 -129l-41 65q160 127 387 127z" />
    <glyph glyph-name="florin" unicode="&#x192;" horiz-adv-x="1144" 
d="M856 1337q-68 1 -119 -73t-63 -222l-12 -110h225l-13 -66h-219l-88 -835q-20 -195 -129 -307q-110 -112 -278 -113q-168 0 -262 76q8 119 59 213h102l33 -215q18 -7 74 -7t104 72t66 223l92 893h-127l12 66h123l6 63q20 190 131 300t277 110t272 -72q-10 -131 -69 -233
h-88l-41 227q-23 10 -68 10z" />
    <glyph glyph-name="uni01C4" unicode="&#x1c4;" horiz-adv-x="2445" 
d="M1688 1649l235 -101l240 101l43 -58q-117 -137 -248 -213h-66q-129 78 -247 213zM2380 328q0 -186 -39 -328h-955l3 78l706 1112l-369 -4q-63 -2 -87 -20t-46 -66l-75 -146l-91 4q-10 168 29 304h926l-6 -66l-713 -1130l403 8q68 2 96 24t52 78l70 152h96zM596 1190h-160
v-1118h160q190 0 310 144t120 410t-121 416q-121 148 -309 148zM203 131v999q1 27 -15 39t-51 21l-61 14l4 58h547q295 0 477 -169t182 -457t-181 -462t-470 -174h-561l6 57l55 15q46 15 57 27q11 13 11 32z" />
    <glyph glyph-name="uni01C5" unicode="&#x1c5;" horiz-adv-x="2252" 
d="M1550 1391l47 41l244 -189l244 189l49 -41q-115 -193 -258 -330h-68q-135 123 -258 330zM1399 86l545 784l-236 -8q-92 -4 -145 -96l-64 -104h-63q10 152 47 270h696l-6 -94l-533 -777l273 9q96 2 145 90l66 119h67q-18 -160 -51 -279h-747zM594 1190h-160v-1118h160
q190 0 310 144t120 410t-121 416q-121 148 -309 148zM201 1130q1 27 -15 39t-51 21l-61 14l4 58h547q295 0 477 -169t182 -457t-181 -462t-470 -174h-561l6 57l55 15q46 15 56 27q11 13 12 32v999z" />
    <glyph glyph-name="uni01C6" unicode="&#x1c6;" horiz-adv-x="2007" 
d="M1270 1391l47 41l244 -189l243 189l49 -41q-115 -193 -258 -330h-67q-135 123 -258 330zM537 63q76 0 161 56v725q-76 39 -163 39q-111 0 -162 -118q-51 -119 -51 -307t56 -292t159 -103zM1151 86l545 784l-236 -8q-92 -4 -145 -96l-64 -104h-63q10 152 47 270h696
l-6 -94l-532 -777l272 9q96 2 145 90l66 119h68q-18 -160 -52 -279h-747zM461 -31q-172 0 -281 126q-108 126 -108 366q0 239 118 369t299 131q92 0 209 -48v295q0 57 -36 66l-121 22l6 54q117 33 315 55h39q20 -53 21 -141v-1143q0 -35 39 -45l71 -19l-6 -55l-270 -25h-37
q-12 27 -19 72q-113 -80 -239 -80z" />
    <glyph glyph-name="uni01C7" unicode="&#x1c7;" horiz-adv-x="1622" 
d="M1432 68q0 -190 -109 -308t-324 -143l-14 57q59 27 88 44q29 16 64 54q61 65 61 242v1116q0 27 -15 39t-50 21l-62 14l6 58h484l-7 -58l-53 -16q-4 -2 -12 -4t-12 -4q-3 -2 -11 -4t-11 -4t-8 -6q-15 -9 -15 -36v-1062zM201 1130q1 27 -15 39t-51 21l-61 14l4 58h485
l-6 -58l-53 -16q-4 -2 -12 -4t-12 -4t-12 -4q-7 -2 -10 -4t-8 -6q-16 -10 -16 -36v-1058h268q78 0 99 47l104 241h96q2 -184 -47 -360h-882l6 57l55 15q46 15 56 27q11 13 12 32v999z" />
    <glyph glyph-name="uni01C8" unicode="&#x1c8;" horiz-adv-x="1548" 
d="M1302 1120q-64 0 -103 37q-38 37 -38 106t38 105t104 35q65 0 103 -36q38 -37 38 -105t-39 -105t-103 -37zM1417 55q0 -184 -102 -299t-314 -139l-18 57q76 33 114 61q39 27 69 97t30 182v738q0 57 -37 65l-78 23l6 55q152 43 273 55h37q20 -53 20 -141v-754zM201 1130
q1 27 -15 39t-51 21l-61 14l4 58h485l-6 -58l-53 -16q-4 -2 -12 -4t-12 -4t-12 -4q-7 -2 -10 -4t-8 -6q-16 -10 -16 -36v-1058h268q78 0 99 47l104 241h96q2 -184 -47 -360h-882l6 57l55 15q46 15 56 27q11 13 12 32v999z" />
    <glyph glyph-name="uni01C9" unicode="&#x1c9;" horiz-adv-x="1062" 
d="M160 1208q0 55 -37 66l-78 22l6 54q152 43 273 55h36q20 -53 21 -141v-1151q0 -31 25 -33l112 -23l-6 -57h-469l6 57l66 19q45 12 45 57v1075zM814 1120q-64 0 -102 37t-38 106t38 105t104 35q66 0 103 -36q37 -37 37 -105t-39 -105t-103 -37zM930 55q0 -184 -102 -299
t-314 -139l-18 57q76 33 114 61q38 27 68 97q31 70 31 182v738q0 57 -37 65l-78 23l6 55q152 43 272 55h37q20 -53 21 -141v-754z" />
    <glyph glyph-name="uni01CA" unicode="&#x1ca;" horiz-adv-x="1998" 
d="M1806 68q0 -190 -108 -309q-109 -118 -324 -142l-14 57q59 27 88 44q30 16 64 54q62 67 61 242v1116q0 27 -15 39t-51 21l-61 14l6 58h483l-6 -58l-53 -16q-4 -2 -12 -4t-12 -4t-12 -4q-7 -2 -10 -4q-4 -2 -14 -9q-10 -6 -10 -33v-1062zM272 133q0 -33 41 -47q6 -2 29 -8
l82 -21l-6 -57h-346l6 57l55 19q42 10 54 24q13 14 14 33v1028q-55 37 -119 43l4 58h332l725 -1045v911q0 31 -33 44q-12 5 -39 12l-78 20l4 58h346l-4 -58l-57 -18q-35 -8 -51 -20t-17 -38v-1128h-219l-723 1059v-926z" />
    <glyph glyph-name="uni01CB" unicode="&#x1cb;" horiz-adv-x="1927" 
d="M1821 1262q1 -68 -39 -105t-104 -37t-102 37t-38 106t38 105t104 35q66 0 103 -36q38 -37 38 -105zM1794 55q0 -184 -102 -299t-314 -139l-18 57q76 33 114 61q38 27 68 97t31 182v738q0 57 -37 65l-78 23l6 55q152 43 273 55h37q20 -53 20 -141v-754zM270 133
q0 -33 41 -47q6 -2 29 -8l82 -21l-6 -57h-346l6 57l55 19q42 10 54 24q13 14 14 33v1028q-55 37 -119 43l4 58h332l725 -1045v911q0 30 -33 44q-12 5 -39 12l-78 20l4 58h346l-4 -58l-57 -18q-35 -8 -51 -20t-17 -38v-1128h-219l-723 1059v-926z" />
    <glyph glyph-name="uni01CC" unicode="&#x1cc;" horiz-adv-x="1654" 
d="M1408 1120q-64 0 -102 37t-38 106t38 105t104 35q66 0 102 -36q38 -37 38 -105t-39 -105t-103 -37zM1524 55q0 -184 -102 -299t-314 -139l-18 57q76 33 114 61q38 27 68 97q31 70 31 182v738q0 57 -37 65l-78 23l6 55q152 43 272 55h37q20 -53 21 -141v-754zM176 752
q0 57 -37 65l-78 23l7 55q152 43 272 55h39q16 -41 20 -125q57 43 93 66t96 47q61 24 117 23q268 0 268 -322v-526q0 -27 26 -33l109 -23l-6 -57h-481l6 57l80 19q45 10 45 57v492q0 119 -33 165t-114 46t-206 -84v-639q0 -31 25 -33l119 -23l-6 -57h-478l7 57l65 19
q45 12 45 57v619z" />
    <glyph glyph-name="uni01EA" unicode="&#x1ea;" horiz-adv-x="1394" 
d="M700 33q168 0 265 166q96 166 96 430t-95 432q-96 168 -264 168t-268 -165t-100 -426t99 -433t267 -172zM698 -412q-102 0 -163 50t-62 133q0 131 170 200q-258 17 -414 189q-155 172 -155 475t174 480t451 177t449 -173t173 -471q0 -298 -137 -468t-371 -203
q-164 -70 -164 -196q0 -49 29 -80t79 -31t85 25l26 -39q-68 -68 -170 -68z" />
    <glyph glyph-name="uni01EB" unicode="&#x1eb;" horiz-adv-x="1062" 
d="M526 33q224 0 224 431t-222 431q-213 0 -213 -431t211 -431zM512 -412q-102 0 -164 50t-61 133q0 133 174 202q-187 19 -289 147t-102 352t120 356q121 132 338 132t342 -132q125 -134 125 -351t-98 -345t-274 -155q-160 -74 -160 -196q0 -49 29 -80q28 -31 78 -31t85 25
l27 -39q-68 -68 -170 -68z" />
    <glyph glyph-name="uni01F1" unicode="&#x1f1;" horiz-adv-x="2445" 
d="M2380 328q0 -186 -39 -328h-955l3 78l706 1112l-369 -4q-63 -2 -87 -20t-46 -66l-75 -146l-91 4q-10 168 29 304h926l-6 -66l-713 -1130l403 8q68 2 96 24t52 78l70 152h96zM596 1190h-160v-1118h160q190 0 310 144t120 410t-121 416q-121 148 -309 148zM203 131v999
q1 27 -15 39t-51 21l-61 14l4 58h547q295 0 477 -169t182 -457t-181 -462t-470 -174h-561l6 57l55 15q46 15 57 27q11 13 11 32z" />
    <glyph glyph-name="uni01F2" unicode="&#x1f2;" horiz-adv-x="2254" 
d="M1401 86l545 784l-236 -8q-92 -4 -145 -96l-64 -104h-63q10 152 47 270h696l-6 -94l-533 -777l273 9q96 2 145 90l66 119h67q-18 -160 -51 -279h-747zM596 1190h-160v-1118h160q190 0 310 144t120 410t-121 416q-121 148 -309 148zM203 131v999q1 27 -15 39t-51 21
l-61 14l4 58h547q295 0 477 -169t182 -457t-181 -462t-470 -174h-561l6 57l55 15q46 15 57 27q11 13 11 32z" />
    <glyph glyph-name="uni01F3" unicode="&#x1f3;" horiz-adv-x="2007" 
d="M537 63q76 0 161 56v725q-76 39 -163 39q-111 0 -162 -118q-51 -119 -51 -307t56 -292t159 -103zM1151 86l545 784l-236 -8q-92 -4 -145 -96l-64 -104h-63q10 152 47 270h696l-6 -94l-532 -777l272 9q96 2 145 90l66 119h68q-18 -160 -52 -279h-747zM461 -31
q-172 0 -281 126q-108 126 -108 366q0 239 118 369t299 131q92 0 209 -48v295q0 57 -36 66l-121 22l6 54q117 33 315 55h39q20 -53 21 -141v-1143q0 -35 39 -45l71 -19l-6 -55l-270 -25h-37q-12 27 -19 72q-113 -80 -239 -80z" />
    <glyph glyph-name="uni01F4" unicode="&#x1f4;" horiz-adv-x="1337" 
d="M799 1227q-217 0 -342 -160q-125 -161 -125 -439t117 -436t325 -157q115 0 172 41v317q0 45 -55 58l-103 20l7 57h508l-7 -57l-75 -27q-41 -16 -41 -51v-297q-164 -127 -456 -127t-472 174t-180 473q0 300 188 488t488 188t456 -137q-12 -117 -61 -219h-96l-64 256
q-61 35 -184 35zM995 1462l-442 -92l-29 62q55 68 179 129t243 86z" />
    <glyph glyph-name="uni01F5" unicode="&#x1f5;" horiz-adv-x="1026" 
d="M750 1298l-314 -247l-53 39q59 195 219 344zM483 381q86 0 129 70q43 69 43 185t-45 190t-130 73q-85 0 -129 -74q-44 -75 -44 -189t45 -184t131 -71zM788 -131q0 41 -32 69q-33 28 -97 27h-313q-61 0 -121 33q-80 -70 -80 -149t79 -123t240 -43q161 0 243 51
q81 51 81 135zM76 639q0 139 104 230t304 91t315 -108q86 70 194 119q0 -84 -20 -172l-115 -27q29 -61 29 -137q-1 -139 -105 -226t-299 -87q-72 0 -143 16q-45 -39 -45 -94q0 -63 80 -64h317q115 0 185 -61t69 -170q0 -145 -127 -241t-345 -95t-323 65t-105 168t138 179
q-51 47 -51 127q0 113 148 202q-205 80 -205 285z" />
    <glyph glyph-name="uni01FA" unicode="&#x1fa;" horiz-adv-x="1198" 
d="M481 1424q0 -52 31 -82t78 -29t79 31q31 30 31 83t-30 84q-31 31 -77 31t-79 -33t-33 -85zM827 1757l-442 -92l-29 61q56 68 180 129t242 87zM510 1079l-205 -569h406zM373 1430q0 88 61 147q60 59 156 59t158 -59t61 -147q0 -127 -109 -183l392 -1095q23 -61 65 -74
l66 -21l-6 -57h-558l7 57l114 17q79 14 56 84l-99 280h-456l-103 -284q-23 -61 45 -76l137 -21l-4 -57h-391l4 57l70 21q41 12 59 63l394 1098q-119 47 -119 191z" />
    <glyph glyph-name="uni01FB" unicode="&#x1fb;" horiz-adv-x="962" 
d="M457 1153q47 0 79 31t32 84t-31 84q-31 30 -78 30t-80 -32t-33 -85q0 -52 32 -82t79 -30zM698 1620l-442 -92l-29 61q55 68 179 129t243 86zM424 74q76 0 168 67v367q-289 -39 -289 -264q0 -170 121 -170zM240 1268q0 90 60 149t156 59t158 -58q62 -60 62 -149t-62 -149
t-160 -59q-99 0 -157 58q-57 59 -57 149zM63 204q0 197 162 274q152 74 367 91v21q0 156 -38 232t-140 75q-68 0 -131 -18l-52 -217h-75q-41 88 -56 221q162 78 336 78t276 -85t101 -272v-454q0 -55 45 -56l82 2l-4 -59l-191 -62q-111 0 -145 99q-135 -104 -262 -104
t-201 64q-74 66 -74 170z" />
    <glyph glyph-name="uni01FC" unicode="&#x1fc;" horiz-adv-x="1613" 
d="M1305 1462l-443 -92l-28 62q55 68 179 129t242 86zM725 541v575l-330 -575h330zM725 131v340h-371l-180 -317q-27 -61 45 -76l141 -21l-4 -57h-395l4 57l55 17q39 8 68 67l590 1033l-133 30l4 58h944q25 -123 12 -291h-84l-78 164q-25 55 -106 55h-279v-504h240
q45 0 59 43l46 121h77l-18 -399h-70l-41 129q-14 35 -55 34h-238v-542h310q78 0 98 47l82 172h90q6 -176 -25 -291h-915l4 57l55 15q46 15 57 27q11 13 11 32z" />
    <glyph glyph-name="uni01FD" unicode="&#x1fd;" horiz-adv-x="1488" 
d="M936 1290l-313 -248l-54 39q59 195 219 344zM1020 903q-70 0 -120 -79t-62 -246l338 14q-23 311 -156 311zM430 74q84 0 227 116q-66 121 -65 267v51q-156 -33 -222 -92t-67 -180q0 -80 36 -121t91 -41zM834 506v-35q0 -182 70 -295t212 -113q80 0 141 38t127 116l39 -29
q-131 -219 -387 -219q-219 0 -346 166q-176 -166 -364 -166q-117 1 -190 63t-73 179q0 261 364 334q71 14 165 26v19q0 156 -38 232t-140 75q-63 0 -131 -23l-52 -212h-75q-41 90 -56 212q168 86 343 86t280 -122q117 123 309 123q192 -1 291 -135q100 -134 100 -320h-589z
" />
    <glyph glyph-name="uni01FE" unicode="&#x1fe;" horiz-adv-x="1392" 
d="M956 1462l-442 -92l-29 62q55 68 179 129t243 86zM708 33q160 0 257 166q96 165 96 397t-55 379l-560 -795q102 -147 262 -147zM334 660q0 -240 69 -402l564 803q-97 168 -265 168t-268 -165q-100 -164 -100 -404zM700 -31q-190 0 -340 86l-145 -207h-98l176 252
q-219 176 -219 507t174 508t452 177q211 0 359 -98l147 209h101l-183 -260q197 -177 197 -501t-170 -498t-451 -175z" />
    <glyph glyph-name="uni01FF" unicode="&#x1ff;" horiz-adv-x="1067" 
d="M791 1298l-314 -247l-53 39q59 195 219 344zM315 463q0 -133 21 -223l366 524q-57 131 -174 131q-213 0 -213 -432zM526 33q223 0 224 428q0 133 -25 233l-369 -526q53 -135 170 -135zM528 -31q-154 0 -262 68l-131 -189h-72l156 224q-149 132 -149 378t120 378
q121 132 338 133q152 0 263 -70l133 188h71l-155 -223q156 -134 156 -378t-126 -376q-125 -132 -342 -133z" />
    <glyph glyph-name="uni0200" unicode="&#x200;" horiz-adv-x="1196" 
d="M569 1620l146 135q160 -150 219 -344l-53 -41zM219 1620l148 135q162 -154 219 -344l-54 -41zM510 1079l-205 -569h406zM836 158l-99 280h-456l-103 -284q-23 -61 45 -76l137 -21l-4 -57h-391l4 57l70 21q41 12 59 63l402 1121h196l396 -1110q23 -61 65 -74l66 -21
l-6 -57h-558l7 57l114 17q79 14 56 84z" />
    <glyph glyph-name="uni0201" unicode="&#x201;" horiz-adv-x="962" 
d="M424 1317l147 133q158 -147 217 -342l-51 -41zM76 1317l145 133q160 -145 219 -342l-53 -41zM424 74q76 0 168 67v367q-289 -39 -289 -264q0 -170 121 -170zM63 204q0 197 162 274q152 74 367 91v21q0 156 -38 232t-140 75q-68 0 -131 -18l-52 -217h-75q-41 88 -56 221
q162 78 336 78t276 -85t101 -272v-454q0 -55 45 -56l82 2l-4 -59l-191 -62q-111 0 -145 99q-135 -104 -262 -104t-201 64q-74 66 -74 170z" />
    <glyph glyph-name="uni0202" unicode="&#x202;" horiz-adv-x="1196" 
d="M591 1663q128 0 206 -79t88 -208h-74q-15 53 -75 94t-145 41t-147 -42t-73 -93h-70q4 127 83 207t207 80zM510 1079l-205 -569h406zM836 158l-99 280h-456l-103 -284q-23 -61 45 -76l137 -21l-4 -57h-391l4 57l70 21q41 12 59 63l402 1121h196l396 -1110q23 -61 65 -74
l66 -21l-6 -57h-558l7 57l114 17q79 14 56 84z" />
    <glyph glyph-name="uni0203" unicode="&#x203;" horiz-adv-x="962" 
d="M488 1393q120 0 200 -86t74 -224h-68q-14 61 -70 107t-136 47q-80 -1 -136 -47q-55 -46 -69 -107h-72q-4 137 77 223q80 86 200 87zM424 74q76 0 168 67v367q-289 -39 -289 -264q0 -170 121 -170zM63 204q0 197 162 274q152 74 367 91v21q0 156 -38 232t-140 75
q-68 0 -131 -18l-52 -217h-75q-41 88 -56 221q162 78 336 78t276 -85t101 -272v-454q0 -55 45 -56l82 2l-4 -59l-191 -62q-111 0 -145 99q-135 -104 -262 -104t-201 64q-74 66 -74 170z" />
    <glyph glyph-name="uni0204" unicode="&#x204;" horiz-adv-x="1089" 
d="M508 1620l145 135q160 -150 219 -344l-53 -41zM158 1620l147 135q162 -154 219 -344l-53 -41zM203 131v999q1 27 -15 39t-51 21l-61 14l4 58h891q25 -123 12 -291h-86l-76 164q-25 55 -106 55h-279v-504h240q45 0 59 43l45 121h78l-18 -399h-70l-43 129q-10 35 -53 34
h-238v-542h303q76 0 97 47l90 172h90q6 -152 -33 -291h-909l6 57l55 15q46 15 57 27q11 13 11 32z" />
    <glyph glyph-name="uni0205" unicode="&#x205;" 
d="M446 1317l148 133q158 -147 217 -342l-51 -41zM98 1317l146 133q160 -145 219 -342l-53 -41zM496 903q-68 0 -119 -80t-64 -245l340 14q-22 311 -157 311zM899 506h-590v-35q0 -182 71 -295t212 -113q82 0 143 38t127 116l39 -29q-131 -219 -387 -219q-196 0 -318 136
q-122 137 -126 355t113 359q118 141 318 141t299 -132q99 -134 99 -322z" />
    <glyph glyph-name="uni0206" unicode="&#x206;" horiz-adv-x="1089" 
d="M550 1663q128 0 206 -79t88 -208h-74q-16 53 -76 94t-144 41t-146 -42t-74 -93h-70q4 127 83 207t207 80zM203 131v999q1 27 -15 39t-51 21l-61 14l4 58h891q25 -123 12 -291h-86l-76 164q-25 55 -106 55h-279v-504h240q45 0 59 43l45 121h78l-18 -399h-70l-43 129
q-10 35 -53 34h-238v-542h303q76 0 97 47l90 172h90q6 -152 -33 -291h-909l6 57l55 15q46 15 57 27q11 13 11 32z" />
    <glyph glyph-name="uni0207" unicode="&#x207;" 
d="M496 903q-68 0 -119 -80t-64 -245l340 14q-22 311 -157 311zM488 1393q120 0 200 -86t74 -224h-68q-14 61 -70 107t-136 47q-80 -1 -136 -47q-55 -46 -69 -107h-72q-4 137 77 223q80 86 200 87zM899 506h-590v-35q0 -182 71 -295t212 -113q82 0 143 38t127 116l39 -29
q-131 -219 -387 -219q-196 0 -318 136q-122 137 -126 355t113 359q118 141 318 141t299 -132q99 -134 99 -322z" />
    <glyph glyph-name="uni0208" unicode="&#x208;" horiz-adv-x="643" 
d="M315 1620l146 135q160 -150 219 -344l-53 -41zM-35 1620l148 135q162 -154 219 -344l-53 -41zM205 1130q1 27 -15 39t-51 21l-61 14l4 58h485l-6 -58l-53 -16q-4 -2 -12 -4t-12 -4t-12 -4q-7 -2 -10 -4t-8 -6q-16 -10 -16 -36v-999q0 -27 18 -37t22 -11q5 -1 28 -9
l59 -17l-4 -57h-485l6 57l55 15q46 15 57 27q11 13 11 32v999z" />
    <glyph glyph-name="uni0209" unicode="&#x209;" horiz-adv-x="567" 
d="M250 1317l147 133q158 -147 217 -342l-51 -41zM-98 1317l145 133q160 -145 219 -342l-53 -41zM176 752q0 57 -37 65l-78 23l7 55q152 43 272 55h37q20 -53 20 -141v-696q0 -31 25 -33l113 -23l-7 -57h-469l7 57l65 19q45 12 45 57v619z" />
    <glyph glyph-name="uni020A" unicode="&#x20a;" horiz-adv-x="638" 
d="M318 1663q128 0 206 -79t88 -208h-73q-15 53 -75 94t-146 41t-146 -42q-62 -42 -74 -93h-69q4 127 83 207q78 80 206 80zM203 1130q1 27 -15 39t-51 21l-61 14l4 58h485l-6 -58l-53 -16q-4 -2 -12 -4t-12 -4t-12 -4q-7 -2 -10 -4t-8 -6q-16 -10 -16 -36v-999
q0 -27 18 -37t22 -11q5 -1 28 -9l59 -17l-4 -57h-485l6 57l55 15q46 15 57 27q11 13 11 32v999z" />
    <glyph glyph-name="uni020B" unicode="&#x20b;" horiz-adv-x="565" 
d="M176 752q0 57 -37 65l-78 23l7 55q152 43 272 55h37q20 -53 20 -141v-696q0 -31 25 -33l113 -23l-7 -57h-469l7 57l65 19q45 12 45 57v619zM270 1393q120 0 199 -86q80 -86 74 -224h-68q-15 61 -71 107t-136 47q-80 -1 -136 -47t-69 -107h-71q-4 137 77 223t201 87z" />
    <glyph glyph-name="uni020C" unicode="&#x20c;" horiz-adv-x="1394" 
d="M700 33q168 0 265 166q96 166 96 430t-95 432q-96 168 -264 168t-268 -165t-100 -426t99 -433t267 -172zM700 -31q-282 0 -454 173q-172 172 -172 484t174 489t451 177t449 -173t173 -487q0 -314 -170 -488t-451 -175zM627 1620l145 135q160 -150 219 -344l-53 -41z
M276 1620l148 135q162 -154 219 -344l-53 -41z" />
    <glyph glyph-name="uni020D" unicode="&#x20d;" horiz-adv-x="1064" 
d="M526 33q224 0 224 431t-222 431q-213 0 -213 -431t211 -431zM528 -31q-217 0 -338 130q-120 129 -120 363t120 366q121 132 338 132t342 -132q125 -134 125 -364t-125 -362t-342 -133zM483 1317l148 133q158 -147 217 -342l-51 -41zM135 1317l146 133q160 -145 219 -342
l-54 -41z" />
    <glyph glyph-name="uni020E" unicode="&#x20e;" horiz-adv-x="1394" 
d="M700 33q168 0 265 166q96 166 96 430t-95 432q-96 168 -264 168t-268 -165t-100 -426t99 -433t267 -172zM700 -31q-282 0 -454 173q-172 172 -172 484t174 489t451 177t449 -173t173 -487q0 -314 -170 -488t-451 -175zM693 1663q128 0 206 -79t88 -208h-74q-16 53 -75 94
q-58 41 -144 41t-148 -42t-73 -93h-70q4 127 83 207t207 80z" />
    <glyph glyph-name="uni020F" unicode="&#x20f;" horiz-adv-x="1064" 
d="M526 33q224 0 224 431t-222 431q-213 0 -213 -431t211 -431zM528 -31q-217 0 -338 130q-120 129 -120 363t120 366q121 132 338 132t342 -132q125 -134 125 -364t-125 -362t-342 -133zM532 1393q120 0 199 -86q80 -86 74 -224h-68q-14 61 -70 107q-57 46 -137 47
q-80 -1 -135 -47t-69 -107h-72q-4 137 77 223t201 87z" />
    <glyph glyph-name="uni0210" unicode="&#x210;" horiz-adv-x="1206" 
d="M530 1620l146 135q160 -150 219 -344l-53 -41zM180 1620l148 135q162 -154 219 -344l-53 -41zM575 1190h-139v-600h164q121 0 177 84t57 217q-1 299 -259 299zM203 1130q1 27 -15 39t-51 21l-61 14l4 58h493q249 0 389 -92t140 -277q0 -125 -71 -215t-195 -131l161 -307
q37 -74 80 -118t113 -65l-8 -57h-138q-119 0 -172 32t-108 144l-162 342h-166v-387q0 -27 16 -39t52 -18l104 -17l-6 -57h-528l6 57l55 15q46 15 57 27q11 13 11 32v999z" />
    <glyph glyph-name="uni0211" unicode="&#x211;" horiz-adv-x="835" 
d="M410 1317l147 133q158 -147 217 -342l-51 -41zM61 1317l146 133q160 -145 219 -342l-53 -41zM176 752q0 57 -37 65l-78 23l7 55q152 43 272 55h39q14 -39 18 -108q137 119 262 119q80 0 154 -52q-8 -129 -63 -252h-76l-35 181q-31 12 -57 12q-100 0 -183 -86v-651
q0 -31 25 -33l139 -23l-6 -57h-498l7 57l65 19q45 12 45 57v619z" />
    <glyph glyph-name="uni0212" unicode="&#x212;" horiz-adv-x="1206" 
d="M572 1663q128 0 206 -79t88 -208h-73q-15 53 -75 94t-146 41t-146 -42q-62 -42 -74 -93h-69q4 127 83 207q78 80 206 80zM575 1190h-139v-600h164q121 0 177 84t57 217q-1 299 -259 299zM203 1130q1 27 -15 39t-51 21l-61 14l4 58h493q249 0 389 -92t140 -277
q0 -125 -71 -215t-195 -131l161 -307q37 -74 80 -118t113 -65l-8 -57h-138q-119 0 -172 32t-108 144l-162 342h-166v-387q0 -27 16 -39t52 -18l104 -17l-6 -57h-528l6 57l55 15q46 15 57 27q11 13 11 32v999z" />
    <glyph glyph-name="uni0213" unicode="&#x213;" horiz-adv-x="833" 
d="M440 1393q120 0 199 -86q80 -86 74 -224h-68q-15 61 -71 107t-136 47q-80 -1 -136 -47t-69 -107h-71q-4 137 77 223t201 87zM176 752q0 57 -37 65l-78 23l7 55q152 43 272 55h39q14 -39 18 -108q137 119 262 119q80 0 154 -52q-8 -129 -63 -252h-76l-35 181
q-31 12 -57 12q-100 0 -183 -86v-651q0 -31 25 -33l139 -23l-6 -57h-498l7 57l65 19q45 12 45 57v619z" />
    <glyph glyph-name="uni0214" unicode="&#x214;" horiz-adv-x="1310" 
d="M1137 508q0 -270 -111 -404t-346 -135q-280 0 -392 124t-112 382v655q0 27 -16 39t-51 21l-62 14l6 58h498l-4 -58l-70 -16q-45 -13 -56 -26t-11 -32v-718q0 -367 317 -367q338 0 338 451v634q0 27 -15 39t-51 21l-71 14l6 58h332l-6 -58l-54 -16q-4 -2 -12 -4t-12 -4
t-12 -4t-10 -4q-3 -2 -8 -6q-15 -9 -15 -36v-622zM647 1620l146 135q160 -150 219 -344l-54 -41zM297 1620l147 135q162 -154 220 -344l-54 -41z" />
    <glyph glyph-name="uni0215" unicode="&#x215;" horiz-adv-x="1114" 
d="M479 1317l148 133q158 -147 217 -342l-51 -41zM131 1317l145 133q160 -145 220 -342l-54 -41zM154 752q0 57 -37 65l-80 23l6 55q152 43 272 55h39q20 -53 21 -139v-479q0 -140 38 -194q39 -54 119 -54t195 59v609q0 57 -37 65l-82 23l6 55q158 43 277 55h37
q20 -53 20 -141v-676q0 -47 45 -57l88 -17l-6 -49q-94 -23 -289 -33h-38q-16 31 -21 91q-170 -98 -295 -99q-279 0 -278 355v428z" />
    <glyph glyph-name="uni0216" unicode="&#x216;" horiz-adv-x="1310" 
d="M730 1663q128 0 206 -79t88 -208h-74q-16 53 -76 94t-144 41t-146 -42t-74 -93h-70q4 127 83 207t207 80zM1137 508q0 -270 -111 -404t-346 -135q-280 0 -392 124t-112 382v655q0 27 -16 39t-51 21l-62 14l6 58h498l-4 -58l-70 -16q-45 -13 -56 -26t-11 -32v-718
q0 -367 317 -367q338 0 338 451v634q0 27 -15 39t-51 21l-71 14l6 58h332l-6 -58l-54 -16q-4 -2 -12 -4t-12 -4t-12 -4t-10 -4q-3 -2 -8 -6q-15 -9 -15 -36v-622z" />
    <glyph glyph-name="uni0217" unicode="&#x217;" horiz-adv-x="1114" 
d="M554 1393q120 0 200 -86t73 -224h-67q-14 61 -70 107t-137 47q-79 -1 -135 -47t-70 -107h-72q-4 137 77 223t201 87zM154 752q0 57 -37 65l-80 23l6 55q152 43 272 55h39q20 -53 21 -139v-479q0 -140 38 -194q39 -54 119 -54t195 59v609q0 57 -37 65l-82 23l6 55
q158 43 277 55h37q20 -53 20 -141v-676q0 -47 45 -57l88 -17l-6 -49q-94 -23 -289 -33h-38q-16 31 -21 91q-170 -98 -295 -99q-279 0 -278 355v428z" />
    <glyph glyph-name="uni0218" unicode="&#x218;" horiz-adv-x="1005" 
d="M645 -256q0 -130 -80 -232t-221 -139l-10 56q94 43 137 89t57 111q-152 10 -151 133q0 135 135 136q61 0 97 -39t36 -115zM476 33q126 0 179 57t51 137q-3 141 -220 271q-91 55 -181 115q-91 61 -155 149t-66 194q-2 156 117 246t309 90q104 0 218 -24t177 -64
q-4 -147 -47 -252h-92l-66 256q-51 18 -168 18q-116 0 -168 -62t-50 -143t66 -153q65 -72 155 -126t181 -110t154 -138t66 -183q4 -160 -125 -251t-334 -91q-117 0 -233 29t-187 78q0 142 39 248h94l76 -258q84 -33 210 -33z" />
    <glyph glyph-name="uni0219" unicode="&#x219;" horiz-adv-x="872" 
d="M299 -238q0 135 135 136q61 0 97 -39t36 -115q0 -130 -80 -232t-221 -139l-10 56q94 43 137 89t58 111q-152 10 -152 133zM592 170q0 55 -51 98t-125 79t-148 78t-125 109t-51 150q0 123 97 200t281 77t310 -87q-10 -109 -55 -202h-76l-45 207q-57 20 -135 20t-119 -37
t-41 -99q0 -61 51 -113t125 -89t148 -76t125 -98t51 -135q0 -133 -110 -208t-283 -75q-229 0 -357 107q15 110 60 200h78l39 -219q68 -31 162 -31t145 45q49 44 49 99z" />
    <glyph glyph-name="uni021A" unicode="&#x21a;" horiz-adv-x="1136" 
d="M692 -256q0 -130 -80 -232t-221 -139l-10 56q94 43 137 89t57 111q-152 10 -151 133q0 135 135 136q61 0 97 -39t36 -115zM834 1190h-148v-1059q0 -34 30 -46q11 -5 36 -11l94 -17l-6 -57h-543l4 57l82 15q37 8 53 20t17 39v1059h-152q-78 0 -108 -68l-82 -170l-66 15
q-10 160 27 295h993q33 -135 27 -295l-70 -15l-80 170q-31 68 -108 68z" />
    <glyph glyph-name="uni021B" unicode="&#x21b;" horiz-adv-x="618" 
d="M156 860h-127l6 55q117 27 185 97t102 192h57v-272h194l-6 -72h-188v-651q0 -131 98 -131q47 0 135 18l-4 -65q-96 -61 -212 -61q-240 -1 -240 249v641zM463 -256q0 -130 -80 -232t-221 -139l-10 56q94 43 137 89t57 111q-152 10 -151 133q0 135 135 136q61 0 97 -39
t36 -115z" />
    <glyph glyph-name="uni0259" unicode="&#x259;" horiz-adv-x="968" 
d="M473 27q68 1 118 79t62 246l-338 -14q23 -311 158 -311zM657 422v37q0 180 -69 293q-70 113 -211 112q-81 0 -143 -38t-128 -115l-38 28q131 221 387 222q197 -1 319 -137t125 -354q4 -218 -114 -359q-117 -141 -317 -141t-300 132q-100 133 -100 320h589z" />
    <glyph glyph-name="circumflex" unicode="&#x2c6;" horiz-adv-x="677" 
d="M37 1110q123 207 258 330h67q143 -137 259 -330l-50 -41l-243 188l-244 -188z" />
    <glyph glyph-name="caron" unicode="&#x2c7;" horiz-adv-x="677" 
d="M47 1391l47 41l244 -189l244 189l49 -41q-115 -193 -258 -330h-68q-135 123 -258 330z" />
    <glyph glyph-name="breve" unicode="&#x2d8;" horiz-adv-x="673" 
d="M329 1239q79 0 135 46t73 108h67q4 -137 -75 -223t-199 -87q-120 1 -200 87q-81 86 -77 223h70q15 -61 71 -107t135 -47z" />
    <glyph glyph-name="dotaccent" unicode="&#x2d9;" horiz-adv-x="389" 
d="M70 1228q0 62 34 95t94 33t95 -33t35 -95t-35 -96t-94 -34t-95 34q-34 34 -34 96z" />
    <glyph glyph-name="ring" unicode="&#x2da;" horiz-adv-x="512" 
d="M147 1256q0 -52 32 -82t79 -29q47 0 79 31q32 32 32 84t-31 83t-78 31t-80 -33t-33 -85zM41 1260q0 90 60 149q61 59 157 59t158 -59t61 -148q0 -89 -61 -149q-60 -60 -160 -59q-100 0 -158 58q-57 59 -57 149z" />
    <glyph glyph-name="ogonek" unicode="&#x2db;" horiz-adv-x="587" 
d="M278 -412q-102 0 -163 50t-61 143q0 92 92 149q93 57 270 101l12 -39q-199 -74 -199 -211q0 -49 29 -80t79 -31t85 25l27 -39q-69 -68 -171 -68z" />
    <glyph glyph-name="tilde" unicode="&#x2dc;" horiz-adv-x="667" 
d="M473 1255q76 0 90 68h58q6 -96 -36 -165q-43 -68 -113 -68t-151 43t-126 43q-72 0 -97 -74h-57q-2 96 48 164q49 68 113 68t146 -40q82 -39 125 -39z" />
    <glyph glyph-name="hungarumlaut" unicode="&#x2dd;" horiz-adv-x="595" 
d="M336 1087q41 246 98 351l176 -76l-184 -299zM57 1087q45 250 97 351l176 -76l-183 -299z" />
    <glyph glyph-name="uni03BC" unicode="&#x3bc;" horiz-adv-x="1122" 
d="M162 752q0 57 -37 65l-80 23l6 55q152 43 273 55h38q20 -53 21 -139v-508q2 -123 40 -171q37 -48 117 -48t195 59v609q0 57 -37 65l-82 23l7 55q158 43 276 55h37q20 -53 20 -141v-676q0 -47 45 -57l89 -17l-7 -49q-94 -23 -288 -33h-39q-16 31 -21 91q-170 -98 -295 -99
q-20 0 -57 4v-313l-221 -47v1139z" />
    <glyph glyph-name="pi" unicode="&#x3c0;" horiz-adv-x="1138" 
d="M340 0h-156v889h-153v135h1083v-135h-166v-889h-153v889h-455v-889z" />
    <glyph glyph-name="uni0401" unicode="&#x401;" horiz-adv-x="1089" 
d="M627 1505q0 133 133 133q61 0 98 -34t37 -99q0 -67 -37 -101t-98 -34t-97 34t-36 101zM207 1505q0 133 135 133q61 0 97 -34t36 -99q0 -67 -36 -101t-98 -34t-98 34t-36 101zM203 131v999q1 27 -15 39t-51 21l-61 14l4 58h891q25 -123 12 -291h-86l-76 164
q-25 55 -106 55h-279v-504h240q45 0 59 43l45 121h78l-18 -399h-70l-43 129q-10 35 -53 34h-238v-542h303q76 0 97 47l90 172h90q6 -152 -33 -291h-909l6 57l55 15q46 15 57 27q11 13 11 32z" />
    <glyph glyph-name="uni0402" unicode="&#x402;" horiz-adv-x="1382" 
d="M834 1190h-148v-447q129 37 223 37q217 0 323 -109q105 -110 105 -287t-106 -327t-285 -215l-28 45q160 121 159 512q0 143 -56 225t-163 81q-76 0 -172 -31v-543q0 -34 30 -46q11 -5 36 -11l94 -17l-6 -57h-543l4 57l82 15q37 8 53 20t17 39v1059h-152q-78 0 -108 -68
l-82 -170l-66 15q-10 160 27 295h993q33 -135 27 -295l-70 -15l-80 170q-31 68 -108 68z" />
    <glyph glyph-name="uni0403" unicode="&#x403;" horiz-adv-x="968" 
d="M406 1352l-62 84l311 258l107 -162zM203 131v999q1 27 -15 39t-51 21l-61 14l4 58h819q33 -135 27 -295l-70 -15l-80 170q-31 68 -108 68h-232v-1059q0 -33 32 -46q11 -5 36 -11l86 -17l-6 -57h-510l6 57l55 15q46 15 57 27q11 13 11 32z" />
    <glyph glyph-name="uni0404" unicode="&#x404;" horiz-adv-x="1218" 
d="M733 -31q-305 0 -482 161t-177 491q0 331 189 501t481 170t436 -108q-10 -150 -64 -248h-94l-66 262q-68 31 -194 31q-180 1 -296 -147t-124 -408h522v-70h-522q8 -298 129 -433q121 -134 283 -134q118 0 200 32t160 99l37 -49q-164 -150 -418 -150z" />
    <glyph glyph-name="uni0405" unicode="&#x405;" horiz-adv-x="1007" 
d="M476 33q126 0 179 57t51 137q-3 141 -220 271q-91 55 -181 115q-91 61 -155 149t-66 194q-2 156 117 246t309 90q104 0 218 -24t177 -64q-4 -147 -47 -252h-92l-66 256q-51 18 -168 18q-116 0 -168 -62t-50 -143t66 -153q65 -72 155 -126t181 -110t154 -138t66 -183
q4 -160 -125 -251t-334 -91q-117 0 -233 29t-187 78q0 142 39 248h94l76 -258q84 -33 210 -33z" />
    <glyph glyph-name="uni0406" unicode="&#x406;" horiz-adv-x="638" 
d="M203 1130q1 27 -15 39t-51 21l-61 14l4 58h485l-6 -58l-53 -16q-4 -2 -12 -4t-12 -4t-12 -4q-7 -2 -10 -4t-8 -6q-16 -10 -16 -36v-999q0 -27 18 -37t22 -11q5 -1 28 -9l59 -17l-4 -57h-485l6 57l55 15q46 15 57 27q11 13 11 32v999z" />
    <glyph glyph-name="uni0407" unicode="&#x407;" horiz-adv-x="638" 
d="M395 1505q0 133 133 133q61 0 99 -33q37 -34 37 -100q0 -67 -37 -101t-99 -34t-97 34q-36 34 -36 101zM-25 1505q0 133 136 133q61 0 97 -34t36 -99q0 -67 -36 -101t-98 -34t-98 34t-37 101zM203 1130q1 27 -15 39t-51 21l-61 14l4 58h485l-6 -58l-53 -16q-4 -2 -12 -4
t-12 -4t-12 -4q-7 -2 -10 -4t-8 -6q-16 -10 -16 -36v-999q0 -27 18 -37t22 -11q5 -1 28 -9l59 -17l-4 -57h-485l6 57l55 15q46 15 57 27q11 13 11 32v999z" />
    <glyph glyph-name="uni0408" unicode="&#x408;" horiz-adv-x="612" 
d="M422 68q0 -190 -109 -308t-323 -143l-15 57q59 27 88 44q29 16 64 54q61 65 61 242v1116q0 27 -15 39t-50 21l-62 14l7 58h483l-6 -58l-53 -16q-4 -2 -12 -4t-13 -4q-4 -2 -11 -4q-6 -2 -10 -4t-9 -6q-15 -9 -15 -36v-1062z" />
    <glyph glyph-name="uni0409" unicode="&#x409;" horiz-adv-x="1687" 
d="M1122 645h-96v-575h96q258 0 258 299q0 139 -59 208q-60 68 -199 68zM795 131v1059h-344q-26 -917 -224 -1144q-55 -62 -125 -77q-86 66 -125 174l39 47l35 -26q18 -14 47 -14q80 0 136 114t90 344q34 229 38 506q0 53 -81 70l-70 20l6 58h938l-6 -58l-53 -16
q-4 -2 -12 -4t-13 -4q-4 -2 -11 -4t-10 -4q-2 -2 -8 -6q-16 -8 -16 -36v-417h125q250 0 371 -90q120 -90 120 -260q0 -171 -132 -267t-355 -96h-491l8 57l55 15q46 15 57 28t11 31z" />
    <glyph glyph-name="uni040A" unicode="&#x40a;" horiz-adv-x="1884" 
d="M1317 645h-94v-575h94q260 0 260 290q0 141 -60 213q-61 72 -200 72zM989 1130q0 27 -15 39t-50 21l-64 14l6 58h484l-7 -58l-51 -16q-10 -6 -28 -10t-19 -6q-2 -2 -7 -6q-15 -9 -15 -36v-417h123q250 -1 370 -95t121 -263q0 -169 -132 -262t-355 -93h-490l6 57l54 15
q46 14 57 27q12 13 12 32v492h-553v-492q0 -27 18 -37t22 -11q5 -1 28 -9l59 -17l-4 -57h-485l6 57l55 15q46 15 57 27q11 13 11 32v999q1 27 -15 39t-51 21l-61 14l4 58h485l-6 -58l-53 -16q-4 -2 -12 -4t-12 -4t-12 -4q-7 -2 -10 -4t-8 -6q-16 -10 -16 -36v-436h553v436z
" />
    <glyph glyph-name="uni040B" unicode="&#x40b;" horiz-adv-x="1447" 
d="M1077 131v307q0 138 -41 190t-125 52t-225 -59v-490q0 -34 30 -46q11 -5 36 -11l84 -17l-7 -57h-532l4 57l82 15q37 8 53 20t17 39v1059h-152q-78 0 -108 -68l-82 -170l-66 15q-10 160 27 295h993q33 -135 27 -295l-70 -15l-80 170q-31 68 -108 68h-148v-494
q172 88 322 88q303 0 303 -295v-358q0 -32 31 -46q11 -5 36 -11l68 -17l-6 -57h-504l6 57l66 15q37 8 53 20t16 39z" />
    <glyph glyph-name="uni040C" unicode="&#x40c;" horiz-adv-x="1239" 
d="M952 1462l-442 -92l-29 62q55 68 179 129t243 86zM203 1130q1 27 -15 39t-51 21l-61 14l4 58h485l-6 -58l-53 -16q-4 -2 -12 -4t-12 -4t-12 -4q-7 -2 -10 -4t-8 -6q-16 -10 -16 -36v-483l488 483q22 25 16 41t-33 21l-94 12l4 58h389l-4 -58l-94 -20q-41 -12 -100 -72
l-308 -305l396 -604q80 -119 168 -146l-4 -57h-320l-416 631l-88 -88v-412q0 -27 18 -37t22 -11q5 -1 28 -9l59 -17l-4 -57h-485l6 57l55 15q46 15 57 27q11 13 11 32v999z" />
    <glyph glyph-name="uni040E" unicode="&#x40e;" horiz-adv-x="1097" 
d="M642 1528q85 0 144 41t76 94h74q-10 -129 -88 -208t-206 -79t-207 79t-83 208h70q12 -51 74 -93t146 -42zM999 1122l-319 -764q-141 -334 -420 -389q-92 63 -137 168l49 49q74 -61 137 -61q150 4 238 133l-422 856q-27 57 -66 70l-69 20l6 58h534l-6 -58l-112 -26
q-33 -8 -40 -22t7 -46l285 -602l251 596q14 35 8 53q-7 18 -40 27l-111 20l6 58h359l-7 -58l-47 -16q-64 -19 -84 -66z" />
    <glyph glyph-name="uni040F" unicode="&#x40f;" horiz-adv-x="1419" 
d="M201 1130q1 27 -15 39t-51 21l-61 14l4 58h485l-6 -58l-53 -16q-4 -2 -12 -4t-12 -4t-12 -4q-7 -2 -10 -4t-8 -6q-16 -10 -16 -36v-1058h551v1058q0 27 -15 39t-50 21l-64 14l6 58h484l-5 -58l-53 -16q-10 -6 -28 -10t-19 -6q-2 -2 -7 -6q-15 -9 -15 -36v-999
q0 -32 29 -45q9 -4 36 -12l62 -17l-7 -57h-481q-41 0 -60 -23t-30 -81l-27 -189h-61l-27 193q-16 100 -84 100h-497l6 57l55 15q46 15 56 27q11 13 12 32v999z" />
    <glyph glyph-name="uni0410" unicode="&#x410;" horiz-adv-x="1204" 
d="M512 1079l-205 -569h406zM838 158l-99 280h-456l-103 -284q-23 -61 45 -76l137 -21l-4 -57h-391l4 57l70 21q41 12 59 63l402 1121h196l396 -1110q23 -61 65 -74l66 -21l-6 -57h-557l6 57l114 17q79 14 56 84z" />
    <glyph glyph-name="uni0411" unicode="&#x411;" horiz-adv-x="1101" 
d="M530 645h-94v-575h94q260 0 261 290q0 141 -61 213t-200 72zM203 1130q1 27 -15 39t-51 21l-61 14l4 58h827q33 -135 27 -295l-70 -15l-80 170q-31 68 -108 68h-240v-477h125q248 -1 370 -95t122 -263t-133 -262t-357 -93h-489l6 57l55 15q46 15 57 27q11 13 11 32v999z
" />
    <glyph glyph-name="uni0412" unicode="&#x412;" horiz-adv-x="1173" 
d="M770 965q0 225 -199 225h-135v-483h142q98 -1 145 73t47 185zM575 635h-139v-563h166q246 0 246 274q0 123 -67 206t-206 83zM203 131v999q1 27 -15 39t-51 21l-61 14l4 58h522q198 0 314 -73t116 -216q0 -94 -61 -180t-199 -119q170 -31 253 -120t83 -204
q0 -162 -119 -256t-321 -94h-594l6 57l55 15q46 15 57 27q11 13 11 32z" />
    <glyph glyph-name="uni0413" unicode="&#x413;" horiz-adv-x="968" 
d="M203 131v999q1 27 -15 39t-51 21l-61 14l4 58h819q33 -135 27 -295l-70 -15l-80 170q-31 68 -108 68h-232v-1059q0 -33 32 -46q11 -5 36 -11l86 -17l-6 -57h-510l6 57l55 15q46 15 57 27q11 13 11 32z" />
    <glyph glyph-name="uni0414" unicode="&#x414;" horiz-adv-x="1224" 
d="M780 72v1118h-286q-27 -606 -236 -1118h522zM1018 1128v-1056h121q27 -168 8 -365h-62l-51 199q-14 54 -34 74t-64 20h-703q-43 0 -60 -17t-32 -69l-55 -207h-61q-19 183 10 365h135q113 274 173 559t63 477q0 25 -14 39t-28 18q-13 4 -57 17l-80 22l6 58h916l-6 -56
l-51 -16q-31 -10 -41 -14q-33 -13 -33 -48z" />
    <glyph glyph-name="uni0415" unicode="&#x415;" horiz-adv-x="1089" 
d="M203 131v999q1 27 -15 39t-51 21l-61 14l4 58h891q25 -123 12 -291h-86l-76 164q-25 55 -106 55h-279v-504h240q45 0 59 43l45 121h78l-18 -399h-70l-43 129q-10 35 -53 34h-238v-542h303q76 0 97 47l90 172h90q6 -152 -33 -291h-909l6 57l55 15q46 15 57 27q11 13 11 32
z" />
    <glyph glyph-name="uni0416" unicode="&#x416;" horiz-adv-x="1839" 
d="M805 1130q-1 27 -17 39t-51 21l-61 14l6 58h483l-6 -58l-53 -16q-8 -4 -27 -8q-41 -9 -41 -50v-483l488 483q22 25 16 41t-33 21l-96 12l6 58h389l-6 -58l-92 -20q-45 -12 -100 -72l-307 -307l395 -602q76 -117 168 -146l-6 -57h-318l-416 631l-88 -88v-412q0 -32 30 -45
q9 -4 36 -12l61 -17l-6 -57h-483l6 57l53 15q47 14 59 27q11 13 11 32v410l-90 90l-416 -631h-328l6 57q90 27 166 146l396 602l-306 307q-59 59 -102 72l-92 20l4 58h391l-6 -58l-94 -12q-27 -4 -34 -20t15 -42l490 -485v485z" />
    <glyph glyph-name="uni0417" unicode="&#x417;" horiz-adv-x="1013" 
d="M429 1229q-89 0 -138 -27l-53 -252h-101q-43 84 -47 219q129 123 389 123q180 0 297 -83t117 -226q0 -113 -89 -208t-263 -111q187 -23 293 -114t106 -224q2 -170 -128 -264t-339 -93q-287 0 -428 127q12 141 61 221h97l45 -254q63 -31 194 -31t188 90q56 90 55 204
t-92 204t-265 97l4 61q166 28 234 98t71 196q5 126 -71 200q-48 46 -137 47z" />
    <glyph glyph-name="uni0418" unicode="&#x418;" horiz-adv-x="1423" 
d="M203 1130q1 27 -15 39t-51 21l-61 14l4 58h485l-6 -58l-53 -16q-4 -2 -12 -4t-12 -4t-12 -4q-7 -2 -10 -4t-8 -6q-16 -10 -16 -36v-946l551 1078h361l-7 -58l-51 -16q-10 -6 -28 -10t-19 -6q-2 -2 -7 -6q-15 -9 -15 -36v-999q0 -32 29 -45q9 -4 36 -12l62 -17l-7 -57
h-483l6 57l54 15q46 14 57 27q12 13 12 32v948l-551 -1079h-362l6 57l55 15q46 15 57 27q11 13 11 32v999z" />
    <glyph glyph-name="uni0419" unicode="&#x419;" horiz-adv-x="1423" 
d="M750 1528q86 0 145 41t76 94h73q-10 -129 -88 -208t-206 -79t-206 79q-79 79 -83 208h69q12 -51 74 -93q60 -42 146 -42zM203 1130q1 27 -15 39t-51 21l-61 14l4 58h485l-6 -58l-53 -16q-4 -2 -12 -4t-12 -4t-12 -4q-7 -2 -10 -4t-8 -6q-16 -10 -16 -36v-946l551 1078
h361l-7 -58l-51 -16q-10 -6 -28 -10t-19 -6q-2 -2 -7 -6q-15 -9 -15 -36v-999q0 -32 29 -45q9 -4 36 -12l62 -17l-7 -57h-483l6 57l54 15q46 14 57 27q12 13 12 32v948l-551 -1079h-362l6 57l55 15q46 15 57 27q11 13 11 32v999z" />
    <glyph glyph-name="uni041A" unicode="&#x41a;" horiz-adv-x="1239" 
d="M203 1130q1 27 -15 39t-51 21l-61 14l4 58h485l-6 -58l-53 -16q-4 -2 -12 -4t-12 -4t-12 -4q-7 -2 -10 -4t-8 -6q-16 -10 -16 -36v-483l488 483q22 25 16 41t-33 21l-94 12l4 58h389l-4 -58l-94 -20q-41 -12 -100 -72l-308 -305l396 -604q80 -119 168 -146l-4 -57h-320
l-416 631l-88 -88v-412q0 -27 18 -37t22 -11q5 -1 28 -9l59 -17l-4 -57h-485l6 57l55 15q46 15 57 27q11 13 11 32v999z" />
    <glyph glyph-name="uni041B" unicode="&#x41b;" horiz-adv-x="1228" 
d="M98 150q80 0 136 114t90 344q34 229 38 506q0 53 -81 70l-70 20l6 58h938l-6 -58l-53 -16q-4 -2 -12 -4t-13 -4q-4 -2 -11 -4t-10 -4q-2 -2 -8 -6q-16 -8 -16 -36v-999q0 -27 18 -37t22 -11q5 -1 28 -9l61 -17l-6 -57h-483l6 57l53 15q47 14 58 27t12 32v1059h-344
q-26 -917 -224 -1144q-55 -62 -125 -77q-86 66 -125 174l39 47l35 -26q18 -14 47 -14z" />
    <glyph glyph-name="uni041C" unicode="&#x41c;" horiz-adv-x="1671" 
d="M272 133q0 -33 41 -47q6 -2 29 -8l82 -21l-6 -57h-346l6 57l53 19q44 11 57 24q12 14 13 33v1028l-15 6q-10 16 -96 37l4 58h334l418 -1063l432 1063h321l-6 -58q-57 -12 -123 -30v-1043q0 -26 18 -37q18 -10 22 -11q5 -1 28 -9l61 -17l-6 -57h-483l4 57l55 15
q46 15 57 27q11 13 11 32v838l-393 -969h-168q-303 754 -404 1012v-879z" />
    <glyph glyph-name="uni041D" unicode="&#x41d;" horiz-adv-x="1423" 
d="M203 1130q1 27 -15 39t-51 21l-61 14l4 58h485l-6 -58l-53 -16q-4 -2 -12 -4t-12 -4t-12 -4q-7 -2 -10 -4t-8 -6q-16 -10 -16 -36v-436h553v436q0 27 -16 39t-51 21l-62 14l6 58h484l-7 -58l-53 -16q-4 -2 -12 -4t-12 -4t-12 -4t-10 -4q-3 -2 -8 -6q-15 -9 -15 -36v-999
q0 -27 17 -37q16 -10 22 -11t28 -9l62 -17l-7 -57h-483l6 57l54 15q46 14 57 27q12 13 12 32v492h-553v-492q0 -27 18 -37t22 -11q5 -1 28 -9l59 -17l-4 -57h-485l6 57l55 15q46 15 57 27q11 13 11 32v999z" />
    <glyph glyph-name="uni041E" unicode="&#x41e;" horiz-adv-x="1394" 
d="M700 33q168 0 265 166q96 166 96 430t-95 432q-96 168 -264 168t-268 -165t-100 -426t99 -433t267 -172zM700 -31q-282 0 -454 173q-172 172 -172 484t174 489t451 177t449 -173t173 -487q0 -314 -170 -488t-451 -175z" />
    <glyph glyph-name="uni041F" unicode="&#x41f;" horiz-adv-x="1406" 
d="M203 1130q1 27 -15 39t-51 21l-61 14l4 58h1253l-8 -58l-51 -16q-4 -2 -12 -4t-12 -4t-12 -4q-7 -2 -10 -4t-8 -6q-16 -10 -16 -36v-999q0 -27 18 -37t22 -11q5 -1 28 -9l61 -17l-6 -57h-483l4 57l55 15q46 15 57 27q11 13 11 32v1059h-535v-1059q0 -27 18 -37t22 -11
q5 -1 28 -9l59 -17l-4 -57h-485l6 57l55 15q46 15 57 27q11 13 11 32v999z" />
    <glyph glyph-name="uni0420" unicode="&#x420;" horiz-adv-x="1116" 
d="M541 1190h-105v-629h131q121 0 176 90t56 234q0 305 -258 305zM203 1130q1 27 -15 39t-51 21l-61 14l4 58h473q242 0 378 -92t136 -283q0 -189 -132 -293t-353 -105h-146v-358q0 -47 68 -57l121 -17l-7 -57h-544l6 57l55 15q46 15 57 27q11 13 11 32v999z" />
    <glyph glyph-name="uni0421" unicode="&#x421;" horiz-adv-x="1222" 
d="M741 -31q-305 0 -486 163t-181 478q0 314 188 498t464 184t454 -123q-16 -141 -62 -233h-96l-64 256q-72 37 -188 37q-196 0 -316 -165q-120 -164 -120 -440t118 -434t312 -157q96 0 164 24l102 246h103q25 -145 -11 -264q-154 -70 -381 -70z" />
    <glyph glyph-name="uni0422" unicode="&#x422;" horiz-adv-x="1136" 
d="M834 1190h-148v-1059q0 -34 30 -46q11 -5 36 -11l94 -17l-6 -57h-543l4 57l82 15q37 8 53 20t17 39v1059h-152q-78 0 -108 -68l-82 -170l-66 15q-10 160 27 295h993q33 -135 27 -295l-70 -15l-80 170q-31 68 -108 68z" />
    <glyph glyph-name="uni0423" unicode="&#x423;" horiz-adv-x="1097" 
d="M999 1122l-319 -764q-141 -334 -420 -389q-92 63 -137 168l49 49q74 -61 137 -61q150 4 238 133l-422 856q-27 57 -66 70l-69 20l6 58h534l-6 -58l-112 -26q-33 -8 -40 -22t7 -46l285 -602l251 596q14 35 8 53q-7 18 -40 27l-111 20l6 58h359l-7 -58l-47 -16
q-64 -19 -84 -66z" />
    <glyph glyph-name="uni0424" unicode="&#x424;" horiz-adv-x="1564" 
d="M1270 629q0 156 -98 257t-273 128v-772q171 29 271 130t100 257zM295 628q0 -159 99 -259t272 -127v774q-174 -27 -272 -128t-99 -260zM666 1130q0 27 -16 39t-50 21l-61 14l4 58h485l-6 -58l-53 -16q-5 -2 -13 -4t-12 -4t-11 -4t-10 -4l-9 -6q-16 -8 -15 -36v-55
q285 -20 458 -133q173 -112 173 -310t-176 -314t-455 -136v-51q-1 -27 17 -37t23 -11t28 -9l59 -17l-4 -57h-485l6 57l53 15q47 14 58 27t12 32v51q-281 18 -456 132t-175 315t173 313t458 133v55z" />
    <glyph glyph-name="uni0425" unicode="&#x425;" horiz-adv-x="1206" 
d="M430 1124l236 -370l268 360q41 55 -8 68l-107 22l6 58h379l-6 -58l-63 -14q-61 -12 -109 -76l-319 -426l344 -536q33 -51 90 -74l61 -21l-6 -57h-534l4 57l92 17q55 12 14 76l-252 393l-272 -389q-45 -70 24 -80l129 -17l-6 -57h-403l6 57l72 15q39 6 92 84l317 452
l-317 502q-41 66 -78 74l-74 20l4 58h539l-4 -58l-84 -18q-66 -17 -35 -62z" />
    <glyph glyph-name="uni0426" unicode="&#x426;" horiz-adv-x="1423" 
d="M201 1130q1 27 -15 39t-51 21l-61 14l4 58h485l-6 -58l-53 -16q-4 -2 -12 -4t-12 -4t-12 -4q-7 -2 -10 -4t-8 -6q-16 -10 -16 -36v-1058h553v1058q0 27 -16 39t-51 21l-62 14l6 58h484l-7 -58l-53 -16q-4 -2 -12 -4t-12 -4t-12 -4t-10 -4q-3 -2 -8 -6q-15 -9 -15 -36
v-1058h122q27 -188 9 -365h-62l-51 199q-13 54 -33 74t-65 20h-1067l6 57l55 15q46 15 56 27q11 13 12 32v999z" />
    <glyph glyph-name="uni0427" unicode="&#x427;" horiz-adv-x="1265" 
d="M829 1130q0 27 -15 39t-50 21l-62 14l5 58h485l-6 -58l-53 -16q-9 -4 -27 -9q-18 -4 -20 -7q-3 -3 -8 -6q-15 -9 -15 -36v-999q0 -34 31 -45q10 -4 36 -12l60 -17l-4 -57h-533l6 57l101 15q70 14 69 59v463q-195 -123 -360 -123q-322 0 -322 307v352q0 29 -10 40t-39 20
l-75 14l6 58h497l-6 -58l-67 -16q-44 -13 -56 -26t-12 -32v-292q0 -146 47 -200t151 -54t246 73v473z" />
    <glyph glyph-name="uni0428" unicode="&#x428;" horiz-adv-x="1953" 
d="M862 1130q0 27 -15 39t-50 21l-62 14l4 58h484l-4 -58l-54 -16q-9 -6 -27 -10t-20 -6t-7 -6q-15 -9 -15 -36v-1058h424v1058q0 27 -16 39t-52 21l-61 14l6 58h483l-6 -58l-53 -16q-5 -2 -13 -4t-12 -4t-11 -4t-10 -4l-9 -6q-16 -8 -15 -36v-999q-1 -27 17 -37t23 -11
t28 -9l61 -17l-6 -57h-1800l6 57l55 15q46 15 57 27q11 13 11 32v999q1 27 -15 39t-51 21l-61 14l4 58h485l-6 -58l-53 -16q-4 -2 -12 -4t-12 -4t-12 -4q-7 -2 -10 -4t-8 -6q-16 -10 -16 -36v-1058h426v1058z" />
    <glyph glyph-name="uni0429" unicode="&#x429;" horiz-adv-x="1953" 
d="M1518 1130q0 27 -16 39t-52 21l-61 14l6 58h483l-6 -58l-53 -16q-5 -2 -13 -4t-12 -4t-11 -4t-10 -4l-9 -6q-16 -8 -15 -36v-1058h123q23 -178 8 -365h-61l-52 199q-14 54 -33 74t-65 20h-1597l6 57l55 15q46 15 56 27q11 13 12 32v999q1 27 -15 39t-51 21l-61 14l4 58
h485l-6 -58l-53 -16q-4 -2 -12 -4t-12 -4t-12 -4q-7 -2 -10 -4t-8 -6q-16 -10 -16 -36v-1058h426v1058q0 27 -15 39t-50 21l-62 14l4 58h484l-4 -58l-54 -16q-9 -6 -27 -10t-20 -6t-7 -6q-15 -9 -15 -36v-1058h424v1058z" />
    <glyph glyph-name="uni042A" unicode="&#x42a;" horiz-adv-x="1345" 
d="M778 645h-94v-575h94q260 0 260 290q0 141 -60 213q-61 72 -200 72zM684 1130v-417h123q250 -1 371 -95q120 -94 120 -263t-132 -262t-355 -93h-489l6 57l55 15q46 15 56 27q11 13 12 32v1059h-152q-78 0 -109 -68l-81 -170l-66 15q-10 160 27 295h764l-7 -58l-75 -16
q-44 -13 -56 -26t-12 -32z" />
    <glyph glyph-name="uni042B" unicode="&#x42b;" horiz-adv-x="1708" 
d="M530 645h-94v-575h94q260 0 261 290q0 141 -61 213t-200 72zM1272 1130q0 27 -16 39t-50 21l-61 14l4 58h485l-6 -58l-53 -16q-4 -2 -12 -4q-9 -2 -13 -4t-11 -4t-10 -4t-8 -6q-16 -10 -16 -36v-999q-1 -27 17 -37t23 -11t28 -9l59 -17l-4 -57h-485l6 57l55 15
q46 15 57 27q11 13 11 32v999zM563 0h-489l6 57l55 15q46 15 57 27q11 13 11 32v999q1 27 -15 39t-51 21l-61 14l4 58h485l-6 -58l-53 -16q-4 -2 -12 -4t-12 -4t-12 -4q-7 -2 -10 -4t-8 -6q-16 -10 -16 -36v-417h125q248 -1 370 -95t122 -263q1 -169 -133 -262t-357 -93z
" />
    <glyph glyph-name="uni042C" unicode="&#x42c;" horiz-adv-x="1097" 
d="M530 645h-94v-575h94q260 0 261 290q0 141 -61 213t-200 72zM563 0h-489l6 57l55 15q46 15 57 27q11 13 11 32v999q1 27 -15 39t-51 21l-61 14l4 58h485l-6 -58l-53 -16q-4 -2 -12 -4t-12 -4t-12 -4q-7 -2 -10 -4t-8 -6q-16 -10 -16 -36v-417h125q248 -1 370 -95
t122 -263q1 -169 -133 -262t-357 -93z" />
    <glyph glyph-name="uni042D" unicode="&#x42d;" horiz-adv-x="1218" 
d="M465 37q168 0 286 140t126 427h-521v70h521q-8 260 -124 407t-296 148q-125 0 -193 -31l-67 -262h-93q-55 96 -65 248q145 108 436 108t480 -171t189 -501t-176 -490q-177 -161 -483 -161q-253 0 -417 150l38 49q78 -70 160 -100t199 -31z" />
    <glyph glyph-name="uni042E" unicode="&#x42e;" horiz-adv-x="2007" 
d="M1316 33q169 0 263 165t94 430t-96 433t-264 168t-267 -165q-100 -165 -100 -426t100 -433t270 -172zM199 1130q1 27 -15 39t-51 21l-61 14l6 58h483l-6 -58l-53 -16q-4 -2 -12 -4t-13 -4q-4 -2 -11 -4t-10 -4q-2 -2 -8 -6q-16 -8 -16 -36v-436h256q20 283 192 441
q172 157 443 157q270 0 440 -173t170 -487t-172 -488q-173 -174 -453 -175q-280 0 -451 173t-171 481h-254v-492q0 -27 18 -37t22 -11q5 -1 28 -9l61 -17l-6 -57h-483l6 57l53 15q37 10 52 21t16 38v999z" />
    <glyph glyph-name="uni042F" unicode="&#x42f;" horiz-adv-x="1185" 
d="M377 897q0 -131 56 -213t177 -82h140v588h-115q-258 0 -258 -293zM981 1130v-999q0 -27 16 -39t54 -20l63 -15l-4 -57h-526l4 57l94 17q68 14 68 57v399h-140l-164 -354q-51 -116 -106 -146t-174 -30h-148l5 57q67 21 105 63t77 120l162 321q-119 41 -188 131t-68 209
q0 168 143 264t383 97h477l-4 -58l-61 -14q-35 -8 -51 -20t-17 -40z" />
    <glyph glyph-name="uni0430" unicode="&#x430;" horiz-adv-x="962" 
d="M424 74q76 0 168 67v367q-289 -39 -289 -264q0 -170 121 -170zM63 204q0 197 162 274q152 74 367 91v21q0 156 -38 232t-140 75q-68 0 -131 -18l-52 -217h-75q-41 88 -56 221q162 78 336 78t276 -85t101 -272v-454q0 -55 45 -56l82 2l-4 -59l-191 -62q-111 0 -145 99
q-135 -104 -262 -104t-201 64q-74 66 -74 170z" />
    <glyph glyph-name="uni0431" unicode="&#x431;" horiz-adv-x="1099" 
d="M346 420q0 -170 55 -278t165 -109q110 0 162 109q52 110 52 279t-52 277t-162 109q-110 0 -165 -109q-55 -108 -55 -278zM582 872q202 0 326 -124t124 -327q0 -202 -130 -327t-339 -125t-339 165q-130 166 -128 444t108 444t345 211q35 6 107 13q72 6 118 14q45 8 93 32
t71 66h43q0 -135 -81 -216t-289 -119t-300 -134q-91 -97 -118 -273l8 -2q115 258 381 258z" />
    <glyph glyph-name="uni0432" unicode="&#x432;" horiz-adv-x="999" 
d="M631 691q0 77 -39 124t-123 47h-70v-350h45q96 0 142 51q45 51 45 128zM444 444h-45v-374h105q197 0 196 194q0 180 -256 180zM866 715q0 -91 -49 -153t-135 -77q102 -5 178 -71t76 -148q0 -122 -101 -194t-303 -72h-471l7 57l65 19q45 12 45 57v666q0 45 -45 57l-76 18
l6 58h455q166 0 257 -63t91 -154z" />
    <glyph glyph-name="uni0433" unicode="&#x433;" horiz-adv-x="829" 
d="M176 133v666q0 45 -45 57l-74 18l4 58h693q37 -139 26 -287l-65 -10l-45 133q-31 94 -113 94h-158v-749q0 -31 25 -33l123 -23l-6 -57h-482l7 57l65 19q45 12 45 57z" />
    <glyph glyph-name="uni0434" unicode="&#x434;" horiz-adv-x="1062" 
d="M651 70v792h-235q-10 -395 -180 -792h415zM336 776q0 41 -11 54t-53 24l-102 20l6 58h828l-7 -58l-69 -18q-55 -12 -56 -59v-727h121q29 -186 8 -363h-63l-49 199q-13 54 -33 74t-65 20h-547q-42 0 -60 -17t-32 -69l-58 -207h-61q-21 177 14 363h109q180 387 180 706z
" />
    <glyph glyph-name="uni0435" unicode="&#x435;" 
d="M496 903q-68 0 -119 -80t-64 -245l340 14q-22 311 -157 311zM899 506h-590v-35q0 -182 71 -295t212 -113q82 0 143 38t127 116l39 -29q-131 -219 -387 -219q-196 0 -318 136q-122 137 -126 355t113 359q118 141 318 141t299 -132q99 -134 99 -322z" />
    <glyph glyph-name="uni0436" unicode="&#x436;" horiz-adv-x="1556" 
d="M666 799q0 45 -45 57l-76 18l6 58h459l-4 -58l-88 -20q-31 -10 -31 -35v-350l366 350q35 33 -2 41l-94 14l6 58h342l-4 -58l-84 -18q-39 -12 -104 -74l-189 -180l283 -405q53 -74 85 -104t77 -36l-4 -57h-293l-307 449l-78 -76v-260q0 -31 24 -33l113 -23l-6 -57h-469
l6 57l66 19q45 12 45 57v240l-80 76l-305 -449h-293l6 57q78 12 151 140l281 405l-186 180q-66 61 -105 74l-84 18v58h344v-58l-94 -14q-35 -8 -2 -41l367 -350v330z" />
    <glyph glyph-name="uni0437" unicode="&#x437;" horiz-adv-x="870" 
d="M557 238q0 90 -70 149t-190 68l4 63q213 25 213 209q0 68 -41 118t-123 50q-39 0 -92 -21l-45 -196h-80q-45 90 -41 182q130 98 304 98t269 -62t95 -171q0 -77 -60 -143t-178 -93q133 -20 207 -85t74 -154q0 -129 -112 -204t-283 -75q-244 0 -365 107q4 84 49 184h80
l41 -199q63 -29 159 -29t141 58q44 56 44 146z" />
    <glyph glyph-name="uni0438" unicode="&#x438;" horiz-adv-x="1196" 
d="M176 133v666q0 45 -45 57l-74 18l4 58h461l-6 -58l-88 -20q-29 -8 -29 -35v-665l394 778h344l-4 -58l-89 -20q-31 -10 -30 -35v-706q0 -31 24 -33l113 -23l-6 -57h-471l6 57l68 19q45 12 45 57v647l-394 -780h-340l7 57l65 19q45 12 45 57z" />
    <glyph glyph-name="uni0439" unicode="&#x439;" horiz-adv-x="1196" 
d="M622 1239q80 0 135 46q56 46 72 108h68q4 -137 -75 -223q-78 -86 -198 -87q-120 1 -201 87t-77 223h70q14 -61 70 -107t136 -47zM176 133v666q0 45 -45 57l-74 18l4 58h461l-6 -58l-88 -20q-29 -8 -29 -35v-665l394 778h344l-4 -58l-89 -20q-31 -10 -30 -35v-706
q0 -31 24 -33l113 -23l-6 -57h-471l6 57l68 19q45 12 45 57v647l-394 -780h-340l7 57l65 19q45 12 45 57z" />
    <glyph glyph-name="uni043A" unicode="&#x43a;" horiz-adv-x="1069" 
d="M176 799q0 45 -45 57l-74 18l4 58h461l-6 -58l-88 -20q-29 -8 -29 -35v-348l367 348q31 35 -4 41l-92 14l4 58h342l-2 -58l-86 -18q-33 -10 -105 -74l-188 -180l285 -405q51 -74 84 -104t77 -36l-6 -57h-291l-309 449l-76 -74v-262q0 -31 25 -33l113 -23l-7 -57h-471
l7 57l65 19q45 12 45 57v666z" />
    <glyph glyph-name="uni043B" unicode="&#x43b;" horiz-adv-x="1095" 
d="M915 819v-706q0 -31 25 -33l111 -23l-7 -57h-469l7 57l65 19q45 12 45 57v729h-293q-21 -519 -157 -733q-61 -96 -150 -147q-74 53 -119 143l43 49q31 -31 84 -31t101 74q75 119 108 380q13 95 13 169t-54 84l-106 22l8 60h868l-6 -58l-88 -22q-29 -6 -29 -33z" />
    <glyph glyph-name="uni043C" unicode="&#x43c;" horiz-adv-x="1380" 
d="M242 104q0 -31 24 -32l107 -23l-6 -49h-310l6 49l66 19q45 12 45 57v729q-12 4 -115 23l9 55h364l262 -709l267 709h360l-6 -58l-115 -22v-739q0 -31 25 -33l106 -23l-6 -57h-465l6 57l68 19q45 12 45 57v664l-291 -797h-143l-303 797v-693z" />
    <glyph glyph-name="uni043D" unicode="&#x43d;" horiz-adv-x="1196" 
d="M176 799q0 45 -45 57l-74 18l4 58h461l-6 -58l-88 -20q-29 -8 -29 -35v-303h394v283q0 45 -45 57l-76 18l6 58h459l-4 -58l-89 -20q-31 -10 -30 -35v-706q0 -31 24 -33l113 -23l-6 -57h-471l6 57l68 19q45 12 45 57v313h-394v-333q0 -31 25 -33l106 -23l-6 -57h-465l7 57
l65 19q45 12 45 57v666z" />
    <glyph glyph-name="uni043E" unicode="&#x43e;" horiz-adv-x="1064" 
d="M526 33q224 0 224 431t-222 431q-213 0 -213 -431t211 -431zM528 -31q-217 0 -338 130q-120 129 -120 363t120 366q121 132 338 132t342 -132q125 -134 125 -364t-125 -362t-342 -133z" />
    <glyph glyph-name="uni043F" unicode="&#x43f;" horiz-adv-x="1196" 
d="M176 799q0 45 -45 57l-74 18l4 58h1076l-4 -58l-89 -20q-31 -10 -30 -35v-706q0 -31 24 -33l113 -23l-6 -57h-471l6 57l68 19q45 12 45 57v729h-394v-749q0 -31 25 -33l106 -23l-6 -57h-465l7 57l65 19q45 12 45 57v666z" />
    <glyph glyph-name="uni0440" unicode="&#x440;" horiz-adv-x="1073" 
d="M588 870q-86 0 -205 -84v-696q72 -43 170 -43q197 0 197 432q0 203 -38 297t-124 94zM162 752q0 53 -37 65l-80 23l6 55q152 43 273 55h38q10 -27 19 -94q141 104 287 104t238 -122q93 -123 93 -360q-1 -237 -109 -373t-298 -136q-104 0 -209 47v-290q0 -29 25 -33
l151 -23l-6 -57h-510l6 57l68 19q45 12 45 57v1006z" />
    <glyph glyph-name="uni0441" unicode="&#x441;" horiz-adv-x="937" 
d="M532 -31q-214 0 -338 135q-126 134 -126 352t136 361t365 144q89 0 181 -28t141 -65q-8 -111 -60 -215h-69l-47 217q-80 27 -133 27q-127 0 -200 -115t-73 -305t70 -304q70 -113 215 -113t256 147l41 -33q-145 -205 -359 -205z" />
    <glyph glyph-name="uni0442" unicode="&#x442;" horiz-adv-x="937" 
d="M662 862h-84v-749q0 -31 24 -33l113 -23l-6 -57h-469l6 57l65 19q45 12 45 57v729h-73q-72 0 -113 -71l-57 -136l-68 13q-8 133 27 264h794q33 -133 27 -264l-70 -13l-59 136q-30 71 -102 71z" />
    <glyph glyph-name="uni0443" unicode="&#x443;" 
d="M92 -387v289l62 4l41 -189q3 -33 37 -27t92 40q58 33 100 96q41 63 80 174h-107l-293 803q-12 31 -22 42t-33 17l-47 12l4 58h467l-4 -55l-86 -17q-68 -10 -43 -67l168 -465l49 -178l234 655q16 45 -27 53l-94 16l6 58h295l-6 -55l-39 -15q-49 -16 -68 -69l-307 -856
q-117 -324 -459 -324z" />
    <glyph glyph-name="uni0444" unicode="&#x444;" horiz-adv-x="1562" 
d="M551 33q80 0 119 28v801q-45 33 -117 33q-238 0 -238 -431t236 -431zM1010 897q-76 0 -117 -29v-802q45 -33 119 -33q236 0 236 432t-238 432zM670 1208q0 55 -37 66l-78 22l6 54q152 43 273 55h38q20 -53 21 -141v-322q78 18 141 19q215 -1 336 -135t121 -366t-121 -362
t-336 -129q-63 0 -141 19v-262q0 -29 25 -33l110 -23l-6 -57h-469l6 57l66 19q45 12 45 57v242q-68 -18 -142 -19q-217 0 -337 130q-119 129 -119 363t121 366t335 133q63 0 142 -19v266z" />
    <glyph glyph-name="uni0445" unicode="&#x445;" horiz-adv-x="1040" 
d="M412 809l182 -262l201 252q43 53 0 59l-115 16l4 58h332l-4 -55l-62 -13q-25 -6 -43 -26l-276 -342l239 -340q35 -49 107 -78l55 -21l-4 -57h-502l4 57l91 15q47 8 14 49l-189 270l-200 -246q-43 -53 2 -63l127 -25l-8 -57h-371l6 57l82 21q33 10 63 47l265 317l-234 336
q-49 68 -90 80l-59 16l4 58h489l-4 -55l-94 -21q-41 -8 -12 -47z" />
    <glyph glyph-name="uni0446" unicode="&#x446;" horiz-adv-x="1206" 
d="M176 133v666q0 45 -45 57l-74 18l4 58h461l-6 -58l-88 -20q-29 -8 -29 -35v-749h394v729q0 45 -45 57l-76 18l6 58h459l-4 -58l-89 -20q-31 -10 -30 -35v-749h129q29 -170 10 -363h-63l-52 199q-14 54 -33 74t-65 20h-881l7 57l65 19q45 12 45 57z" />
    <glyph glyph-name="uni0447" unicode="&#x447;" horiz-adv-x="1120" 
d="M451 330q-309 0 -310 344v125q0 45 -45 57l-73 18l4 58h460l-6 -58l-88 -20q-29 -8 -28 -35v-102q0 -164 48 -229q48 -64 130 -64t174 20v355q0 45 -45 57l-74 18l4 58h461l-6 -58l-88 -20q-29 -8 -29 -35v-706q0 -31 25 -33l106 -23l-6 -57h-490l7 57l90 19q45 8 45 57
v252q-143 -55 -266 -55z" />
    <glyph glyph-name="uni0448" unicode="&#x448;" horiz-adv-x="1677" 
d="M725 799q0 45 -45 57l-72 18l4 58h457l-4 -58l-88 -20q-31 -10 -31 -35v-749h328v729q0 45 -45 57l-72 18l4 58h459l-6 -58l-88 -20q-31 -10 -31 -35v-706q0 -31 25 -33l112 -23l-6 -57h-1567l7 57l65 19q45 12 45 57v666q0 45 -45 57l-74 18l4 58h457l-4 -58l-86 -20
q-29 -8 -29 -35v-749h326v729z" />
    <glyph glyph-name="uni0449" unicode="&#x449;" horiz-adv-x="1691" 
d="M176 133v666q0 45 -45 57l-74 18l4 58h457l-4 -58l-86 -20q-29 -8 -29 -35v-749h326v729q0 45 -45 57l-72 18l4 58h457l-4 -58l-88 -20q-31 -10 -31 -35v-749h328v729q0 45 -45 57l-72 18l4 58h459l-6 -58l-88 -20q-31 -10 -31 -35v-749h133q29 -170 10 -363h-63l-49 199
q-14 54 -34 74t-65 20h-1368l7 57l65 19q45 12 45 57z" />
    <glyph glyph-name="uni044A" unicode="&#x44a;" horiz-adv-x="1191" 
d="M668 528h-84v-458h73q123 0 180 65q56 66 56 166q0 99 -54 163t-171 64zM584 598h131q193 0 311 -80t117 -217q0 -137 -117 -219t-311 -82h-469l6 57l65 19q45 12 45 57v729h-79q-80 0 -113 -71l-59 -136l-66 13q-8 129 25 264h653l-6 -58l-103 -20q-31 -10 -30 -35v-221
z" />
    <glyph glyph-name="uni044B" unicode="&#x44b;" horiz-adv-x="1501" 
d="M485 528h-86v-458h76q123 0 178 66t55 165t-52 163q-54 64 -171 64zM1100 799q0 45 -45 57l-76 18l6 58h459l-4 -58l-88 -20q-31 -10 -31 -35v-706q0 -31 25 -33l106 -23l-6 -57h-463l6 57l66 19q45 12 45 57v666zM399 819v-221h133q190 0 310 -80t119 -217
q0 -137 -118 -219t-311 -82h-473l7 57l65 19q45 12 45 57v666q0 45 -45 57l-74 18l4 58h476l-5 -58l-104 -20q-29 -8 -29 -35z" />
    <glyph glyph-name="uni044C" unicode="&#x44c;" horiz-adv-x="1007" 
d="M485 528h-86v-458h76q123 0 178 66t55 165t-52 163q-54 64 -171 64zM532 0h-473l7 57l65 19q45 12 45 57v666q0 45 -45 57l-74 18l4 58h476l-5 -58l-104 -20q-29 -8 -29 -35v-221h133q190 0 310 -80t119 -217q0 -137 -118 -219t-311 -82z" />
    <glyph glyph-name="uni044D" unicode="&#x44d;" horiz-adv-x="962" 
d="M371 897q-68 0 -140 -27l-45 -217h-69q-51 104 -60 215q49 37 145 65t191 28q229 -1 365 -141t137 -357q0 -217 -127 -355t-326 -139q-250 0 -393 205l39 33q117 -147 287 -148q131 1 199 103t75 272l-309 -20v123l309 -25q-6 178 -80 282t-198 103z" />
    <glyph glyph-name="uni044E" unicode="&#x44e;" horiz-adv-x="1583" 
d="M1044 33q224 0 224 431t-221 431q-213 0 -213 -431t210 -431zM176 799q0 45 -45 57l-76 18l6 58h459l-4 -58l-88 -20q-31 -10 -31 -35v-303h193q14 209 133 327t330 118q211 1 335 -133t124 -364t-124 -363q-124 -132 -339 -132t-336 126t-125 351h-191v-333
q0 -31 25 -33l106 -23l-6 -57h-463l7 57l65 19q45 12 45 57v666z" />
    <glyph glyph-name="uni044F" unicode="&#x44f;" horiz-adv-x="1046" 
d="M575 862q-102 0 -150 -58t-48 -154q0 -95 50 -154t155 -60h61v426h-68zM539 932h448l-4 -58l-88 -20q-31 -10 -31 -35v-706q0 -31 25 -33l112 -23l-6 -57h-471l6 57l68 19q45 12 45 57v234h-133l-119 -215q-55 -98 -95 -125t-132 -27h-158l4 51q52 12 79 41t37 41
q9 12 29 47q19 35 25 43l115 191q-164 76 -164 227t109 221t299 70z" />
    <glyph glyph-name="uni0451" unicode="&#x451;" 
d="M164 1237q0 61 34 93t92 32t92 -33t34 -93t-34 -93t-92 -33t-92 33t-34 94zM584 1237q0 61 33 93q35 32 93 32t92 -33t34 -93t-34 -93t-92 -33t-93 33q-33 33 -33 94zM496 903q-68 0 -119 -80t-64 -245l340 14q-22 311 -157 311zM309 506v-35q0 -182 71 -295t212 -113
q82 0 143 38t127 116l39 -29q-131 -219 -387 -219q-196 0 -318 136q-122 137 -126 355t113 359q118 141 318 141t299 -132q99 -134 99 -322h-590z" />
    <glyph glyph-name="uni0452" unicode="&#x452;" horiz-adv-x="1085" 
d="M68 1036v68h92v104q0 55 -37 66l-78 22l6 54q152 43 273 55h36q20 -53 21 -141v-160h324v-68h-324v-284q170 116 301 116t208 -90t77 -270v-313q1 -188 -97 -339t-262 -218l-26 47q154 119 157 510v268q0 166 -38 225q-38 60 -124 60t-196 -64v-571q0 -31 25 -33l124 -23
l-6 -57h-481l6 57l66 19q45 12 45 57v903h-92z" />
    <glyph glyph-name="uni0453" unicode="&#x453;" horiz-adv-x="829" 
d="M659 1317l-311 -250l-53 41q59 197 219 342zM176 133v666q0 45 -45 57l-74 18l4 58h693q37 -139 26 -287l-65 -10l-45 133q-31 94 -113 94h-158v-749q0 -31 25 -33l123 -23l-6 -57h-482l7 57l65 19q45 12 45 57z" />
    <glyph glyph-name="uni0454" unicode="&#x454;" horiz-adv-x="962" 
d="M528 -31q-204 0 -332 136q-128 135 -128 353t136 360t365 143q95 0 191 -28t145 -65q-8 -111 -59 -215h-70l-47 219q-74 25 -137 25q-127 0 -201 -101t-82 -276l312 27v-123l-312 20q6 -174 78 -279t209 -106q163 1 276 148l41 -33q-145 -205 -385 -205z" />
    <glyph glyph-name="uni0455" unicode="&#x455;" horiz-adv-x="872" 
d="M592 170q0 55 -51 98t-125 79t-148 78t-125 109t-51 150q0 123 97 200t281 77t310 -87q-10 -109 -55 -202h-76l-45 207q-57 20 -135 20t-119 -37t-41 -99q0 -61 51 -113t125 -89t148 -76t125 -98t51 -135q0 -133 -110 -208t-283 -75q-229 0 -357 107q15 110 60 200h78
l39 -219q68 -31 162 -31t145 45q49 44 49 99z" />
    <glyph glyph-name="uni0456" unicode="&#x456;" horiz-adv-x="565" 
d="M143 1263q0 69 38 105t104 35q65 0 103 -36q38 -37 38 -105t-39 -105t-103 -37t-103 37q-38 37 -38 106zM176 752q0 57 -37 65l-78 23l7 55q152 43 272 55h37q20 -53 20 -141v-696q0 -31 25 -33l113 -23l-7 -57h-469l7 57l65 19q45 12 45 57v619z" />
    <glyph glyph-name="uni0457" unicode="&#x457;" horiz-adv-x="565" 
d="M176 752q0 57 -37 65l-78 23l7 55q152 43 272 55h37q20 -53 20 -141v-696q0 -31 25 -33l113 -23l-7 -57h-469l7 57l65 19q45 12 45 57v619zM365 1237q0 61 33 93q34 32 92 32t93 -33q33 -33 33 -93t-34 -93t-91 -33q-58 0 -93 33q-33 33 -33 94zM-55 1237q0 61 33 93
q34 32 92 32t93 -33q34 -33 34 -93t-34 -93t-92 -33t-93 33q-33 33 -33 94z" />
    <glyph glyph-name="uni0458" unicode="&#x458;" horiz-adv-x="514" 
d="M410 1262q0 -68 -40 -105t-104 -37t-102 37t-37 106q0 69 38 105q37 36 103 35q66 0 104 -36q38 -37 38 -105zM383 55q0 -184 -102 -299t-314 -139l-18 57q75 33 113 61q38 27 69 97t31 182v738q0 57 -37 65l-78 23l6 55q152 43 273 55h36q20 -53 21 -141v-754z" />
    <glyph glyph-name="uni0459" unicode="&#x459;" horiz-adv-x="1521" 
d="M999 528h-84v-458h74q123 0 178 66t55 165t-52 163q-54 64 -171 64zM692 133v729h-293q-21 -519 -157 -733q-61 -96 -150 -147q-74 53 -119 143l43 49q31 -31 84 -31t101 74q75 119 108 380q13 95 13 169t-54 84l-106 22l8 60h868l-6 -58l-88 -22q-29 -6 -29 -33v-221
h132q193 0 311 -80t117 -217q0 -137 -117 -219t-311 -82h-472l7 57l65 19q45 12 45 57z" />
    <glyph glyph-name="uni045A" unicode="&#x45a;" horiz-adv-x="1622" 
d="M1098 528h-84v-458h73q123 0 180 65q56 66 56 166q0 99 -54 163t-171 64zM793 799q0 45 -45 57l-76 18l6 58h459l-4 -58l-89 -20q-31 -10 -30 -35v-221h131q193 0 311 -80t117 -217q0 -137 -117 -219t-311 -82h-471l6 57l68 19q45 12 45 57v313h-394v-333q0 -31 25 -33
l106 -23l-6 -57h-465l7 57l65 19q45 12 45 57v666q0 45 -45 57l-74 18l4 58h461l-6 -58l-88 -20q-29 -8 -29 -35v-303h394v283z" />
    <glyph glyph-name="uni045B" unicode="&#x45b;" horiz-adv-x="1140" 
d="M68 1036v68h92v102q0 57 -37 66l-78 22l6 56q152 43 273 55h36q20 -53 21 -141v-160h324v-68h-324v-301q186 133 319 133q281 0 281 -319v-436q0 -27 27 -33l110 -23l-6 -57h-481l6 57l78 19q45 10 45 57v393q0 123 -35 168t-130 45t-214 -75v-551q0 -31 25 -33l118 -23
l-6 -57h-475l6 57l66 19q45 12 45 57v903h-92z" />
    <glyph glyph-name="uni045C" unicode="&#x45c;" horiz-adv-x="1069" 
d="M813 1317l-311 -250l-53 41q59 195 217 342zM176 799q0 45 -45 57l-74 18l4 58h461l-6 -58l-88 -20q-29 -8 -29 -35v-348l367 348q31 35 -4 41l-92 14l4 58h342l-2 -58l-86 -18q-33 -10 -105 -74l-188 -180l285 -405q51 -74 84 -104t77 -36l-6 -57h-291l-309 449l-76 -74
v-262q0 -31 25 -33l113 -23l-7 -57h-471l7 57l65 19q45 12 45 57v666z" />
    <glyph glyph-name="uni045E" unicode="&#x45e;" 
d="M538 1239q80 0 135 46q56 46 72 108h68q4 -137 -75 -223q-78 -86 -198 -87q-120 1 -201 87t-77 223h70q14 -61 70 -107t136 -47zM92 -387v289l62 4l41 -189q3 -33 37 -27t92 40q58 33 100 96q41 63 80 174h-107l-293 803q-12 31 -22 42t-33 17l-47 12l4 58h467l-4 -55
l-86 -17q-68 -10 -43 -67l168 -465l49 -178l234 655q16 45 -27 53l-94 16l6 58h295l-6 -55l-39 -15q-49 -16 -68 -69l-307 -856q-117 -324 -459 -324z" />
    <glyph glyph-name="uni045F" unicode="&#x45f;" horiz-adv-x="1193" 
d="M793 799q0 45 -45 57l-76 18l6 58h459l-4 -58l-89 -20q-31 -10 -30 -35v-706q0 -31 24 -33l113 -23l-6 -57h-400q-41 0 -61 -23t-29 -81l-28 -189h-60l-28 193q-16 100 -84 100h-396l7 57l65 19q45 12 45 57v666q0 45 -45 57l-74 18l4 58h461l-6 -58l-88 -20
q-29 -8 -29 -35v-749h394v729z" />
    <glyph glyph-name="uni0490" unicode="&#x490;" horiz-adv-x="919" 
d="M201 1130q1 27 -15 39t-51 21l-61 14l4 58h565q35 0 51 13t31 50l74 203l67 -6q12 -172 -22 -332h-410v-1059q0 -27 16 -39t52 -18l106 -17l-4 -57h-532l6 57l55 15q46 15 56 27q11 13 12 32v999z" />
    <glyph glyph-name="uni0491" unicode="&#x491;" horiz-adv-x="825" 
d="M176 799q0 45 -45 57l-74 18l4 58h498q45 0 71 22t42 70l51 139l59 -10q10 -145 -28 -291h-355v-749q0 -31 25 -33l121 -23l-6 -57h-480l7 57l65 19q45 12 45 57v666z" />
    <glyph glyph-name="uni1E02" unicode="&#x1e02;" horiz-adv-x="1173" 
d="M467 1516q0 133 133 133q61 0 98 -34q37 -33 37 -99t-37 -101t-98 -35t-97 35t-36 101zM770 965q0 225 -199 225h-135v-483h142q98 -1 145 73t47 185zM575 635h-139v-563h166q246 0 246 274q0 123 -67 206t-206 83zM203 131v999q1 27 -15 39t-51 21l-61 14l4 58h522
q198 0 314 -73t116 -216q0 -94 -61 -180t-199 -119q170 -31 253 -120t83 -204q0 -162 -119 -256t-321 -94h-594l6 57l55 15q46 15 57 27q11 13 11 32z" />
    <glyph glyph-name="uni1E03" unicode="&#x1e03;" horiz-adv-x="1048" 
d="M403 1538q0 133 134 133q61 0 98 -34q37 -33 37 -99t-37 -100t-98 -35q-61 1 -97 35t-37 100zM543 872q-88 0 -195 -71v-764q39 -4 103 -4q139 0 209 122t71 337q0 380 -188 380zM127 1208q0 55 -37 66l-78 22l6 54q152 43 273 55h37q20 -53 20 -141v-387q137 84 254 84
q166 0 271 -123t105 -358q0 -234 -142 -372q-143 -138 -350 -138t-359 46v1192z" />
    <glyph glyph-name="uni1E0A" unicode="&#x1e0a;" horiz-adv-x="1359" 
d="M530 1516q0 133 134 133q61 0 98 -34q37 -33 37 -99t-37 -101t-98 -35t-98 35q-36 35 -36 101zM596 1190h-160v-1118h160q190 0 310 144t120 410t-121 416q-121 148 -309 148zM203 131v999q1 27 -15 39t-51 21l-61 14l4 58h547q295 0 477 -169t182 -457t-181 -462
t-470 -174h-561l6 57l55 15q46 15 57 27q11 13 11 32z" />
    <glyph glyph-name="uni1E0B" unicode="&#x1e0b;" horiz-adv-x="1079" 
d="M383 1544q0 133 133 133q61 1 98 -33t37 -100t-37 -100t-98 -35q-61 1 -97 35t-36 100zM537 63q76 0 161 56v725q-76 39 -163 39q-111 0 -162 -118q-51 -119 -51 -307t56 -292t159 -103zM461 -31q-172 0 -281 126q-108 126 -108 366q0 239 118 369t299 131q92 0 209 -48
v295q0 57 -36 66l-121 22l6 54q117 33 315 55h39q20 -53 21 -141v-1143q0 -35 39 -45l71 -19l-6 -55l-270 -25h-37q-12 27 -19 72q-113 -80 -239 -80z" />
    <glyph glyph-name="uni1E0C" unicode="&#x1e0c;" horiz-adv-x="1359" 
d="M553 -268q0 135 133 135q61 0 97 -35t36 -99q0 -63 -36 -99t-97 -36t-97 36q-36 35 -36 98zM596 1190h-160v-1118h160q190 0 310 144t120 410t-121 416q-121 148 -309 148zM203 131v999q1 27 -15 39t-51 21l-61 14l4 58h547q295 0 477 -169t182 -457t-181 -462t-470 -174
h-561l6 57l55 15q46 15 57 27q11 13 11 32z" />
    <glyph glyph-name="uni1E0D" unicode="&#x1e0d;" horiz-adv-x="1079" 
d="M408 -268q0 135 133 135q61 0 97 -35t36 -99q0 -63 -36 -99t-97 -36t-98 35q-35 36 -35 99zM537 63q76 0 161 56v725q-76 39 -163 39q-111 0 -162 -118q-51 -119 -51 -307t56 -292t159 -103zM461 -31q-172 0 -281 126q-108 126 -108 366q0 239 118 369t299 131
q92 0 209 -48v295q0 57 -36 66l-121 22l6 54q117 33 315 55h39q20 -53 21 -141v-1143q0 -35 39 -45l71 -19l-6 -55l-270 -25h-37q-12 27 -19 72q-113 -80 -239 -80z" />
    <glyph glyph-name="uni1E1E" unicode="&#x1e1e;" horiz-adv-x="1044" 
d="M424 1516q0 133 133 133q61 0 98 -34q37 -33 37 -99t-37 -101t-98 -35t-97 35t-36 101zM203 131v999q1 27 -15 39t-51 21l-61 14l4 58h895q27 -115 12 -297h-84l-76 170q-25 55 -106 55h-285v-516h240q45 0 59 43l45 121h78l-18 -400h-70l-43 129q-12 37 -53 37h-238
v-473q0 -33 32 -46q11 -5 36 -11l100 -17l-4 -57h-526l6 57l55 15q46 15 57 27q11 13 11 32z" />
    <glyph glyph-name="uni1E1F" unicode="&#x1e1f;" horiz-adv-x="604" 
d="M377 1606q0 133 133 133q61 0 98 -34q37 -33 37 -99t-37 -101t-98 -35t-97 35t-36 101zM174 932v86q0 186 100 286t261 101q161 0 264 -45q-12 -131 -64 -240h-80l-41 219q-25 6 -57 7q-160 0 -160 -308v-106h174l-4 -72h-170v-747q0 -31 25 -33l117 -23l-7 -57h-475
l6 57l66 19q45 12 45 57v727h-108l6 72h102z" />
    <glyph glyph-name="uni1E24" unicode="&#x1e24;" horiz-adv-x="1423" 
d="M571 -268q0 135 134 135q61 0 97 -35t36 -99q0 -63 -36 -99t-97 -36t-98 35q-36 36 -36 99zM203 1130q1 27 -15 39t-51 21l-61 14l4 58h485l-6 -58l-53 -16q-4 -2 -12 -4t-12 -4t-12 -4q-7 -2 -10 -4t-8 -6q-16 -10 -16 -36v-436h553v436q0 27 -16 39t-51 21l-62 14l6 58
h484l-7 -58l-53 -16q-4 -2 -12 -4t-12 -4t-12 -4t-10 -4q-3 -2 -8 -6q-15 -9 -15 -36v-999q0 -27 17 -37q16 -10 22 -11t28 -9l62 -17l-7 -57h-483l6 57l54 15q46 14 57 27q12 13 12 32v492h-553v-492q0 -27 18 -37t22 -11q5 -1 28 -9l59 -17l-4 -57h-485l6 57l55 15
q46 15 57 27q11 13 11 32v999z" />
    <glyph glyph-name="uni1E25" unicode="&#x1e25;" horiz-adv-x="1112" 
d="M414 -268q0 135 133 135q61 0 97 -35t36 -99q0 -63 -36 -99t-97 -36t-97 36q-36 35 -36 98zM158 1206q0 57 -37 66l-78 22l6 56q152 43 273 55h38q20 -53 21 -141v-439q57 43 92 66t96 47t117 23q268 0 268 -322v-526q0 -27 27 -33l109 -23l-7 -57h-481l6 57l80 19
q45 10 45 57v483q0 126 -33 174q-34 48 -118 48t-201 -84v-641q0 -31 25 -33l118 -23l-6 -57h-477l6 57l66 19q45 12 45 57v1073z" />
    <glyph glyph-name="uni1E40" unicode="&#x1e40;" horiz-adv-x="1671" 
d="M700 1288q0 133 134 133q61 1 98 -33t37 -100t-37 -100t-98 -35q-62 1 -98 35t-36 100zM272 133q0 -33 41 -47q6 -2 29 -8l82 -21l-6 -57h-346l6 57l53 19q44 11 57 24q12 14 13 33v1028l-15 6q-10 16 -96 37l4 58h334l418 -1063l432 1063h321l-6 -58q-57 -12 -123 -30
v-1043q0 -26 18 -37q18 -10 22 -11q5 -1 28 -9l61 -17l-6 -57h-483l4 57l55 15q46 15 57 27q11 13 11 32v838l-393 -969h-168q-303 754 -404 1012v-879z" />
    <glyph glyph-name="uni1E41" unicode="&#x1e41;" horiz-adv-x="1703" 
d="M729 1228q0 62 35 95t94 33t94 -33t35 -95t-35 -96t-94 -34t-94 34t-35 96zM176 752q0 57 -37 65l-78 23l7 55q152 43 272 55h39q16 -41 20 -125q57 43 93 66t96 47q61 24 117 23q182 0 241 -152q70 51 103 74t101 51t130 27q266 0 266 -322v-526q0 -27 27 -33l110 -23
l-6 -57h-481l6 57l78 19q45 10 45 57v492q0 119 -33 165q-34 46 -120 46t-209 -88q10 -55 10 -109v-526q0 -31 26 -33l119 -23l-6 -57h-491l6 57l80 19q45 10 45 57v492q0 119 -33 165t-118 46t-202 -84v-639q0 -31 25 -33l119 -23l-6 -57h-478l7 57l65 19q45 12 45 57v619z
" />
    <glyph glyph-name="uni1E44" unicode="&#x1e44;" horiz-adv-x="1404" 
d="M631 1516q0 133 133 133q61 0 98 -34q37 -33 37 -99t-37 -101t-98 -35t-97 35t-36 101zM272 133q0 -33 41 -47q6 -2 29 -8l82 -21l-6 -57h-346l6 57l55 19q42 10 54 24q13 14 14 33v1028q-55 37 -119 43l4 58h332l725 -1045v911q0 31 -33 44q-12 5 -39 12l-78 20l4 58
h346l-4 -58l-57 -18q-35 -8 -51 -20t-17 -38v-1128h-219l-723 1059v-926z" />
    <glyph glyph-name="uni1E45" unicode="&#x1e45;" horiz-adv-x="1130" 
d="M461 1236q0 62 35 95t94 33t94 -33t35 -95t-35 -96t-94 -34t-94 34t-35 96zM176 752q0 57 -37 65l-78 23l7 55q152 43 272 55h39q16 -41 20 -125q57 43 93 66t96 47q61 24 117 23q268 0 268 -322v-526q0 -27 26 -33l109 -23l-6 -57h-481l6 57l80 19q45 10 45 57v492
q0 119 -33 165t-114 46t-206 -84v-639q0 -31 25 -33l119 -23l-6 -57h-478l7 57l65 19q45 12 45 57v619z" />
    <glyph glyph-name="uni1E56" unicode="&#x1e56;" horiz-adv-x="1116" 
d="M426 1516q0 133 133 133q61 0 98 -34q37 -33 37 -99t-37 -101t-98 -35t-97 35t-36 101zM541 1190h-105v-629h131q121 0 176 90t56 234q0 305 -258 305zM203 1130q1 27 -15 39t-51 21l-61 14l4 58h473q242 0 378 -92t136 -283q0 -189 -132 -293t-353 -105h-146v-358
q0 -47 68 -57l121 -17l-7 -57h-544l6 57l55 15q46 15 57 27q11 13 11 32v999z" />
    <glyph glyph-name="uni1E57" unicode="&#x1e57;" horiz-adv-x="1073" 
d="M406 1228q0 62 34 95t94 33t95 -33t35 -95t-35 -96t-94 -34t-95 34q-34 34 -34 96zM588 870q-86 0 -205 -84v-696q72 -43 170 -43q197 0 197 432q0 203 -38 297t-124 94zM162 752q0 53 -37 65l-80 23l6 55q152 43 273 55h38q10 -27 19 -94q141 104 287 104t238 -122
q93 -123 93 -360q-1 -237 -109 -373t-298 -136q-104 0 -209 47v-290q0 -29 25 -33l151 -23l-6 -57h-510l6 57l68 19q45 12 45 57v1006z" />
    <glyph glyph-name="uni1E5A" unicode="&#x1e5a;" horiz-adv-x="1206" 
d="M504 -268q0 135 133 135q61 0 97 -35t36 -99q0 -63 -36 -99t-97 -36t-97 36q-36 35 -36 98zM575 1190h-139v-600h164q121 0 177 84t57 217q-1 299 -259 299zM203 1130q1 27 -15 39t-51 21l-61 14l4 58h493q249 0 389 -92t140 -277q0 -125 -71 -215t-195 -131l161 -307
q37 -74 80 -118t113 -65l-8 -57h-138q-119 0 -172 32t-108 144l-162 342h-166v-387q0 -27 16 -39t52 -18l104 -17l-6 -57h-528l6 57l55 15q46 15 57 27q11 13 11 32v999z" />
    <glyph glyph-name="uni1E5B" unicode="&#x1e5b;" horiz-adv-x="833" 
d="M147 -268q0 135 134 135q61 0 97 -35t36 -99q0 -63 -36 -99t-97 -36t-98 35q-36 36 -36 99zM176 752q0 57 -37 65l-78 23l7 55q152 43 272 55h39q14 -39 18 -108q137 119 262 119q80 0 154 -52q-8 -129 -63 -252h-76l-35 181q-31 12 -57 12q-100 0 -183 -86v-651
q0 -31 25 -33l139 -23l-6 -57h-498l7 57l65 19q45 12 45 57v619z" />
    <glyph glyph-name="uni1E60" unicode="&#x1e60;" horiz-adv-x="1005" 
d="M476 33q126 0 179 57t51 137q-3 141 -220 271q-91 55 -181 115q-91 61 -155 149t-66 194q-2 156 117 246t309 90q104 0 218 -24t177 -64q-4 -147 -47 -252h-92l-66 256q-51 18 -168 18q-116 0 -168 -62t-50 -143t66 -153q65 -72 155 -126t181 -110t154 -138t66 -183
q4 -160 -125 -251t-334 -91q-117 0 -233 29t-187 78q0 142 39 248h94l76 -258q84 -33 210 -33zM416 1516q0 133 133 133q61 0 98 -34q37 -33 37 -99t-37 -101t-98 -35t-97 35t-36 101z" />
    <glyph glyph-name="uni1E61" unicode="&#x1e61;" horiz-adv-x="872" 
d="M319 1236q0 62 35 95q34 33 94 33t95 -33t35 -95t-35 -96t-94 -34t-95 34q-35 34 -35 96zM592 170q0 55 -51 98t-125 79t-148 78t-125 109t-51 150q0 123 97 200t281 77t310 -87q-10 -109 -55 -202h-76l-45 207q-57 20 -135 20t-119 -37t-41 -99q0 -61 51 -113t125 -89
t148 -76t125 -98t51 -135q0 -133 -110 -208t-283 -75q-229 0 -357 107q15 110 60 200h78l39 -219q68 -31 162 -31t145 45q49 44 49 99z" />
    <glyph glyph-name="uni1E62" unicode="&#x1e62;" horiz-adv-x="1005" 
d="M476 33q126 0 179 57t51 137q-3 141 -220 271q-91 55 -181 115q-91 61 -155 149t-66 194q-2 156 117 246t309 90q104 0 218 -24t177 -64q-4 -147 -47 -252h-92l-66 256q-51 18 -168 18q-116 0 -168 -62t-50 -143t66 -153q65 -72 155 -126t181 -110t154 -138t66 -183
q4 -160 -125 -251t-334 -91q-117 0 -233 29t-187 78q0 142 39 248h94l76 -258q84 -33 210 -33zM358 -268q0 135 134 135q61 0 97 -35t36 -99q0 -63 -36 -99t-97 -36t-98 35q-36 36 -36 99z" />
    <glyph glyph-name="uni1E63" unicode="&#x1e63;" horiz-adv-x="872" 
d="M592 170q0 55 -51 98t-125 79t-148 78t-125 109t-51 150q0 123 97 200t281 77t310 -87q-10 -109 -55 -202h-76l-45 207q-57 20 -135 20t-119 -37t-41 -99q0 -61 51 -113t125 -89t148 -76t125 -98t51 -135q0 -133 -110 -208t-283 -75q-229 0 -357 107q15 110 60 200h78
l39 -219q68 -31 162 -31t145 45q49 44 49 99zM303 -268q0 135 133 135q62 0 98 -35t36 -99t-36 -100q-36 -35 -98 -35t-97 36q-36 35 -36 98z" />
    <glyph glyph-name="uni1E6A" unicode="&#x1e6a;" horiz-adv-x="1136" 
d="M436 1516q0 133 133 133q61 0 99 -34q38 -33 37 -99q0 -66 -37 -101q-36 -35 -98 -35t-98 35t-36 101zM834 1190h-148v-1059q0 -34 30 -46q11 -5 36 -11l94 -17l-6 -57h-543l4 57l82 15q37 8 53 20t17 39v1059h-152q-78 0 -108 -68l-82 -170l-66 15q-10 160 27 295h993
q33 -135 27 -295l-70 -15l-80 170q-31 68 -108 68z" />
    <glyph glyph-name="uni1E6B" unicode="&#x1e6b;" horiz-adv-x="618" 
d="M156 860h-127l6 55q117 27 185 97t102 192h57v-272h194l-6 -72h-188v-651q0 -131 98 -131q47 0 135 18l-4 -65q-96 -61 -212 -61q-240 -1 -240 249v641zM174 1493q0 133 133 133q61 0 99 -34t36 -100q0 -66 -36 -100t-98 -34t-98 34t-36 101z" />
    <glyph glyph-name="uni1E6C" unicode="&#x1e6c;" horiz-adv-x="1136" 
d="M426 -268q0 135 133 135q61 0 97 -35t36 -99q0 -63 -36 -99t-97 -36t-97 36q-36 35 -36 98zM834 1190h-148v-1059q0 -34 30 -46q11 -5 36 -11l94 -17l-6 -57h-543l4 57l82 15q37 8 53 20t17 39v1059h-152q-78 0 -108 -68l-82 -170l-66 15q-10 160 27 295h993
q33 -135 27 -295l-70 -15l-80 170q-31 68 -108 68z" />
    <glyph glyph-name="uni1E6D" unicode="&#x1e6d;" horiz-adv-x="618" 
d="M156 860h-127l6 55q117 27 185 97t102 192h57v-272h194l-6 -72h-188v-651q0 -131 98 -131q47 0 135 18l-4 -65q-96 -61 -212 -61q-240 -1 -240 249v641zM182 -268q0 135 133 135q61 0 97 -35t37 -99q0 -63 -36 -99q-35 -36 -97 -36t-98 36q-36 35 -36 98z" />
    <glyph glyph-name="Wgrave" unicode="&#x1e80;" horiz-adv-x="1857" 
d="M737 1462l51 185q121 -25 245 -86t177 -129l-30 -62zM463 0l-359 1118q-14 49 -59 64l-61 22l4 58h547l-5 -58l-124 -28q-61 -14 -39 -82l272 -883l254 762l-45 145q-14 47 -60 64l-61 22l4 58h547l-4 -58l-125 -28q-63 -14 -41 -82l274 -883l295 889q25 68 -39 82
l-131 22l4 58h379l-6 -58l-53 -20q-55 -20 -68 -62l-374 -1122h-183l-274 856l-287 -856h-182z" />
    <glyph glyph-name="wgrave" unicode="&#x1e81;" horiz-adv-x="1511" 
d="M520 1317l148 133q160 -145 219 -342l-53 -41zM381 0l-279 803q-12 31 -22 42t-33 17l-45 12l4 58h469l-4 -55l-82 -15q-61 -10 -43 -67l148 -467q20 -66 43 -170l186 549l-33 96q-12 31 -22 42t-33 17l-45 12l4 58h469l-4 -55l-82 -15q-61 -10 -43 -67l147 -467l41 -164
l209 641q16 47 -26 53l-93 16l5 58h294l-4 -55l-39 -15q-51 -20 -67 -69l-264 -793h-168l-209 598l-211 -598h-168z" />
    <glyph glyph-name="Wacute" unicode="&#x1e82;" horiz-adv-x="1857" 
d="M1229 1462l-443 -92l-28 62q55 68 179 129t243 86zM463 0l-359 1118q-14 49 -59 64l-61 22l4 58h547l-5 -58l-124 -28q-61 -14 -39 -82l272 -883l254 762l-45 145q-14 47 -60 64l-61 22l4 58h547l-4 -58l-125 -28q-63 -14 -41 -82l274 -883l295 889q25 68 -39 82l-131 22
l4 58h379l-6 -58l-53 -20q-55 -20 -68 -62l-374 -1122h-183l-274 856l-287 -856h-182z" />
    <glyph glyph-name="wacute" unicode="&#x1e83;" horiz-adv-x="1511" 
d="M1016 1290l-314 -248l-53 39q59 195 219 344zM381 0l-279 803q-12 31 -22 42t-33 17l-45 12l4 58h469l-4 -55l-82 -15q-61 -10 -43 -67l148 -467q20 -66 43 -170l186 549l-33 96q-12 31 -22 42t-33 17l-45 12l4 58h469l-4 -55l-82 -15q-61 -10 -43 -67l147 -467l41 -164
l209 641q16 47 -26 53l-93 16l5 58h294l-4 -55l-39 -15q-51 -20 -67 -69l-264 -793h-168l-209 598l-211 -598h-168z" />
    <glyph glyph-name="Wdieresis" unicode="&#x1e84;" horiz-adv-x="1857" 
d="M1030 1505q0 133 133 133q61 0 99 -33q36 -34 36 -100q0 -67 -36 -101t-98 -34t-98 34t-36 101zM610 1505q0 133 135 133q61 0 98 -33q36 -34 36 -100q0 -67 -36 -101q-37 -34 -99 -34t-98 34t-36 101zM463 0l-359 1118q-14 49 -59 64l-61 22l4 58h547l-5 -58l-124 -28
q-61 -14 -39 -82l272 -883l254 762l-45 145q-14 47 -60 64l-61 22l4 58h547l-4 -58l-125 -28q-63 -14 -41 -82l274 -883l295 889q25 68 -39 82l-131 22l4 58h379l-6 -58l-53 -20q-55 -20 -68 -62l-374 -1122h-183l-274 856l-287 -856h-182z" />
    <glyph glyph-name="wdieresis" unicode="&#x1e85;" horiz-adv-x="1511" 
d="M854 1229q0 61 34 93t92 32t92 -33t34 -93t-34 -93t-92 -33t-92 33t-34 94zM434 1229q0 61 34 93t92 32t92 -33t34 -93t-34 -93t-92 -33t-92 33t-34 94zM381 0l-279 803q-12 31 -22 42t-33 17l-45 12l4 58h469l-4 -55l-82 -15q-61 -10 -43 -67l148 -467q20 -66 43 -170
l186 549l-33 96q-12 31 -22 42t-33 17l-45 12l4 58h469l-4 -55l-82 -15q-61 -10 -43 -67l147 -467l41 -164l209 641q16 47 -26 53l-93 16l5 58h294l-4 -55l-39 -15q-51 -20 -67 -69l-264 -793h-168l-209 598l-211 -598h-168z" />
    <glyph glyph-name="uni1E92" unicode="&#x1e92;" horiz-adv-x="1103" 
d="M406 -268q0 135 133 135q61 0 97 -35t36 -99q0 -63 -36 -99t-97 -36t-98 35q-35 36 -35 99zM1038 328q0 -186 -39 -328h-954l2 78l707 1112l-369 -4q-63 -2 -87 -20t-46 -66l-76 -146l-90 4q-10 168 29 304h925l-6 -66l-712 -1130l403 8q67 2 95 24t52 78l70 152h96z" />
    <glyph glyph-name="uni1E93" unicode="&#x1e93;" horiz-adv-x="901" 
d="M307 -268q0 135 133 135q62 0 98 -35t36 -99t-36 -100q-36 -35 -98 -35t-97 36q-36 35 -36 98zM49 86l545 784l-236 -8q-92 -4 -145 -96l-63 -104h-64q10 152 47 270h696l-6 -94l-532 -777l272 9q96 2 146 90l65 119h68q-18 -160 -51 -279h-748z" />
    <glyph glyph-name="uni1EB8" unicode="&#x1eb8;" horiz-adv-x="1089" 
d="M418 -268q0 135 133 135q61 0 97 -35t36 -99q0 -63 -36 -99t-97 -36t-97 36q-36 35 -36 98zM203 131v999q1 27 -15 39t-51 21l-61 14l4 58h891q25 -123 12 -291h-86l-76 164q-25 55 -106 55h-279v-504h240q45 0 59 43l45 121h78l-18 -399h-70l-43 129q-10 35 -53 34h-238
v-542h303q76 0 97 47l90 172h90q6 -152 -33 -291h-909l6 57l55 15q46 15 57 27q11 13 11 32z" />
    <glyph glyph-name="uni1EB9" unicode="&#x1eb9;" 
d="M358 -268q0 135 134 135q61 0 97 -35t36 -99q0 -63 -36 -99t-97 -36t-98 35q-36 36 -36 99zM496 903q-68 0 -119 -80t-64 -245l340 14q-22 311 -157 311zM309 506v-35q0 -182 71 -295t212 -113q82 0 143 38t127 116l39 -29q-131 -219 -387 -219q-196 0 -318 136
q-122 137 -126 355t113 359q118 141 318 141t299 -132q99 -134 99 -322h-590z" />
    <glyph glyph-name="uni1EBC" unicode="&#x1ebc;" horiz-adv-x="1089" 
d="M705 1534q72 0 83 65h64q2 -102 -38 -162q-40 -61 -112 -61t-160 42q-86 42 -144 42t-74 -53h-68q2 92 49 149q47 58 113 58t152 -40q87 -40 135 -40zM203 131v999q1 27 -15 39t-51 21l-61 14l4 58h891q25 -123 12 -291h-86l-76 164q-25 55 -106 55h-279v-504h240
q45 0 59 43l45 121h78l-18 -399h-70l-43 129q-10 35 -53 34h-238v-542h303q76 0 97 47l90 172h90q6 -152 -33 -291h-909l6 57l55 15q46 15 57 27q11 13 11 32z" />
    <glyph glyph-name="uni1EBD" unicode="&#x1ebd;" 
d="M496 903q-68 0 -119 -80t-64 -245l340 14q-22 311 -157 311zM645 1264q76 0 90 67h58q6 -96 -36 -165q-43 -68 -113 -68t-150 43t-127 43q-72 0 -97 -74h-57q-2 96 48 164q49 68 113 68t146 -40q82 -38 125 -38zM309 506v-35q0 -182 71 -295t212 -113q82 0 143 38
t127 116l39 -29q-131 -219 -387 -219q-196 0 -318 136q-122 137 -126 355t113 359q118 141 318 141t299 -132q99 -134 99 -322h-590z" />
    <glyph glyph-name="uni1ECA" unicode="&#x1eca;" horiz-adv-x="638" 
d="M182 -268q0 135 133 135q61 0 97 -35t37 -99q0 -63 -36 -99q-35 -36 -97 -36t-98 36q-36 35 -36 98zM203 1130q1 27 -15 39t-51 21l-61 14l4 58h485l-6 -58l-53 -16q-4 -2 -12 -4t-12 -4t-12 -4q-7 -2 -10 -4t-8 -6q-16 -10 -16 -36v-999q0 -27 18 -37t22 -11q5 -1 28 -9
l59 -17l-4 -57h-485l6 57l55 15q46 15 57 27q11 13 11 32v999z" />
    <glyph glyph-name="uni1ECB" unicode="&#x1ecb;" horiz-adv-x="565" 
d="M150 -268q0 135 133 135q61 0 97 -35t36 -99q0 -63 -36 -99t-97 -36t-98 35q-35 36 -35 99zM143 1263q0 69 38 105t104 35q65 0 103 -36q38 -37 38 -105t-39 -105t-103 -37t-103 37q-38 37 -38 106zM176 752q0 57 -37 65l-78 23l7 55q152 43 272 55h37q20 -53 20 -141
v-696q0 -31 25 -33l113 -23l-7 -57h-469l7 57l65 19q45 12 45 57v619z" />
    <glyph glyph-name="uni1ECC" unicode="&#x1ecc;" horiz-adv-x="1394" 
d="M700 33q168 0 265 166q96 166 96 430t-95 432q-96 168 -264 168t-268 -165t-100 -426t99 -433t267 -172zM700 -31q-282 0 -454 173q-172 172 -172 484t174 489t451 177t449 -173t173 -487q0 -314 -170 -488t-451 -175zM563 -268q0 135 133 135q62 0 98 -35t36 -99
t-36 -100q-36 -35 -98 -35t-97 36q-36 35 -36 98z" />
    <glyph glyph-name="uni1ECD" unicode="&#x1ecd;" horiz-adv-x="1064" 
d="M526 33q224 0 224 431t-222 431q-213 0 -213 -431t211 -431zM528 -31q-217 0 -338 130q-120 129 -120 363t120 366q121 132 338 132t342 -132q125 -134 125 -364t-125 -362t-342 -133zM391 -268q0 135 133 135q62 0 98 -35t36 -99t-36 -100q-36 -35 -98 -35t-97 36
q-36 35 -36 98z" />
    <glyph glyph-name="uni1EE4" unicode="&#x1ee4;" horiz-adv-x="1310" 
d="M1137 508q0 -270 -111 -404t-346 -135q-280 0 -392 124t-112 382v655q0 27 -16 39t-51 21l-62 14l6 58h498l-4 -58l-70 -16q-45 -13 -56 -26t-11 -32v-718q0 -367 317 -367q338 0 338 451v634q0 27 -15 39t-51 21l-71 14l6 58h332l-6 -58l-54 -16q-4 -2 -12 -4t-12 -4
t-12 -4t-10 -4q-3 -2 -8 -6q-15 -9 -15 -36v-622zM528 -268q0 135 134 135q61 0 97 -35t36 -99q0 -63 -36 -99t-97 -36t-98 35q-36 36 -36 99z" />
    <glyph glyph-name="uni1EE5" unicode="&#x1ee5;" horiz-adv-x="1114" 
d="M420 -268q0 135 133 135q61 0 97 -35t36 -99q0 -63 -36 -99t-97 -36t-97 36q-36 35 -36 98zM154 752q0 57 -37 65l-80 23l6 55q152 43 272 55h39q20 -53 21 -139v-479q0 -140 38 -194q39 -54 119 -54t195 59v609q0 57 -37 65l-82 23l6 55q158 43 277 55h37
q20 -53 20 -141v-676q0 -47 45 -57l88 -17l-6 -49q-94 -23 -289 -33h-38q-16 31 -21 91q-170 -98 -295 -99q-279 0 -278 355v428z" />
    <glyph glyph-name="Ygrave" unicode="&#x1ef2;" horiz-adv-x="1150" 
d="M375 1462l51 185q121 -25 245 -86t177 -129l-31 -62zM696 131q0 -32 30 -46q11 -5 36 -11l67 -17l-4 -57h-497l6 57l59 15q37 8 53 20t17 39v367l-350 610q-41 74 -72 82l-61 14l4 58h524l-4 -58l-96 -14q-57 -14 -31 -70l293 -510l282 504q16 33 13 49q-4 16 -31 23
l-125 18l6 58h371l-4 -58l-52 -10q-59 -10 -96 -80l-338 -600v-383z" />
    <glyph glyph-name="ygrave" unicode="&#x1ef3;" 
d="M299 1325l147 133q160 -145 220 -342l-54 -41zM92 -387v289l62 4l41 -189q3 -33 37 -27t92 40q58 33 100 96q41 63 80 174h-107l-293 803q-12 31 -22 42t-33 17l-47 12l4 58h467l-4 -55l-86 -17q-68 -10 -43 -67l168 -465l49 -178l234 655q16 45 -27 53l-94 16l6 58h295
l-6 -55l-39 -15q-49 -16 -68 -69l-307 -856q-117 -324 -459 -324z" />
    <glyph glyph-name="uni1EF8" unicode="&#x1ef8;" horiz-adv-x="1150" 
d="M817 1534q72 0 84 65h64q2 -102 -38 -162q-76 -113 -273 -19q-86 42 -144 42t-74 -53h-67q2 92 49 149q48 58 112 58t152 -40t135 -40zM696 131q0 -32 30 -46q11 -5 36 -11l67 -17l-4 -57h-497l6 57l59 15q37 8 53 20t17 39v367l-350 610q-41 74 -72 82l-61 14l4 58h524
l-4 -58l-96 -14q-57 -14 -31 -70l293 -510l282 504q16 33 13 49q-4 16 -31 23l-125 18l6 58h371l-4 -58l-52 -10q-59 -10 -96 -80l-338 -600v-383z" />
    <glyph glyph-name="uni1EF9" unicode="&#x1ef9;" 
d="M686 1264q76 0 90 67h58q6 -96 -36 -165q-42 -68 -112 -68t-151 43q-80 43 -127 43q-72 0 -97 -74h-57q-2 96 48 164t114 68t145 -40q82 -38 125 -38zM92 -387v289l62 4l41 -189q3 -33 37 -27t92 40q58 33 100 96q41 63 80 174h-107l-293 803q-12 31 -22 42t-33 17
l-47 12l4 58h467l-4 -55l-86 -17q-68 -10 -43 -67l168 -465l49 -178l234 655q16 45 -27 53l-94 16l6 58h295l-6 -55l-39 -15q-49 -16 -68 -69l-307 -856q-117 -324 -459 -324z" />
    <glyph glyph-name="endash" unicode="&#x2013;" horiz-adv-x="997" 
d="M86 473v176h825v-176h-825z" />
    <glyph glyph-name="emdash" unicode="&#x2014;" horiz-adv-x="1800" 
d="M111 397v174h1579v-174h-1579z" />
    <glyph glyph-name="quoteleft" unicode="&#x2018;" horiz-adv-x="460" 
d="M213 803q-61 0 -97 40t-36 113q0 130 80 232t221 139l10 -55q-94 -43 -137 -89t-57 -112q152 -10 151 -131q0 -70 -37 -104t-98 -33z" />
    <glyph glyph-name="quoteright" unicode="&#x2019;" horiz-adv-x="471" 
d="M133 1192q0 135 133 135q64 0 100 -39t35 -114q0 -131 -79 -233q-81 -101 -222 -138l-10 55q94 43 137 89t56 112q-150 10 -150 133z" />
    </font>
</defs>
</svg>
